<?xml version="1.0" encoding="utf-8"?>
<!-- Generator: Adobe Illustrator 18.0.0, SVG Export Plug-In . SVG Version: 6.00 Build 0)  -->
<!DOCTYPE svg PUBLIC "-//W3C//DTD SVG 1.1//EN" "http://www.w3.org/Graphics/SVG/1.1/DTD/svg11.dtd">
<svg version="1.1" id="Layer_1" xmlns="http://www.w3.org/2000/svg" xmlns:xlink="http://www.w3.org/1999/xlink" x="0px" y="0px"
	 viewBox="0 0 1300 457" enable-background="new 0 0 1300 457" xml:space="preserve">
<linearGradient id="SVGID_1_" gradientUnits="userSpaceOnUse" x1="1300" y1="228.5" x2="-2.083652e-008" y2="228.5">
	<stop  offset="0" style="stop-color:#0A2472"/>
	<stop  offset="1" style="stop-color:#1A43BF"/>
</linearGradient>
<rect y="-3" fill="url(#SVGID_1_)" width="1300" height="463"/>
<g>
	<g>
		<defs>
			<path id="SVGID_67_" d="M326.3,162.1l-60.6,30.5v17.3l33,18.8l29.6-12.5l-22.5-14.1l18.7-9.9l58.8,32.3v-29.2L326.3,162.1z
				 M320.7,240.8l22.5,14.1l-18.7,9.9l-58.8-32.3v29.2l57,33.2l60.6-30.5v-17.3l-33-18.8L320.7,240.8z"/>
		</defs>
		<clipPath id="SVGID_3_">
			<use xlink:href="#SVGID_67_"  overflow="visible"/>
		</clipPath>
		<path clip-path="url(#SVGID_3_)" fill-rule="evenodd" clip-rule="evenodd" fill="#FFFFFF" d="M254.5,287.7c-0.2,0.8,0.2,1.7,1,1.9
			c0.8,0.2,1.7-0.2,1.9-1c0,0,0.8-2.9-1-5.1c-2.1-2.6-5.3-2.2-5.3-2.2c-0.8,0.1-1.4,0.8-1.4,1.7c0.1,0.8,0.8,1.4,1.7,1.4
			c0,0,1.6-0.2,2.7,1.1C254.9,286.4,254.5,287.7,254.5,287.7L254.5,287.7z M260.6,295.2c-0.1,0.8,0.4,1.6,1.3,1.8
			c0.8,0.1,1.6-0.4,1.8-1.3c0,0,1.5-9.7-3.7-15.6c-4.5-5.1-13.8-5.8-13.8-5.8c-0.8-0.1-1.6,0.6-1.6,1.4c-0.1,0.8,0.6,1.6,1.4,1.6
			c0,0,7.9,0.4,11.7,4.8C262,287,260.6,295.2,260.6,295.2L260.6,295.2z M266.3,298.8c0.1,0.8,0.9,1.4,1.7,1.3
			c0.8-0.1,1.4-0.9,1.3-1.7c0,0-0.8-6.3-1.1-7.9c-0.2-0.8-1-1.4-1.8-1.2s-1.4,1-1.2,1.8C265.6,292.6,266.3,298.8,266.3,298.8
			L266.3,298.8z M264.6,284.4c0.1,0.8,0.8,1.4,1.7,1.3c0.8-0.1,1.4-0.8,1.3-1.7c0,0-0.8-7.8-8.7-11.1c-7-3-14.2-5.3-14.2-5.3
			c-0.8-0.3-1.7,0.2-1.9,1s0.2,1.7,1,1.9c0,0,7.1,2.3,14,5.2C263.9,278.3,264.6,284.4,264.6,284.4L264.6,284.4z M272.1,301.2
			c0.1,0.8,0.9,1.4,1.7,1.3s1.4-0.9,1.3-1.7c0,0-1.1-9.6-2-15c-1-5.7-2.4-14.2-11.7-17.9c-8.7-3.5-18.6-6.7-18.6-6.7
			c-0.8-0.3-1.7,0.2-1.9,1c-0.3,0.8,0.2,1.7,1,1.9c0,0,9.8,3.2,18.4,6.6c8,3.2,9,10.6,9.9,15.6C271,291.7,272.1,301.2,272.1,301.2
			L272.1,301.2z M278.1,303.7c0.1,0.8,0.9,1.4,1.7,1.3c0.8-0.1,1.4-0.9,1.3-1.7c0,0-1.9-12.4-3-18.3c-1.1-6.2-1.9-14.4-12.2-20.2
			c-9.8-5.5-18.3-6.6-24-9.5c-0.8-0.4-1.7-0.1-2,0.7c-0.4,0.8-0.1,1.7,0.7,2c5.7,2.9,14.2,3.9,23.9,9.4c9.2,5.2,9.7,12.5,10.7,18.1
			C276.1,291.4,278.1,303.7,278.1,303.7L278.1,303.7z M252.4,256.8c0.8,0.3,1.7-0.1,2-0.9c0.3-0.8-0.1-1.7-0.9-2
			c0,0-7.9-2.9-11.8-4.8c-0.8-0.4-1.7,0-2,0.7c-0.4,0.8,0,1.7,0.7,2C244.4,253.8,252.4,256.8,252.4,256.8L252.4,256.8z M272.7,263.1
			c-0.7-0.4-1.7-0.2-2.1,0.5c-0.4,0.7-0.2,1.7,0.5,2.1c0,0,7.2,4.6,9.1,16.6c2.1,12.9,2.6,19.4,3.6,23.2c0.2,0.8,1,1.3,1.9,1.1
			c0.8-0.2,1.3-1,1.1-1.9c-1-3.8-1.5-10.3-3.5-23C281,268.2,272.7,263.1,272.7,263.1L272.7,263.1z M289,306c0.2,0.8,1,1.4,1.8,1.2
			c0.8-0.2,1.4-1,1.2-1.8c0,0-2.7-14.3-3.4-20c-0.7-5.9-2.3-18.1-14.1-27.8c-6.7-5.5-13.1-6.3-20.4-8.8c-7.4-2.6-12-5-12-5
			c-0.7-0.4-1.7-0.1-2.1,0.6c-0.4,0.7-0.1,1.7,0.6,2.1c0,0,4.8,2.5,12.4,5.2c6.9,2.4,13,3.1,19.4,8.3c10.9,9,12.4,20.3,13,25.8
			C286.3,291.6,289,306,289,306L289,306z M294.7,306.9c0.2,0.8,1,1.4,1.8,1.2c0.8-0.2,1.4-1,1.2-1.8c0,0-3.1-16.4-4.1-24.2
			c-1-8.1-5.1-23.4-18.2-30.1c-13.3-6.8-25.7-10.2-32.6-13.6c-0.8-0.4-1.7-0.1-2,0.7c-0.4,0.8-0.1,1.7,0.7,2
			c6.9,3.4,19.3,6.8,32.5,13.6c12,6.1,15.6,20.3,16.6,27.7C291.6,290.4,294.7,306.9,294.7,306.9L294.7,306.9z M257.3,255.4
			c-0.8-0.3-1.7,0.2-1.9,1c-0.3,0.8,0.2,1.7,1,1.9c0,0,5.9,1.9,10.4,4.3c0.7,0.4,1.7,0.1,2.1-0.6c0.4-0.7,0.1-1.7-0.6-2.1
			C263.6,257.4,257.3,255.4,257.3,255.4L257.3,255.4z M296.1,284.3c0.1,0.8,0.8,1.5,1.6,1.4c0.8-0.1,1.5-0.8,1.4-1.6
			c0,0-1-13-6.1-21.2c-5.1-8.2-11.4-14.9-23.3-19.4c-11.4-4.3-20.3-7.4-25.6-10.4c-0.7-0.4-1.7-0.2-2.1,0.6
			c-0.4,0.7-0.2,1.7,0.6,2.1c5.4,3.1,14.4,6.2,26.1,10.6c11.2,4.2,17,10.6,21.8,18.2C295.2,272.2,296.1,284.3,296.1,284.3
			L296.1,284.3z M300.3,307.2c0.2,0.8,1,1.3,1.8,1.2c0.8-0.2,1.3-1,1.2-1.8c0,0-2.4-11.2-3.5-17c-0.1-0.8-0.9-1.4-1.8-1.2
			c-0.8,0.1-1.4,0.9-1.2,1.8C297.9,296,300.3,307.2,300.3,307.2L300.3,307.2z M305.2,306.7c0.1,0.8,0.9,1.4,1.8,1.2
			c0.8-0.1,1.4-0.9,1.2-1.8c0,0-3.6-20.7-4-26.2c-0.5-5.8-4.6-21.6-20-34c-9.4-7.6-25.1-12.1-25.1-12.1c-0.8-0.2-1.7,0.2-1.9,1
			c-0.2,0.8,0.2,1.7,1,1.9c0,0,15,4.3,24,11.5c14.5,11.7,18.5,26.5,18.9,31.9C301.6,285.8,305.2,306.7,305.2,306.7L305.2,306.7z
			 M252.4,234.6c0.8,0.4,1.7,0,2-0.7c0.4-0.8,0-1.7-0.7-2c0,0-5.5-2.6-8.3-3.9c-0.8-0.4-1.7,0-2,0.7c-0.4,0.8,0,1.7,0.7,2
			C246.9,232,252.4,234.6,252.4,234.6L252.4,234.6z M247.7,223c-0.8-0.4-1.7,0-2,0.7c-0.4,0.8,0,1.7,0.7,2c0,0,17,7.9,26.2,10.3
			c9.6,2.5,18.9,1.9,27.9-4.3c9.5-6.6,17-15.6,20.8-24c3.5-7.9,5.9-14.6,14.4-19.4c8.4-4.7,19.9-4.9,28.8,2.9
			c8.8,7.8,9.9,18.9,6.5,26.8c-5.2,11.9-7.7,15.9-10.6,27.8c-2.8,11.3-3,22-1.4,36.8c0.1,0.8,0.9,1.4,1.7,1.3
			c0.8-0.1,1.4-0.9,1.3-1.7c-1.6-14.3-1.4-24.7,1.3-35.7c2.8-11.7,5.3-15.6,10.4-27.3c3.9-8.9,2.7-21.5-7.3-30.3
			c-9.9-8.8-22.9-8.5-32.3-3.3c-9.2,5.2-11.9,12.3-15.7,20.9c-3.6,8-10.7,16.5-19.7,22.8c-8.1,5.6-16.6,6.1-25.4,3.9
			C264.4,230.8,247.7,223,247.7,223L247.7,223z M310.6,305.3c0.2,0.8,1,1.3,1.8,1.1c0.8-0.2,1.3-1,1.1-1.8c0,0-4.1-17.2-4.9-28
			c-0.9-12.5,1-24.8,2.3-34.8c0.8-6.4,3.2-14.4,3.2-14.4c0.2-0.8-0.2-1.7-1-1.9c-0.8-0.2-1.7,0.2-1.9,1c0,0-2.4,8.3-3.3,14.9
			c-1.3,10.1-3.3,22.7-2.4,35.4C306.4,287.8,310.6,305.3,310.6,305.3L310.6,305.3z M286.1,231.6c0.8-0.2,1.4-1,1.2-1.8
			c-0.2-0.8-1-1.4-1.8-1.2c0,0-7.2,1.4-15.2-1.8c-8.5-3.3-20.8-8.4-20.8-8.4c-0.8-0.3-1.7,0-2,0.8c-0.3,0.8,0,1.7,0.8,2
			c0,0,12.3,5.1,20.8,8.4C278.1,233.3,286.1,231.6,286.1,231.6L286.1,231.6z M315.7,304.4c0.2,0.8,1,1.3,1.8,1.1
			c0.8-0.2,1.3-1,1.1-1.8c0,0-4.4-18.9-4.6-31.3c-0.2-12.3,0.7-17.8,0.7-17.8c0.1-0.8-0.4-1.6-1.3-1.7c-0.8-0.1-1.6,0.4-1.7,1.3
			c0,0-0.9,5.7-0.8,18.3C311.2,285.1,315.7,304.4,315.7,304.4L315.7,304.4z M320.7,303.6c0.2,0.8,1,1.3,1.9,1.1s1.3-1,1.1-1.9
			c0,0-5-19.6-4.8-44.3c0.1-14.8,9.3-41.5,15.5-53.3c2.3-4.4,5.1-7.1,8-8.4c4.2-2,8.6-1.3,11.6,0.2c3,1.5,6.4,4.5,7.4,9.1
			c0.7,3.1,0.4,7-1.8,11.6c-5.9,12.7-9.2,16.8-11.6,36.4c-2.4,19.6,1.2,36.1,1.2,36.1c0.2,0.8,1,1.3,1.8,1.2c0.8-0.2,1.3-1,1.2-1.8
			c0,0-3.5-16-1.1-35c2.3-19.1,5.6-23.1,11.3-35.5c2.5-5.4,2.8-9.9,2-13.6c-1.3-5.6-5.4-9.3-9.1-11.1c-3.7-1.8-9.1-2.7-14.3-0.2
			c-3.4,1.6-6.7,4.6-9.4,9.8c-6.3,12.1-15.7,39.6-15.8,54.7C315.6,283.6,320.7,303.6,320.7,303.6L320.7,303.6z M349.5,174.7
			c0.8,0.2,1.6-0.3,1.8-1.2s-0.3-1.6-1.2-1.8c0,0-6.5-1.5-16.4,2.5c-9.7,3.9-16.5,9.8-22.4,22.9c-5.6,12.2-10.2,20.1-22.1,25.1
			c-9.5,4-19.2,0.7-37.4-8.7c-0.7-0.4-1.7-0.1-2.1,0.7c-0.4,0.7-0.1,1.7,0.7,2.1c19.5,9.9,29.9,13,40,8.8
			c12.6-5.3,17.7-13.6,23.7-26.7c5.5-12.2,11.8-17.7,20.8-21.3C343.7,173.5,349.5,174.7,349.5,174.7L349.5,174.7z M325.7,301.7
			c0.2,0.8,1,1.3,1.8,1.2c0.8-0.2,1.3-1,1.2-1.8c0,0-4-17.7-4.6-32.2c-0.6-14.4,4-35.6,7.2-43.7c2.9-7.4,7.5-18.1,9.3-20.9
			c1.6-2.5,6.3-4.9,11.1-2.8c4.8,2.1,5.9,7.4,4.7,11.1c-1.4,4.4-9.2,16.4-11.9,32.7c-2.7,16.3-2.2,32.5,0.6,47.4
			c0.2,0.8,1,1.4,1.8,1.2c0.8-0.2,1.4-1,1.2-1.8c-2.7-14.5-3.2-30.3-0.6-46.3c2.6-16,10.4-27.9,11.8-32.2c1.6-5,0-12.1-6.4-14.9
			c-6.5-2.8-12.7,0.7-14.8,4c-1.9,2.9-6.6,13.9-9.6,21.5c-3.3,8.3-8,30.1-7.4,45C321.6,283.7,325.7,301.7,325.7,301.7L325.7,301.7z
			 M304.9,205.7c0.4-0.8,0-1.7-0.7-2s-1.7,0-2,0.7c0,0-4.6,9.7-15.5,12.7c-7.4,2.1-17.8,1-31.5-7.9c-0.7-0.5-1.7-0.3-2.1,0.4
			c-0.5,0.7-0.3,1.7,0.4,2.1c14.8,9.6,26,10.6,34,8.3C299.8,216.6,304.9,205.7,304.9,205.7L304.9,205.7z M296.7,247.4l-0.4,3
			c-2.6-2.6-5.7-5.5-7.9-7.4c6.7-1.2,12.3-4.8,15.8-7.5c-2.4,11.1-3.7,25.5-3.7,25.5c-0.1,0.8,0.5,1.6,1.4,1.7
			c0.8,0.1,1.6-0.5,1.7-1.4c0,0,1.6-18.7,4.8-29.7c0.2-0.7-0.1-1.4-0.7-1.7c-0.6-0.3-1.4-0.2-1.9,0.3c0,0-9.3,9.9-21.1,10.2
			c-0.6,0-1.2,0.4-1.4,1c-0.2,0.6,0,1.3,0.5,1.7c0,0,8.4,7.1,12.5,11.8c0.4,0.5,1,0.6,1.6,0.5c0.6-0.2,1-0.7,1.1-1.3l1.5-11.2
			c0.1-0.5-0.2-1.1-0.6-1.4c-0.4-0.3-1-0.4-1.5-0.2l-3,1.3c-0.4,0.2-0.8,0.6-0.9,1c-0.1,0.5,0,1,0.3,1.3L296.7,247.4L296.7,247.4z
			 M331.6,289.7c-0.2-0.8-1-1.3-1.8-1.1c-0.8,0.2-1.3,1-1.1,1.8c0,0,0.8,3.2,1.9,9.4c0.2,0.8,0.9,1.4,1.8,1.2
			c0.8-0.2,1.4-0.9,1.2-1.8C332.4,293,331.6,289.7,331.6,289.7L331.6,289.7z M351.2,164.2c0.8,0.1,1.6-0.5,1.7-1.3
			c0.1-0.8-0.5-1.6-1.3-1.7c0,0-10.7-1.5-23.9,4c-14.8,6.2-21.3,18.8-25.4,26.6c-1.7,3.2-3.3,7.2-5.5,10.9
			c-3.2,5.2-7.7,9.8-15.8,10.1c-13.9,0.5-23-7.7-23-7.7c-0.6-0.6-1.6-0.5-2.2,0.1c-0.6,0.6-0.5,1.6,0.1,2.2c0,0,9.9,9,25.2,8.5
			c9.4-0.3,14.6-5.5,18.3-11.5c2.3-3.8,3.9-7.8,5.6-11c3.9-7.3,9.9-19.4,23.8-25.2C341.2,162.8,351.2,164.2,351.2,164.2L351.2,164.2
			z M260.6,200.4L260.6,200.4c-0.7-0.4-1.7-0.2-2.1,0.6c-0.4,0.7-0.2,1.7,0.6,2.1c0,0,6,3.5,13,5.4c4.9,1.4,10.2,2,14.4,0.4
			c0.8-0.3,1.2-1.2,0.9-2c-0.3-0.8-1.2-1.2-2-0.9c-3.6,1.4-8.3,0.7-12.5-0.5C266.3,203.7,260.6,200.4,260.6,200.4L260.6,200.4z
			 M334.7,262.1c0-0.8-0.7-1.5-1.6-1.5c-0.8,0-1.5,0.7-1.5,1.6c0,0,0.4,19.5,3.8,34.8c0.2,0.8,1,1.3,1.8,1.2c0.8-0.2,1.3-1,1.2-1.8
			C335,281.2,334.7,262.1,334.7,262.1L334.7,262.1z M345.2,224.6c-0.3,0.8,0,1.7,0.8,2c0.8,0.3,1.7,0,2-0.8c0,0,2.1-5,3.8-8.4
			c0.9-1.9,2-4.2,2.4-6.4c0.5-2.7,0-5.2-2.5-7c-1.5-1.1-3-1.4-4.3-1.3c-2.8,0.3-5.2,2.9-6.7,6.1c-2.4,5.2-6.4,13.8-8.8,21.5
			c-2,6.2-7.6,26.7-3.9,55.6c0.1,0.8,0.9,1.4,1.7,1.3c0.8-0.1,1.4-0.9,1.3-1.7c-3.6-28.3,1.9-48.2,3.8-54.3c2.4-7.5,6.3-16,8.7-21.1
			c1.3-2.9,3.5-5.7,6.4-3.6c1.4,1,1.5,2.5,1.3,3.9c-0.3,1.9-1.4,3.9-2.2,5.6C347.3,219.5,345.2,224.6,345.2,224.6L345.2,224.6z
			 M291.5,197.9c0.4-0.8,0-1.7-0.7-2c-0.8-0.4-1.7,0-2,0.7c0,0-3.7,7.7-11.7,5c-9.1-3.1-13.1-5.2-13.1-5.2c-0.7-0.4-1.7-0.1-2.1,0.6
			c-0.4,0.7-0.1,1.7,0.6,2.1c0,0,4.2,2.3,13.6,5.4C286.6,208,291.5,197.9,291.5,197.9L291.5,197.9z M340.3,295.2
			c0.2,0.8,1,1.3,1.8,1.1c0.8-0.2,1.3-1,1.1-1.8c0,0-3.7-15.1-3-34.7c0-0.8-0.6-1.5-1.5-1.6c-0.8,0-1.5,0.6-1.6,1.5
			C336.5,279.8,340.3,295.2,340.3,295.2L340.3,295.2z M377.8,211c-0.1,0.8,0.5,1.6,1.4,1.7c0.8,0.1,1.6-0.5,1.7-1.4
			c0,0,0.9-8.3-3.7-17.3c-4.6-8.9-11.9-13.8-20.6-16.4c-8.8-2.6-18.8-0.9-26.2,4.3c-7.2,5.1-11.3,9.3-16.3,22.2
			c-4,10.2-13.5,18.8-23.6,23.3c-0.8,0.3-1.1,1.2-0.8,2c0.3,0.8,1.2,1.1,2,0.8c10.8-4.7,21-14,25.2-25c4.7-12,8.4-16,15.2-20.8
			c6.6-4.7,15.7-6.2,23.6-3.9c8,2.3,14.6,6.7,18.8,14.9C378.6,203.6,377.8,211,377.8,211L377.8,211z M267.8,192.5L267.8,192.5
			c-0.8-0.3-1.7,0-2,0.8c-0.3,0.8,0,1.7,0.8,2c0,0,5.8,2.4,10.8,3.1c2.4,0.4,4.7,0.3,6.3-0.3c2.1-0.9,3.7-2.8,4.8-5.1
			c1.5-2.9,2.4-6.6,3.7-9.3c2.1-4.3,9.1-16.7,19.8-23.7c10.7-7,29.2-15.9,51-9.7c9.7,2.8,25.2,10.3,35.1,24.3
			c9.7,13.8,9.7,22.9,9.7,22.9c0,0.8,0.7,1.5,1.5,1.5c0.8,0,1.5-0.7,1.5-1.5c0,0,0.2-9.8-10.2-24.7c-10.3-14.7-26.6-22.6-36.7-25.5
			c-22.9-6.5-42.3,2.7-53.5,10c-11.2,7.4-18.7,20.4-20.9,24.9c-1.1,2.2-1.9,5.2-3,7.8c-0.9,2.2-2,4.3-4,5.1
			c-1.6,0.7-4.1,0.3-6.6-0.2C271.7,194.2,267.8,192.5,267.8,192.5L267.8,192.5z M312.2,247.1c-0.2,0.8,0.4,1.6,1.2,1.8
			c0.8,0.2,1.6-0.4,1.8-1.2c0,0,2.3-12,4-19.5c1.7-7.5,6.8-17.5,10.4-25.4c3.4-7.5,10.6-11,10.6-11c0.8-0.4,1.1-1.3,0.7-2
			c-0.4-0.8-1.3-1.1-2-0.7c0,0-8.2,3.9-12.1,12.5c-3.7,8.1-8.8,18.4-10.6,26C314.5,235,312.2,247.1,312.2,247.1L312.2,247.1z
			 M276.8,193.5c0.8,0,1.5-0.7,1.5-1.6c0-0.8-0.7-1.5-1.6-1.5c0,0-3.1,0.1-6.7-1c-0.8-0.2-1.7,0.2-1.9,1.1c-0.2,0.8,0.2,1.7,1.1,1.9
			C273.3,193.6,276.8,193.5,276.8,193.5L276.8,193.5z M276.7,184.9c-1.4-0.3-3.6-0.5-3.6-0.5c-0.8-0.1-1.6,0.5-1.7,1.4
			c-0.1,0.8,0.5,1.6,1.4,1.7c0,0,3.1,0.3,3.8,0.6c0.4,0.2,0.9,0.2,1.4,0c0.3-0.1,0.7-0.4,1.1-1c1.2-1.6,3.3-5.9,3.3-5.9
			c0.4-0.8,0-1.7-0.7-2c-0.8-0.4-1.7,0-2,0.7c0,0-1.2,2.5-2.2,4.3C277.1,184.3,276.9,184.6,276.7,184.9L276.7,184.9z M288.5,204.3
			c-0.7,0.5-0.9,1.4-0.4,2.1c0.5,0.7,1.4,0.9,2.1,0.4c0,0,5-3.4,8-10.9c2.6-6.7,4.9-12.3,10.9-18.8c6.1-6.5,10.8-10,10.8-10
			c0.7-0.5,0.8-1.5,0.3-2.1c-0.5-0.7-1.5-0.8-2.1-0.3c0,0-4.8,3.6-11.2,10.4c-6.4,6.8-8.7,12.7-11.5,19.8
			C292.8,201.3,288.5,204.3,288.5,204.3L288.5,204.3z M354.2,286.8c0.1,0.8,0.9,1.4,1.7,1.3c0.8-0.1,1.4-0.9,1.3-1.7
			c0,0-2.6-17.6-0.8-30.3c0.1-0.8-0.5-1.6-1.3-1.7s-1.6,0.5-1.7,1.3C351.6,268.7,354.2,286.8,354.2,286.8L354.2,286.8z M349.4,209.6
			c0.4-0.7,0.2-1.7-0.5-2.1c-0.7-0.4-1.7-0.2-2.1,0.5c0,0-11.2,18.8-14.8,49c-0.1,0.8,0.5,1.6,1.3,1.7c0.8,0.1,1.6-0.5,1.7-1.3
			C338.5,228,349.4,209.6,349.4,209.6L349.4,209.6z M293.2,171.7c0.4-0.7,0.2-1.7-0.5-2.1c-0.7-0.4-1.7-0.2-2.1,0.5
			c0,0-7.1,12-10.5,19.9c-0.3,0.8,0,1.7,0.8,2c0.8,0.3,1.7,0,2-0.8C286.2,183.4,293.2,171.7,293.2,171.7L293.2,171.7z M337.7,254.5
			c-0.1,0.8,0.4,1.6,1.3,1.8c0.8,0.1,1.6-0.4,1.8-1.3c0,0,2.6-15.6,5.1-23.4c0.3-0.8-0.2-1.7-1-1.9c-0.8-0.3-1.7,0.2-1.9,1
			C340.4,238.6,337.7,254.5,337.7,254.5L337.7,254.5z M290.4,192.4c-0.3,0.8,0.2,1.7,1,1.9c0.8,0.3,1.7-0.2,1.9-1
			c0,0,2.4-6.9,9.1-16.9c7-10.5,19.6-17.1,28.4-20.3c8.8-3.2,26.1-4.2,39.8,2.3c13.8,6.4,23.7,17.1,29.9,31.5
			c6.2,14.3,3.4,33.2-2.2,44.2c-6,11.6-7.8,18.2-8,23.1c0,0.8,0.6,1.6,1.5,1.6s1.6-0.6,1.6-1.5c0.2-4.6,2-10.8,7.7-21.8
			c6-11.6,8.8-31.6,2.3-46.8c-6.5-15.1-17-26.3-31.4-33.1c-14.5-6.8-32.9-5.7-42.1-2.4c-9.3,3.4-22.5,10.4-29.9,21.5
			C292.9,185.2,290.4,192.4,290.4,192.4L290.4,192.4z M363.9,279.4c0.1,0.8,0.8,1.5,1.7,1.4c0.8-0.1,1.5-0.8,1.4-1.7
			c0,0-1.5-15.8,0.2-24.9c1.7-9.1,5.6-20.9,7.4-24.5c1.9-3.8,4.4-9.1,5.1-12c0.2-0.8-0.3-1.6-1.1-1.8c-0.8-0.2-1.6,0.3-1.8,1.1
			c-0.7,2.7-3.1,7.7-4.9,11.3c-1.9,3.8-6,15.9-7.7,25.3C362.4,263,363.9,279.4,363.9,279.4L363.9,279.4z M378.1,182.7
			c0.5,0.7,1.5,0.8,2.1,0.3c0.7-0.5,0.8-1.5,0.3-2.1c0,0-7.5-9.9-22.9-13.5c-15.3-3.6-27.1,0.4-36,7.5c-8.8,7-13.9,17.1-17.2,25.5
			c-0.3,0.8,0.1,1.7,0.9,2c0.8,0.3,1.7-0.1,2-0.9c3.1-8,7.9-17.6,16.2-24.2c8.3-6.6,19.2-10.2,33.4-6.9
			C371,173.7,378.1,182.7,378.1,182.7L378.1,182.7z M368.7,275.8c0,0.8,0.7,1.5,1.6,1.5c0.8,0,1.5-0.7,1.5-1.6
			c0,0-0.5-13.8,0.6-20.8c1.1-7,4.3-17.3,7.3-23.6c3.2-6.6,6.6-12.7,6.6-21.6c-0.1-8.9-2.2-15.1-6.7-21.7
			c-4.5-6.6-12.7-13.8-24.7-15.8c-0.8-0.1-1.6,0.4-1.8,1.2c-0.1,0.8,0.4,1.6,1.2,1.8c11,1.9,18.5,8.4,22.6,14.5
			c4.1,6.1,6.1,11.8,6.2,20.1c0,8.3-3.3,14.1-6.3,20.3c-3.1,6.5-6.5,17.3-7.6,24.5C368.2,261.6,368.7,275.8,368.7,275.8L368.7,275.8
			z M354.1,250.3c-0.1,0.8,0.4,1.6,1.2,1.8c0.8,0.1,1.6-0.4,1.8-1.2c0,0,2.4-13.7,7-23.6c4.9-10.6,10.3-19.1,1.9-30.5
			c-8.6-11.7-21.2-9.2-21.2-9.2c-0.8,0.2-1.4,1-1.2,1.8c0.2,0.8,1,1.4,1.8,1.2c0,0,10.7-2,18.1,8c7.6,10.3,2.2,17.8-2.2,27.4
			C356.6,236.2,354.1,250.3,354.1,250.3L354.1,250.3z M373.5,271.6c0,0.8,0.7,1.5,1.5,1.5c0.8,0,1.5-0.7,1.5-1.5
			c0,0-0.2-12.8,1.8-20.5c2-7.7,6-18.1,9.4-24.3c3.6-6.5,7.6-26.5-3.8-41.5c-0.5-0.7-1.5-0.8-2.1-0.3c-0.7,0.5-0.8,1.5-0.3,2.1
			c10.5,13.8,6.9,32.2,3.6,38.2c-3.5,6.4-7.6,17.1-9.7,25C373.4,258.3,373.5,271.6,373.5,271.6L373.5,271.6z M378.7,266.9
			c0,0.8,0.7,1.5,1.5,1.5c0.8,0,1.5-0.7,1.5-1.5c0,0,0-11.8,3.8-22.5c4-11,9.9-20,10.6-32.9c0.7-12.8-3.4-28.9-19-40.8
			c-10.3-7.9-20-8.9-20-8.9c-0.8-0.1-1.6,0.5-1.7,1.4c-0.1,0.8,0.5,1.6,1.4,1.7c0,0,9,1,18.5,8.3c14.6,11.2,18.5,26.2,17.8,38.2
			c-0.7,12.5-6.5,21.3-10.4,32C378.7,254.5,378.7,266.9,378.7,266.9L378.7,266.9z M384.2,261.7c-0.1,0.8,0.5,1.6,1.3,1.7
			c0.8,0.1,1.6-0.5,1.7-1.3c0,0,1.3-10.2,3.5-16.6c0.3-0.8-0.2-1.7-1-1.9c-0.8-0.3-1.7,0.2-1.9,1
			C385.6,251.2,384.2,261.7,384.2,261.7L384.2,261.7z M336.7,160.2c0.8-0.2,1.3-1,1.1-1.8s-1-1.3-1.8-1.1c0,0-7,1.6-14.1,5
			c-0.8,0.4-1.1,1.3-0.7,2c0.4,0.8,1.3,1.1,2,0.7C330,161.7,336.7,160.2,336.7,160.2L336.7,160.2z M390.1,238.7
			c-0.4,0.8-0.1,1.7,0.7,2c0.8,0.4,1.7,0.1,2-0.7c0,0,4-8.1,5.9-13.6c1.9-5.6,4.6-18.9,0.6-32.4c-3.9-13.4-10.9-22.2-22.5-30
			c-10.8-7.3-25.7-9.9-36.9-7.6c-0.8,0.2-1.4,1-1.2,1.8c0.2,0.8,1,1.4,1.8,1.2c10.5-2.1,24.5,0.4,34.6,7.2
			c11,7.4,17.6,15.7,21.3,28.4c3.7,12.7,1.2,25.2-0.6,30.5C394,230.9,390.1,238.7,390.1,238.7L390.1,238.7z M411.5,201.9
			c-0.1-0.8-0.9-1.4-1.7-1.3c-0.8,0.1-1.4,0.9-1.3,1.7c0,0,1.7,11.9-1.5,23.2c-2.7,9.6-6.7,15.6-8.4,20.4c-0.3,0.8,0.1,1.7,0.9,2
			c0.8,0.3,1.7-0.1,2-0.9c1.7-4.8,5.8-10.9,8.5-20.6C413.3,214.5,411.5,201.9,411.5,201.9L411.5,201.9z M363.4,144.5
			c0.8,0.2,1.6-0.4,1.8-1.2c0.2-0.8-0.4-1.6-1.2-1.8c0,0-5-1.1-11.3-1.3c-0.8,0-1.5,0.6-1.6,1.5c0,0.8,0.6,1.5,1.5,1.6
			C358.6,143.5,363.4,144.5,363.4,144.5L363.4,144.5z M413.9,217.9c-0.1,0.8,0.5,1.6,1.3,1.7c0.8,0.1,1.6-0.5,1.7-1.3
			c0,0,3.2-24.2-9.7-45c-14.3-23-38.1-29.9-38.1-29.9c-0.8-0.2-1.7,0.2-1.9,1c-0.2,0.8,0.2,1.7,1,1.9c0,0,22.7,6.7,36.4,28.6
			C417,194.8,413.9,217.9,413.9,217.9L413.9,217.9z M416.7,189.7c0.2,0.8,1,1.3,1.8,1.2c0.8-0.2,1.3-1,1.2-1.8
			c0,0-6.5-29.8-36.8-45.1c-0.8-0.4-1.7-0.1-2,0.7c-0.4,0.8-0.1,1.7,0.7,2C410.5,161.3,416.7,189.7,416.7,189.7L416.7,189.7z"/>
	</g>
	<g>
		<g>
			<path fill="#FFFFFF" d="M427.1,204.1v1c0,2,0.5,3.4,1.6,4.3c1.1,0.9,2.8,1.3,5.1,1.3h32.2c2.5,0,4.7,0.2,6.8,0.7
				c2,0.5,3.8,1.2,5.2,2.3c1.4,1.1,2.5,2.5,3.3,4.2c0.8,1.7,1.1,3.8,1.1,6.3v4.5c0,2.5-0.4,4.6-1.1,6.3c-0.8,1.7-1.9,3.1-3.3,4.2
				c-1.4,1.1-3.1,1.8-5.2,2.3c-2,0.5-4.3,0.7-6.8,0.7h-46.6c-1.7,0-2.5-0.8-2.5-2.5v-4.7c0-1.6,0.8-2.4,2.5-2.4h45.1
				c2.3,0,4-0.4,5.1-1.3c1.1-0.9,1.6-2.3,1.6-4.3v-1c0-2-0.5-3.4-1.6-4.3c-1.1-0.9-2.8-1.3-5.1-1.3h-32.2c-2.5,0-4.8-0.2-6.8-0.7
				c-2-0.5-3.7-1.2-5.1-2.3c-1.4-1.1-2.5-2.5-3.3-4.2c-0.8-1.7-1.1-3.8-1.1-6.3v-4.5c0-2.5,0.4-4.6,1.1-6.3c0.8-1.7,1.9-3.1,3.3-4.2
				c1.4-1.1,3.1-1.8,5.1-2.3c2-0.5,4.3-0.7,6.8-0.7h45.9c1.7,0,2.5,0.8,2.5,2.5v4.7c0,1.6-0.8,2.4-2.5,2.4h-44.4
				C429.4,198.5,427.1,200.4,427.1,204.1z"/>
			<path fill="#FFFFFF" d="M528.6,216.5c0-1.6-0.5-2.9-1.4-3.8c-0.9-0.9-2.2-1.4-3.8-1.4h-31.3c-1.4,0-2.1-0.7-2.1-2.2v-4.3
				c0-1.5,0.7-2.2,2.1-2.2h34.5c3.6,0,6.5,1.1,8.7,3.3c2.2,2.2,3.3,5.1,3.3,8.7v16.5c0,3.6-1,6.4-2.9,8.3c-1.9,1.9-4.7,2.9-8.3,2.9
				h-28.3c-3.6,0-6.2-0.9-8.1-2.8c-1.8-1.9-2.7-4.5-2.7-8v-2c0-7.2,3.6-10.8,10.8-10.8h29.6V216.5z M524.8,233.4
				c2.5,0,3.8-1.3,3.8-3.8v-3.4h-27c-1.3,0-2.2,0.3-2.7,0.9c-0.5,0.6-0.8,1.4-0.8,2.6v0.4c0,1.2,0.3,2,0.8,2.6
				c0.5,0.6,1.4,0.8,2.7,0.8H524.8z"/>
			<path fill="#FFFFFF" d="M557.8,232.5c0.5,0.6,1.3,0.8,2.5,0.8h0.8c1.5,0,2.2,0.7,2.2,2.2v4.3c0,1.5-0.7,2.2-2.2,2.2h-3.2
				c-3.5,0-6.2-0.9-8-2.8c-1.9-1.9-2.8-4.5-2.8-8v-43.2c0-1.5,0.7-2.2,2.2-2.2h5.6c1.5,0,2.2,0.7,2.2,2.2V230
				C557,231.1,557.3,232,557.8,232.5z"/>
			<path fill="#FFFFFF" d="M604.4,235.6v4.3c0,1.5-0.7,2.2-2.2,2.2h-18.2c-3.6,0-6.5-1.1-8.7-3.3c-2.2-2.2-3.3-5.1-3.3-8.7v-18.9
				h-4.1c-1.4,0-2.1-0.7-2.1-2.2v-4.3c0-1.5,0.7-2.2,2.1-2.2h4.1v-7.3c0-1.5,0.7-2.2,2.2-2.2h5.5c1.5,0,2.2,0.7,2.2,2.2v7.3h19.9
				c1.5,0,2.2,0.7,2.2,2.2v4.3c0,1.5-0.7,2.2-2.2,2.2h-19.9v16.8c0,1.6,0.5,2.9,1.4,3.8c0.9,0.9,2.2,1.4,3.8,1.4h15
				C603.6,233.4,604.4,234.1,604.4,235.6z"/>
			<path fill="#FFFFFF" d="M650.9,202.5c3.6,0,6.3,0.9,8.1,2.8c1.9,1.9,2.8,4.5,2.8,8v2c0,3.6-0.9,6.2-2.8,8.1
				c-1.9,1.8-4.6,2.7-8.1,2.7h-29.5v2c0,1.6,0.5,2.9,1.4,3.8c0.9,0.9,2.2,1.4,3.8,1.4h31.4c1.5,0,2.2,0.7,2.2,2.2v4.3
				c0,1.5-0.7,2.2-2.2,2.2h-34.6c-3.6,0-6.5-1.1-8.7-3.3c-2.2-2.2-3.3-5.1-3.3-8.7v-15.7c0-3.6,1.1-6.5,3.3-8.7
				c2.2-2.2,5.1-3.3,8.7-3.3H650.9z M621.4,218.5h27c1.3,0,2.2-0.3,2.7-0.9c0.5-0.6,0.8-1.4,0.8-2.6v-0.4c0-1.2-0.3-2-0.8-2.6
				c-0.5-0.6-1.4-0.8-2.7-0.8h-21.7c-1.6,0-2.9,0.5-3.8,1.4c-0.9,0.9-1.4,2.2-1.4,3.8V218.5z"/>
			<path fill="#FFFFFF" d="M700.2,202.5c2.3,0,4.2,0.4,5.8,1.1c1.5,0.8,2.8,1.8,3.8,3.1v-18.7c0-1.5,0.7-2.2,2.2-2.2h5.6
				c1.5,0,2.2,0.7,2.2,2.2v42.1c0,3.6-1.1,6.5-3.3,8.7c-2.2,2.2-5.1,3.3-8.7,3.3h-26.9c-3.6,0-6.5-1.1-8.7-3.3
				c-2.2-2.2-3.3-5.1-3.3-8.7v-15.7c0-3.6,1.1-6.5,3.3-8.7c2.2-2.2,5.1-3.3,8.7-3.3H700.2z M709.7,216.5c0-1.6-0.5-2.9-1.4-3.8
				c-0.9-0.9-2.2-1.4-3.8-1.4H684c-1.6,0-2.9,0.5-3.8,1.4c-0.9,0.9-1.4,2.2-1.4,3.8v11.6c0,1.6,0.5,2.9,1.4,3.8
				c0.9,0.9,2.2,1.4,3.8,1.4h20.5c1.6,0,2.9-0.5,3.8-1.4c0.9-0.9,1.4-2.2,1.4-3.8V216.5z"/>
			<path fill="#FFFFFF" d="M731.3,188.8h6c1.7,0,2.5,0.8,2.5,2.5v19.3H784v-19.3c0-1.7,0.8-2.5,2.5-2.5h6c1.7,0,2.5,0.8,2.5,2.5
				v48.3c0,1.7-0.8,2.5-2.5,2.5h-6c-1.7,0-2.5-0.8-2.5-2.5v-19.3h-44.2v19.3c0,1.7-0.8,2.5-2.5,2.5h-6c-1.7,0-2.5-0.8-2.5-2.5v-48.3
				C728.8,189.6,729.6,188.8,731.3,188.8z"/>
			<path fill="#FFFFFF" d="M843,216.5c0-1.6-0.5-2.9-1.4-3.8c-0.9-0.9-2.2-1.4-3.8-1.4h-31.3c-1.4,0-2.1-0.7-2.1-2.2v-4.3
				c0-1.5,0.7-2.2,2.1-2.2h34.5c3.6,0,6.5,1.1,8.7,3.3c2.2,2.2,3.3,5.1,3.3,8.7v16.5c0,3.6-1,6.4-2.9,8.3c-1.9,1.9-4.7,2.9-8.3,2.9
				h-28.3c-3.6,0-6.2-0.9-8.1-2.8c-1.8-1.9-2.7-4.5-2.7-8v-2c0-7.2,3.6-10.8,10.8-10.8H843V216.5z M839.2,233.4
				c2.5,0,3.8-1.3,3.8-3.8v-3.4h-27c-1.3,0-2.2,0.3-2.7,0.9c-0.5,0.6-0.8,1.4-0.8,2.6v0.4c0,1.2,0.3,2,0.8,2.6
				c0.5,0.6,1.4,0.8,2.7,0.8H839.2z"/>
			<path fill="#FFFFFF" d="M862.9,242.1c-1.5,0-2.2-0.7-2.2-2.2v-4.3c0-1.5,0.7-2.2,2.2-2.2h33.4c1.3,0,2.2-0.3,2.7-0.8
				c0.5-0.6,0.8-1.4,0.8-2.6v-0.4c0-1.1-0.3-2-0.8-2.6c-0.5-0.6-1.4-0.9-2.7-0.9h-25.5c-7.2,0-10.8-3.6-10.8-10.8v-2
				c0-3.5,0.9-6.2,2.7-8c1.8-1.9,4.5-2.8,8.1-2.8h35.2c1.5,0,2.2,0.7,2.2,2.2v4.3c0,1.5-0.7,2.2-2.2,2.2h-32.6
				c-1.3,0-2.2,0.3-2.7,0.8c-0.5,0.6-0.8,1.4-0.8,2.6v0.4c0,1.1,0.3,2,0.8,2.6c0.5,0.6,1.4,0.9,2.7,0.9h25.4c3.6,0,6.3,0.9,8.1,2.7
				c1.9,1.8,2.8,4.5,2.8,8.1v2c0,3.5-0.9,6.2-2.8,8c-1.9,1.9-4.6,2.8-8.1,2.8H862.9z"/>
			<path fill="#FFFFFF" d="M963.7,205.8c2.2,2.2,3.3,5.1,3.3,8.7v25.4c0,1.5-0.7,2.2-2.1,2.2h-5.6c-1.5,0-2.2-0.7-2.2-2.2v-23.4
				c0-1.6-0.5-2.9-1.4-3.8c-0.9-0.9-2.2-1.4-3.8-1.4h-19.4c-1.6,0-2.9,0.5-3.8,1.4c-0.9,0.9-1.4,2.2-1.4,3.8v23.4
				c0,1.5-0.7,2.2-2.1,2.2h-5.6c-1.5,0-2.2-0.7-2.2-2.2v-51.8c0-1.5,0.7-2.2,2.2-2.2h5.6c1.4,0,2.1,0.7,2.1,2.2v18.7
				c0.9-1.3,2.2-2.4,3.7-3.2c1.6-0.8,3.5-1.2,5.8-1.2H955C958.6,202.5,961.5,203.6,963.7,205.8z"/>
		</g>
		<g>
			<path fill="#FFFFFF" d="M982,179.4v3.3h-5.5v15.4h-3.3v-15.4h-5.5v-3.3H982z"/>
			<path fill="#FFFFFF" d="M993.6,183.4c3.5,0,4.9,1.7,4.9,4.5c0,2.7-1.4,4.2-5,4.2h-7v1.1c0,1.2,0.6,2,2.2,2h9v2.9h-9
				c-3.7,0-5.1-2.1-5.1-4.8v-5c0-2.8,1.4-4.8,5.1-4.8H993.6z M986.6,189.8h6.9c1.6,0,2.2-0.7,2.2-1.7c0-1.1-0.6-1.8-2.1-1.8h-4.7
				c-1.6,0-2.2,0.9-2.2,2V189.8z"/>
			<path fill="#FFFFFF" d="M1015.3,183.4v2.8h-7.3c-2.5,0-3.7,1.3-3.7,4.5s1.1,4.5,3.7,4.5h7.3v2.9h-7.5c-3.9,0-6.3-2.4-6.3-7.3
				c0-4.9,2.4-7.3,6.3-7.3H1015.3z"/>
			<path fill="#FFFFFF" d="M1021.8,177.1v6.3h5.2c4.9,0,7.4,2.4,7.4,6.4v8.2h-3v-8.2c0-2.2-1.4-3.6-4.4-3.6h-5.2v11.8h-2.9v-21
				H1021.8z"/>
		</g>
	</g>
	
		<text transform="matrix(1 0 0 1 416.8652 280.3142)" fill="#FFFFFF" font-family="'NasalizationRg-Regular'" font-size="28.3252" letter-spacing="4">Securing Your Tomorrow</text>
</g>
</svg>
