<?xml version="1.0" encoding="utf-8"?>
<!-- Generator: Adobe Illustrator 18.0.0, SVG Export Plug-In . SVG Version: 6.00 Build 0)  -->
<!DOCTYPE svg PUBLIC "-//W3C//DTD SVG 1.1//EN" "http://www.w3.org/Graphics/SVG/1.1/DTD/svg11.dtd">
<svg version="1.1" id="Layer_1" xmlns="http://www.w3.org/2000/svg" xmlns:xlink="http://www.w3.org/1999/xlink" x="0px" y="0px"
	 viewBox="0 0 1300 457" enable-background="new 0 0 1300 457" xml:space="preserve">
<g>
	<g>
		<defs>
			<path id="SVGID_51_" d="M292.5,155.1l-66.9,33.7V208l36.4,20.7l32.6-13.8l-24.8-15.6l20.7-10.9l64.9,35.7v-32.2L292.5,155.1z
				 M286.3,242.1l24.8,15.6l-20.7,10.9l-64.9-35.7v32.2l62.9,36.7l66.9-33.7V249L319,228.3L286.3,242.1z"/>
		</defs>
		<clipPath id="SVGID_1_">
			<use xlink:href="#SVGID_51_"  overflow="visible"/>
		</clipPath>
		<path clip-path="url(#SVGID_1_)" fill-rule="evenodd" clip-rule="evenodd" fill="#1A43BF" d="M213.2,293.9
			c-0.3,0.9,0.3,1.8,1.1,2.1c0.9,0.3,1.8-0.3,2.1-1.1c0,0,0.9-3.2-1.2-5.6c-2.4-2.8-5.9-2.4-5.9-2.4c-0.9,0.1-1.6,0.9-1.5,1.9
			c0.1,0.9,0.9,1.6,1.9,1.5c0,0,1.8-0.2,3,1.2C213.6,292.4,213.2,293.9,213.2,293.9L213.2,293.9z M219.9,302.1
			c-0.1,0.9,0.5,1.8,1.4,1.9c0.9,0.1,1.8-0.5,1.9-1.4c0,0,1.7-10.7-4.1-17.3c-5-5.7-15.2-6.4-15.2-6.4c-0.9-0.1-1.7,0.6-1.8,1.6
			c-0.1,0.9,0.6,1.7,1.6,1.8c0,0,8.7,0.5,12.9,5.3C221.5,293.1,219.9,302.1,219.9,302.1L219.9,302.1z M226.3,306.1
			c0.1,0.9,1,1.6,1.9,1.5c0.9-0.1,1.6-1,1.5-1.9c0,0-0.9-7-1.2-8.8c-0.2-0.9-1.1-1.5-2-1.3s-1.5,1.1-1.3,2
			C225.4,299.3,226.3,306.1,226.3,306.1L226.3,306.1z M224.4,290.2c0.1,0.9,0.9,1.6,1.9,1.5c0.9-0.1,1.6-0.9,1.5-1.9
			c0,0-0.9-8.6-9.6-12.3c-7.8-3.3-15.7-5.8-15.7-5.8c-0.9-0.3-1.8,0.2-2.1,1.1c-0.3,0.9,0.2,1.8,1.1,2.1c0,0,7.8,2.5,15.4,5.7
			C223.6,283.5,224.4,290.2,224.4,290.2L224.4,290.2z M232.6,308.8c0.1,0.9,0.9,1.6,1.9,1.5c0.9-0.1,1.6-0.9,1.5-1.9
			c0,0-1.2-10.6-2.2-16.5c-1.1-6.3-2.6-15.7-13-19.8c-9.7-3.8-20.5-7.4-20.5-7.4c-0.9-0.3-1.8,0.2-2.1,1.1c-0.3,0.9,0.2,1.8,1.1,2.1
			c0,0,10.8,3.5,20.3,7.3c8.9,3.5,10,11.7,10.9,17.2C231.4,298.3,232.6,308.8,232.6,308.8L232.6,308.8z M239.2,311.6
			c0.1,0.9,1,1.5,1.9,1.4c0.9-0.1,1.5-1,1.4-1.9c0,0-2.2-13.7-3.3-20.2c-1.2-6.9-2-15.9-13.4-22.3c-10.8-6.1-20.2-7.3-26.5-10.5
			c-0.8-0.4-1.8-0.1-2.3,0.7c-0.4,0.8-0.1,1.8,0.7,2.3c6.3,3.2,15.7,4.3,26.4,10.4c10.1,5.7,10.7,13.8,11.8,20
			C237.1,297.9,239.2,311.6,239.2,311.6L239.2,311.6z M210.9,259.8c0.9,0.3,1.8-0.1,2.2-1c0.3-0.9-0.1-1.8-1-2.2
			c0,0-8.7-3.2-13.1-5.3c-0.8-0.4-1.8,0-2.2,0.8c-0.4,0.8,0,1.8,0.8,2.2C202,256.5,210.9,259.8,210.9,259.8L210.9,259.8z
			 M233.3,266.7c-0.8-0.5-1.8-0.2-2.3,0.5c-0.5,0.8-0.2,1.8,0.5,2.3c0,0,7.9,5,10.1,18.3c2.3,14.2,2.9,21.4,4,25.7
			c0.2,0.9,1.1,1.4,2,1.2c0.9-0.2,1.4-1.1,1.2-2c-1.1-4.2-1.6-11.3-3.9-25.4C242.5,272.3,233.3,266.7,233.3,266.7L233.3,266.7z
			 M251.3,314.1c0.2,0.9,1.1,1.5,2,1.3c0.9-0.2,1.5-1.1,1.3-2c0,0-3-15.8-3.7-22c-0.8-6.5-2.6-20-15.6-30.7
			c-7.4-6.1-14.5-6.9-22.5-9.7c-8.2-2.9-13.3-5.6-13.3-5.6c-0.8-0.4-1.8-0.1-2.3,0.7c-0.4,0.8-0.1,1.8,0.7,2.3c0,0,5.3,2.8,13.7,5.8
			c7.6,2.7,14.4,3.4,21.5,9.2c12.1,9.9,13.7,22.5,14.4,28.5C248.3,298.2,251.3,314.1,251.3,314.1L251.3,314.1z M257.6,315.1
			c0.2,0.9,1.1,1.5,2,1.3c0.9-0.2,1.5-1.1,1.3-2c0,0-3.4-18.1-4.5-26.7c-1.1-9-5.6-25.8-20.1-33.2c-14.7-7.5-28.4-11.3-36-15
			c-0.8-0.4-1.8-0.1-2.3,0.8c-0.4,0.8-0.1,1.8,0.8,2.3c7.6,3.7,21.3,7.5,35.9,15c13.3,6.8,17.3,22.4,18.3,30.6
			C254.2,296.8,257.6,315.1,257.6,315.1L257.6,315.1z M216.3,258.2c-0.9-0.3-1.8,0.2-2.1,1.1c-0.3,0.9,0.2,1.8,1.1,2.1
			c0,0,6.6,2.1,11.4,4.8c0.8,0.4,1.8,0.1,2.3-0.7c0.4-0.8,0.1-1.8-0.7-2.3C223.2,260.4,216.3,258.2,216.3,258.2L216.3,258.2z
			 M259.1,290.2c0.1,0.9,0.9,1.6,1.8,1.6c0.9-0.1,1.6-0.9,1.6-1.8c0,0-1.1-14.4-6.8-23.4c-5.7-9-12.6-16.5-25.7-21.5
			c-12.6-4.8-22.4-8.2-28.3-11.5c-0.8-0.5-1.8-0.2-2.3,0.6c-0.5,0.8-0.2,1.8,0.6,2.3c6,3.4,15.9,6.9,28.8,11.7
			c12.3,4.7,18.8,11.7,24.1,20.1C258.2,276.7,259.1,290.2,259.1,290.2L259.1,290.2z M263.8,315.5c0.2,0.9,1.1,1.5,2,1.3
			c0.9-0.2,1.5-1.1,1.3-2c0,0-2.7-12.4-3.8-18.8c-0.2-0.9-1-1.5-2-1.4c-0.9,0.2-1.5,1-1.4,2C261.1,303,263.8,315.5,263.8,315.5
			L263.8,315.5z M269.1,314.8c0.2,0.9,1,1.5,1.9,1.4c0.9-0.2,1.5-1,1.4-1.9c0,0-3.9-22.8-4.5-29c-0.5-6.4-5.1-23.9-22.1-37.6
			c-10.3-8.3-27.7-13.3-27.7-13.3c-0.9-0.3-1.8,0.3-2.1,1.2c-0.3,0.9,0.3,1.8,1.2,2.1c0,0,16.6,4.7,26.5,12.7
			c16,12.9,20.4,29.3,20.9,35.2C265.2,291.8,269.1,314.8,269.1,314.8L269.1,314.8z M210.9,235.2c0.8,0.4,1.8,0,2.2-0.8
			c0.4-0.8,0-1.8-0.8-2.2c0,0-6-2.8-9.1-4.3c-0.8-0.4-1.8,0-2.2,0.8c-0.4,0.8,0,1.8,0.8,2.2C204.8,232.4,210.9,235.2,210.9,235.2
			L210.9,235.2z M205.7,222.5c-0.8-0.4-1.8,0-2.2,0.8c-0.4,0.8,0,1.8,0.8,2.2c0,0,18.8,8.7,29,11.4c10.6,2.7,20.9,2.1,30.8-4.8
			c10.5-7.3,18.8-17.2,22.9-26.5c3.9-8.8,6.5-16.1,15.9-21.5c9.3-5.2,22-5.4,31.8,3.2c9.7,8.6,11,20.9,7.2,29.6
			c-5.8,13.2-8.5,17.6-11.7,30.7c-3,12.5-3.3,24.3-1.5,40.6c0.1,0.9,0.9,1.6,1.9,1.5c0.9-0.1,1.6-0.9,1.5-1.9
			c-1.8-15.8-1.5-27.3,1.4-39.4c3.1-12.9,5.9-17.2,11.5-30.2c4.3-9.8,3-23.7-8-33.4c-11-9.7-25.3-9.4-35.7-3.6
			c-10.2,5.7-13.2,13.6-17.4,23c-3.9,8.9-11.9,18.3-21.8,25.1c-9,6.2-18.4,6.8-28,4.3C224.1,231.1,205.7,222.5,205.7,222.5
			L205.7,222.5z M275.2,313.3c0.2,0.9,1.1,1.5,2,1.2c0.9-0.2,1.5-1.1,1.2-2c0,0-4.6-18.9-5.4-30.9c-1-13.8,1.1-27.4,2.6-38.5
			c0.9-7,3.5-15.9,3.5-15.9c0.3-0.9-0.3-1.8-1.1-2.1c-0.9-0.3-1.8,0.3-2.1,1.1c0,0-2.7,9.2-3.6,16.4c-1.5,11.2-3.6,25.1-2.6,39.1
			C270.5,294,275.2,313.3,275.2,313.3L275.2,313.3z M248.1,232c0.9-0.2,1.5-1.1,1.3-2c-0.2-0.9-1.1-1.5-2-1.3c0,0-7.9,1.6-16.8-1.9
			c-9.4-3.7-22.9-9.3-22.9-9.3c-0.9-0.4-1.8,0.1-2.2,0.9c-0.4,0.9,0.1,1.8,0.9,2.2c0,0,13.6,5.6,23,9.3
			C239.3,233.8,248.1,232,248.1,232L248.1,232z M280.8,312.3c0.2,0.9,1.1,1.5,2,1.3c0.9-0.2,1.5-1.1,1.3-2c0,0-4.9-20.9-5.1-34.5
			c-0.2-13.5,0.8-19.7,0.8-19.7c0.1-0.9-0.5-1.8-1.4-1.9c-0.9-0.1-1.8,0.5-1.9,1.4c0,0-1,6.3-0.8,20.3
			C275.8,291,280.8,312.3,280.8,312.3L280.8,312.3z M286.4,311.4c0.2,0.9,1.1,1.4,2,1.2c0.9-0.2,1.4-1.1,1.2-2
			c0,0-5.5-21.7-5.3-48.9c0.2-16.3,10.3-45.9,17.1-58.9c2.6-4.9,5.7-7.8,8.9-9.3c4.7-2.2,9.5-1.5,12.8,0.2c3.3,1.7,7,4.9,8.2,10
			c0.8,3.5,0.4,7.7-1.9,12.8c-6.5,14-10.1,18.6-12.8,40.2c-2.6,21.6,1.3,39.8,1.3,39.8c0.2,0.9,1.1,1.5,2,1.3c0.9-0.2,1.5-1.1,1.3-2
			c0,0-3.8-17.7-1.3-38.7c2.6-21.1,6.2-25.5,12.5-39.2c2.8-6,3.1-11,2.2-15c-1.4-6.2-5.9-10.2-10-12.2c-4.1-2-10-3-15.8-0.2
			c-3.7,1.8-7.4,5.1-10.4,10.8c-7,13.4-17.3,43.7-17.5,60.4C280.7,289.3,286.4,311.4,286.4,311.4L286.4,311.4z M318.1,169
			c0.9,0.2,1.8-0.4,2-1.3c0.2-0.9-0.4-1.8-1.3-2c0,0-7.2-1.6-18.1,2.8c-10.7,4.4-18.2,10.8-24.8,25.3c-6.1,13.5-11.3,22.2-24.4,27.7
			c-10.5,4.4-21.2,0.7-41.3-9.6c-0.8-0.4-1.8-0.1-2.3,0.7c-0.4,0.8-0.1,1.8,0.7,2.3c21.5,11,33,14.4,44.2,9.7
			c13.9-5.8,19.6-15,26.1-29.4c6.1-13.5,13-19.5,23-23.6C311.7,167.7,318.1,169,318.1,169L318.1,169z M291.8,309.4
			c0.2,0.9,1.1,1.5,2,1.3c0.9-0.2,1.5-1.1,1.3-2c0,0-4.4-19.6-5-35.6c-0.6-15.9,4.4-39.3,7.9-48.3c3.3-8.1,8.3-20,10.3-23.1
			c1.8-2.7,6.9-5.4,12.2-3.1c5.3,2.3,6.5,8.2,5.2,12.3c-1.5,4.9-10.2,18.1-13.1,36.1c-3,18-2.4,35.9,0.6,52.3c0.2,0.9,1.1,1.5,2,1.3
			c0.9-0.2,1.5-1.1,1.3-2c-3-16-3.5-33.5-0.6-51.1c2.9-17.7,11.5-30.8,13-35.6c1.7-5.5,0-13.4-7.1-16.4c-7.1-3-14,0.7-16.4,4.4
			c-2.1,3.2-7.3,15.4-10.6,23.7c-3.7,9.2-8.8,33.3-8.2,49.7C287.3,289.5,291.8,309.4,291.8,309.4L291.8,309.4z M268.9,203.3
			c0.4-0.8,0-1.8-0.8-2.2c-0.8-0.4-1.8,0-2.2,0.8c0,0-5,10.7-17.1,14.1c-8.2,2.3-19.6,1.1-34.8-8.8c-0.8-0.5-1.8-0.3-2.3,0.5
			c-0.5,0.8-0.3,1.8,0.5,2.3c16.4,10.6,28.7,11.7,37.6,9.2C263.3,215.4,268.9,203.3,268.9,203.3L268.9,203.3z M259.8,249.4l-0.4,3.3
			c-2.9-2.9-6.3-6.1-8.8-8.2c7.3-1.3,13.6-5.3,17.5-8.3c-2.7,12.3-4.1,28.1-4.1,28.1c-0.1,0.9,0.6,1.7,1.5,1.8
			c0.9,0.1,1.7-0.6,1.8-1.5c0,0,1.8-20.6,5.3-32.8c0.2-0.7-0.1-1.5-0.8-1.9c-0.7-0.4-1.5-0.3-2.1,0.3c0,0-10.3,11-23.3,11.3
			c-0.7,0-1.3,0.5-1.5,1.1c-0.2,0.7,0,1.4,0.5,1.8c0,0,9.3,7.8,13.8,13.1c0.4,0.5,1.1,0.7,1.8,0.5s1.1-0.7,1.2-1.4l1.6-12.4
			c0.1-0.6-0.2-1.2-0.6-1.6c-0.5-0.4-1.1-0.4-1.7-0.2l-3.4,1.4c-0.5,0.2-0.9,0.6-1,1.1c-0.1,0.5,0,1.1,0.3,1.5L259.8,249.4
			L259.8,249.4z M298.4,296.1c-0.2-0.9-1.1-1.5-2-1.2c-0.9,0.2-1.5,1.1-1.2,2c0,0,0.9,3.6,2.1,10.4c0.2,0.9,1,1.5,2,1.4s1.5-1,1.4-2
			C299.2,299.7,298.4,296.1,298.4,296.1L298.4,296.1z M320,157.5c0.9,0.1,1.8-0.5,1.9-1.4c0.1-0.9-0.5-1.8-1.4-1.9
			c0,0-11.8-1.7-26.4,4.4c-16.4,6.8-23.5,20.8-28,29.4c-1.8,3.5-3.6,7.9-6.1,12c-3.5,5.7-8.5,10.8-17.5,11.1
			c-15.4,0.5-25.4-8.5-25.4-8.5c-0.7-0.6-1.8-0.6-2.4,0.1c-0.6,0.7-0.6,1.8,0.1,2.4c0,0,11,10,27.8,9.4c10.3-0.4,16.2-6.1,20.2-12.7
			c2.5-4.2,4.4-8.6,6.2-12.2c4.3-8.1,10.9-21.4,26.3-27.8C309,156,320,157.5,320,157.5L320,157.5z M219.9,197.5L219.9,197.5
			c-0.8-0.5-1.8-0.2-2.3,0.6c-0.5,0.8-0.2,1.8,0.6,2.3c0,0,6.7,3.8,14.4,6c5.4,1.5,11.2,2.2,15.9,0.4c0.9-0.3,1.3-1.3,1-2.2
			c-0.3-0.9-1.3-1.3-2.2-1c-4,1.5-9.1,0.8-13.8-0.5C226.2,201.1,219.9,197.5,219.9,197.5L219.9,197.5z M301.7,265.6
			c0-0.9-0.8-1.7-1.7-1.7c-0.9,0-1.7,0.8-1.7,1.7c0,0,0.4,21.5,4.2,38.4c0.2,0.9,1.1,1.5,2,1.3c0.9-0.2,1.5-1.1,1.3-2
			C302.1,286.7,301.7,265.6,301.7,265.6L301.7,265.6z M313.4,224.2c-0.4,0.9,0.1,1.8,0.9,2.2s1.8-0.1,2.2-0.9c0,0,2.3-5.5,4.2-9.3
			c1-2,2.3-4.6,2.7-7.1c0.5-2.9,0-5.7-2.8-7.7c-1.7-1.2-3.3-1.6-4.7-1.4c-3.1,0.3-5.8,3.3-7.4,6.7c-2.6,5.7-7,15.3-9.7,23.7
			c-2.2,6.9-8.4,29.5-4.3,61.4c0.1,0.9,1,1.6,1.9,1.5c0.9-0.1,1.6-1,1.5-1.9c-3.9-31.2,2-53.3,4.2-60c2.7-8.3,7-17.7,9.6-23.3
			c1.5-3.2,3.8-6.3,7.1-4c1.5,1.1,1.7,2.7,1.4,4.4c-0.4,2.1-1.5,4.4-2.4,6.1C315.7,218.5,313.4,224.2,313.4,224.2L313.4,224.2z
			 M254,194.7c0.4-0.8,0.1-1.8-0.8-2.2c-0.8-0.4-1.8-0.1-2.2,0.8c0,0-4.1,8.5-12.9,5.6c-10-3.4-14.5-5.8-14.5-5.8
			c-0.8-0.4-1.8-0.1-2.3,0.7c-0.4,0.8-0.1,1.8,0.7,2.3c0,0,4.6,2.5,15,6C248.6,205.9,254,194.7,254,194.7L254,194.7z M308,302.2
			c0.2,0.9,1.1,1.5,2,1.2c0.9-0.2,1.5-1.1,1.2-2c0,0-4.1-16.6-3.3-38.3c0-0.9-0.7-1.7-1.6-1.7c-0.9,0-1.7,0.7-1.7,1.6
			C303.8,285.1,308,302.2,308,302.2L308,302.2z M349.3,209.2c-0.1,0.9,0.6,1.8,1.5,1.9c0.9,0.1,1.8-0.6,1.9-1.5c0,0,1-9.2-4.1-19.1
			c-5.1-9.9-13.1-15.3-22.8-18.1c-9.7-2.8-20.8-1-29,4.8c-8,5.7-12.4,10.3-18,24.5c-4.4,11.3-14.9,20.8-26.1,25.7
			c-0.9,0.4-1.2,1.4-0.9,2.2c0.4,0.9,1.4,1.2,2.2,0.9c11.9-5.2,23.2-15.5,27.9-27.6c5.2-13.3,9.3-17.7,16.8-23
			c7.3-5.2,17.3-6.8,26.1-4.3c8.8,2.5,16.1,7.4,20.7,16.4C350.2,201,349.3,209.2,349.3,209.2L349.3,209.2z M227.9,188.8L227.9,188.8
			c-0.9-0.4-1.8,0.1-2.2,0.9c-0.4,0.9,0.1,1.8,0.9,2.2c0,0,6.4,2.6,12,3.5c2.7,0.4,5.2,0.4,6.9-0.4c2.4-1,4-3.1,5.3-5.6
			c1.7-3.3,2.7-7.3,4.1-10.3c2.3-4.8,10.1-18.5,21.9-26.2c11.8-7.8,32.3-17.6,56.4-10.7c10.7,3.1,27.9,11.4,38.8,26.9
			c10.8,15.3,10.7,25.3,10.7,25.3c0,0.9,0.7,1.7,1.7,1.7c0.9,0,1.7-0.7,1.7-1.7c0,0,0.3-10.8-11.3-27.2
			c-11.4-16.2-29.4-25-40.6-28.2c-25.3-7.2-46.7,3-59.1,11.1c-12.4,8.2-20.6,22.5-23.1,27.5c-1.2,2.5-2.1,5.7-3.3,8.7
			c-1,2.5-2.2,4.7-4.4,5.6c-1.8,0.7-4.6,0.3-7.3-0.3C232.2,190.6,227.9,188.8,227.9,188.8L227.9,188.8z M276.9,249
			c-0.2,0.9,0.4,1.8,1.3,2c0.9,0.2,1.8-0.4,2-1.3c0,0,2.6-13.2,4.5-21.6c1.9-8.2,7.5-19.3,11.5-28.1c3.8-8.3,11.7-12.1,11.7-12.1
			c0.8-0.4,1.2-1.4,0.8-2.2c-0.4-0.8-1.4-1.2-2.2-0.8c0,0-9.1,4.3-13.3,13.8c-4.1,9-9.8,20.3-11.7,28.7
			C279.5,235.7,276.9,249,276.9,249L276.9,249z M237.8,189.9c0.9,0,1.7-0.8,1.6-1.7c0-0.9-0.8-1.7-1.7-1.6c0,0-3.4,0.1-7.5-1.1
			c-0.9-0.3-1.8,0.3-2.1,1.2c-0.3,0.9,0.3,1.8,1.2,2.1C234,190,237.8,189.9,237.8,189.9L237.8,189.9z M237.7,180.3
			c-1.6-0.3-4-0.6-4-0.6c-0.9-0.1-1.8,0.6-1.9,1.5c-0.1,0.9,0.6,1.8,1.5,1.9c0,0,3.5,0.3,4.2,0.6c0.4,0.2,0.9,0.2,1.5,0
			c0.3-0.1,0.8-0.5,1.2-1.1c1.3-1.7,3.6-6.5,3.6-6.5c0.4-0.8,0-1.8-0.8-2.2c-0.8-0.4-1.8,0-2.2,0.8c0,0-1.3,2.8-2.5,4.7
			C238.1,179.7,237.9,180,237.7,180.3L237.7,180.3z M250.8,201.8c-0.8,0.5-1,1.6-0.4,2.3c0.5,0.8,1.6,1,2.3,0.4c0,0,5.6-3.8,8.8-12
			c2.9-7.5,5.4-13.6,12-20.8c6.7-7.2,11.9-11,11.9-11c0.7-0.6,0.9-1.6,0.3-2.4c-0.6-0.7-1.6-0.9-2.4-0.3c0,0-5.4,4-12.3,11.4
			c-7,7.5-9.6,14-12.7,21.8C255.5,198.5,250.8,201.8,250.8,201.8L250.8,201.8z M323.3,292.9c0.1,0.9,1,1.6,1.9,1.4
			c0.9-0.1,1.6-1,1.4-1.9c0,0-2.9-19.4-0.9-33.5c0.1-0.9-0.5-1.8-1.4-1.9c-0.9-0.1-1.8,0.5-1.9,1.4
			C320.4,272.9,323.3,292.9,323.3,292.9L323.3,292.9z M318,207.7c0.5-0.8,0.2-1.8-0.6-2.3c-0.8-0.5-1.8-0.2-2.3,0.6
			c0,0-12.4,20.8-16.3,54.1c-0.1,0.9,0.6,1.8,1.5,1.9c0.9,0.1,1.8-0.6,1.9-1.5C305.9,227.9,318,207.7,318,207.7L318,207.7z
			 M256,165.8c0.5-0.8,0.2-1.8-0.6-2.3c-0.8-0.5-1.8-0.2-2.3,0.6c0,0-7.9,13.2-11.6,22c-0.4,0.9,0,1.8,0.9,2.2
			c0.9,0.4,1.8,0,2.2-0.9C248.2,178.7,256,165.8,256,165.8L256,165.8z M305.1,257.2c-0.2,0.9,0.5,1.8,1.4,1.9
			c0.9,0.2,1.8-0.5,1.9-1.4c0,0,2.9-17.2,5.7-25.8c0.3-0.9-0.2-1.8-1.1-2.1c-0.9-0.3-1.8,0.2-2.1,1.1
			C308.1,239.7,305.1,257.2,305.1,257.2L305.1,257.2z M252.9,188.6c-0.3,0.9,0.2,1.8,1.1,2.1c0.9,0.3,1.8-0.2,2.1-1.1
			c0,0,2.6-7.6,10-18.7c7.8-11.6,21.7-18.9,31.4-22.4c9.7-3.5,28.8-4.6,44,2.5c15.2,7.1,26.2,18.9,33,34.8
			c6.8,15.8,3.8,36.7-2.4,48.8c-6.6,12.8-8.6,20.1-8.8,25.5c0,0.9,0.7,1.7,1.6,1.8c0.9,0,1.7-0.7,1.8-1.6c0.2-5,2.2-12,8.5-24.1
			c6.6-12.8,9.8-34.9,2.6-51.7c-7.2-16.7-18.7-29-34.7-36.5c-16-7.5-36.3-6.3-46.6-2.6c-10.2,3.7-24.8,11.5-33,23.7
			C255.6,180.7,252.9,188.6,252.9,188.6L252.9,188.6z M334,284.7c0.1,0.9,0.9,1.6,1.8,1.5c0.9-0.1,1.6-0.9,1.5-1.8
			c0,0-1.6-17.5,0.2-27.5c1.8-10.1,6.2-23.1,8.2-27.1c2.1-4.2,4.9-10.1,5.7-13.2c0.2-0.9-0.3-1.8-1.2-2c-0.9-0.2-1.8,0.3-2,1.2
			c-0.7,3-3.5,8.5-5.4,12.5c-2.1,4.2-6.6,17.6-8.5,28C332.4,266.7,334,284.7,334,284.7L334,284.7z M349.7,178
			c0.6,0.7,1.6,0.9,2.4,0.3c0.7-0.6,0.9-1.6,0.3-2.4c0,0-8.3-10.9-25.3-14.9c-16.9-4-29.9,0.4-39.8,8.2c-9.7,7.7-15.4,18.9-19,28.1
			c-0.3,0.9,0.1,1.8,1,2.2c0.9,0.3,1.8-0.1,2.2-1c3.4-8.8,8.7-19.4,17.9-26.7c9.2-7.3,21.2-11.3,36.9-7.6
			C341.9,168,349.7,178,349.7,178L349.7,178z M339.3,280.7c0,0.9,0.8,1.7,1.7,1.6c0.9,0,1.7-0.8,1.6-1.7c0,0-0.6-15.2,0.6-23
			c1.2-7.7,4.8-19.2,8.1-26.1c3.5-7.3,7.3-14.1,7.3-23.8c-0.1-9.9-2.5-16.7-7.4-24c-4.9-7.3-14-15.2-27.2-17.4
			c-0.9-0.2-1.8,0.5-1.9,1.4c-0.2,0.9,0.5,1.8,1.4,1.9c12.1,2.1,20.5,9.3,25,16c4.5,6.7,6.8,13.1,6.8,22.2c0.1,9.2-3.7,15.5-7,22.4
			c-3.4,7.2-7.2,19.1-8.4,27C338.7,265,339.3,280.7,339.3,280.7L339.3,280.7z M323.2,252.6c-0.2,0.9,0.5,1.8,1.4,2
			c0.9,0.2,1.8-0.5,2-1.4c0,0,2.6-15.1,7.7-26.1c5.4-11.7,11.4-21.1,2.1-33.7c-9.5-12.9-23.4-10.1-23.4-10.1c-0.9,0.2-1.5,1.1-1.3,2
			c0.2,0.9,1.1,1.5,2,1.3c0,0,11.8-2.2,20,8.8c8.4,11.4,2.4,19.7-2.4,30.3C326,237,323.2,252.6,323.2,252.6L323.2,252.6z
			 M344.7,276.1c0,0.9,0.8,1.7,1.7,1.7c0.9,0,1.7-0.8,1.7-1.7c0,0-0.2-14.2,1.9-22.6c2.2-8.5,6.6-20,10.4-26.9
			c3.9-7.2,8.3-29.3-4.2-45.8c-0.6-0.7-1.6-0.9-2.4-0.3c-0.7,0.6-0.9,1.6-0.3,2.4c11.6,15.2,7.6,35.5,3.9,42.2
			c-3.8,7-8.4,18.9-10.7,27.6C344.5,261.5,344.7,276.1,344.7,276.1L344.7,276.1z M350.4,270.9c0,0.9,0.8,1.7,1.7,1.7
			c0.9,0,1.7-0.8,1.7-1.7c0,0,0-13.1,4.2-24.8c4.4-12.1,10.9-22.1,11.7-36.3c0.8-14.1-3.8-31.9-21-45.1c-11.4-8.7-22.1-9.8-22.1-9.8
			c-0.9-0.1-1.8,0.6-1.8,1.5c-0.1,0.9,0.6,1.8,1.5,1.8c0,0,9.9,1.1,20.4,9.1c16.2,12.4,20.4,29,19.7,42.2
			c-0.8,13.8-7.2,23.5-11.5,35.4C350.4,257.2,350.4,270.9,350.4,270.9L350.4,270.9z M356.5,265.2c-0.1,0.9,0.5,1.8,1.4,1.9
			c0.9,0.1,1.8-0.5,1.9-1.4c0,0,1.5-11.3,3.9-18.3c0.3-0.9-0.2-1.8-1.1-2.1c-0.9-0.3-1.8,0.2-2.1,1.1
			C358,253.5,356.5,265.2,356.5,265.2L356.5,265.2z M304,153c0.9-0.2,1.5-1.1,1.3-2s-1.1-1.5-2-1.3c0,0-7.7,1.8-15.6,5.5
			c-0.8,0.4-1.2,1.4-0.8,2.2c0.4,0.8,1.4,1.2,2.2,0.8C296.6,154.8,304,153,304,153L304,153z M363,239.8c-0.4,0.8-0.1,1.8,0.8,2.3
			s1.8,0.1,2.3-0.8c0,0,4.4-8.9,6.5-15c2.1-6.2,5.1-20.9,0.7-35.7c-4.3-14.9-12-24.6-24.8-33.2c-12-8-28.4-10.9-40.8-8.4
			c-0.9,0.2-1.5,1.1-1.3,2c0.2,0.9,1.1,1.5,2,1.3c11.6-2.3,27,0.4,38.2,7.9c12.1,8.1,19.4,17.3,23.5,31.3c4.1,14,1.4,27.8-0.7,33.7
			C367.3,231.1,363,239.8,363,239.8L363,239.8z M386.6,199.2c-0.1-0.9-1-1.6-1.9-1.4c-0.9,0.1-1.6,1-1.4,1.9c0,0,1.8,13.2-1.7,25.6
			c-3,10.6-7.4,17.2-9.3,22.5c-0.3,0.9,0.1,1.8,1,2.2c0.9,0.3,1.8-0.1,2.2-1c1.9-5.3,6.4-12,9.4-22.7
			C388.5,213,386.6,199.2,386.6,199.2L386.6,199.2z M333.4,135.8c0.9,0.2,1.8-0.4,2-1.3c0.2-0.9-0.4-1.8-1.3-2c0,0-5.6-1.2-12.5-1.4
			c-0.9,0-1.7,0.7-1.7,1.6c0,0.9,0.7,1.7,1.6,1.7C328.1,134.7,333.4,135.8,333.4,135.8L333.4,135.8z M389.2,216.8
			c-0.1,0.9,0.5,1.8,1.4,1.9c0.9,0.1,1.8-0.5,1.9-1.4c0,0,3.6-26.7-10.7-49.7c-15.8-25.4-42.1-33.1-42.1-33.1
			c-0.9-0.3-1.8,0.3-2.1,1.1c-0.3,0.9,0.3,1.8,1.1,2.1c0,0,25.1,7.4,40.2,31.6C392.6,191.3,389.2,216.8,389.2,216.8L389.2,216.8z
			 M392.4,185.6c0.2,0.9,1.1,1.5,2,1.3c0.9-0.2,1.5-1.1,1.3-2c0,0-7.2-32.9-40.6-49.8c-0.8-0.4-1.8-0.1-2.3,0.7
			c-0.4,0.8-0.1,1.8,0.7,2.3C385.5,154.3,392.4,185.6,392.4,185.6L392.4,185.6z"/>
	</g>
	<g>
		<g>
			<linearGradient id="SVGID_3_" gradientUnits="userSpaceOnUse" x1="1166.6088" y1="214.1147" x2="417.3423" y2="214.1147">
				<stop  offset="0" style="stop-color:#0A2472"/>
				<stop  offset="1" style="stop-color:#1A43BF"/>
			</linearGradient>
			<path fill="url(#SVGID_3_)" d="M403.9,201.6v1.1c0,2.2,0.6,3.8,1.8,4.8c1.2,1,3.1,1.5,5.7,1.5h35.5c2.7,0,5.2,0.3,7.5,0.8
				c2.2,0.5,4.2,1.3,5.7,2.5c1.6,1.2,2.8,2.7,3.6,4.6c0.8,1.9,1.3,4.2,1.3,6.9v5c0,2.7-0.4,5.1-1.3,7c-0.8,1.9-2,3.5-3.6,4.6
				c-1.6,1.2-3.5,2-5.7,2.5c-2.2,0.5-4.7,0.8-7.5,0.8h-51.4c-1.9,0-2.8-0.9-2.8-2.8v-5.2c0-1.8,0.9-2.7,2.8-2.7h49.8
				c2.6,0,4.5-0.5,5.7-1.5c1.2-1,1.8-2.6,1.8-4.8v-1.1c0-2.2-0.6-3.8-1.8-4.8c-1.2-1-3.1-1.5-5.7-1.5h-35.5c-2.8,0-5.3-0.3-7.5-0.8
				c-2.2-0.5-4.1-1.3-5.7-2.5c-1.6-1.2-2.8-2.7-3.6-4.6c-0.8-1.9-1.3-4.2-1.3-6.9v-5c0-2.7,0.4-5.1,1.3-7c0.8-1.9,2-3.5,3.6-4.6
				c1.6-1.2,3.5-2,5.7-2.5c2.2-0.5,4.7-0.8,7.5-0.8h50.7c1.9,0,2.8,0.9,2.8,2.8v5.2c0,1.8-0.9,2.7-2.8,2.7h-49.1
				C406.4,195.3,403.9,197.4,403.9,201.6z"/>
			<linearGradient id="SVGID_4_" gradientUnits="userSpaceOnUse" x1="1166.6088" y1="221.6878" x2="417.3423" y2="221.6878">
				<stop  offset="0" style="stop-color:#0A2472"/>
				<stop  offset="1" style="stop-color:#1A43BF"/>
			</linearGradient>
			<path fill="url(#SVGID_4_)" d="M516,215.3c0-1.8-0.5-3.2-1.6-4.2c-1-1-2.5-1.6-4.2-1.6h-34.6c-1.6,0-2.4-0.8-2.4-2.4v-4.8
				c0-1.6,0.8-2.4,2.4-2.4h38.1c4,0,7.2,1.2,9.6,3.6c2.4,2.4,3.6,5.6,3.6,9.6v18.2c0,4-1.1,7-3.2,9.2c-2.1,2.1-5.2,3.2-9.2,3.2
				h-31.2c-3.9,0-6.9-1-8.9-3.1c-2-2-3-5-3-8.9v-2.2c0-8,4-11.9,11.9-11.9H516V215.3z M511.7,233.9c2.8,0,4.2-1.4,4.2-4.2v-3.8
				h-29.8c-1.4,0-2.4,0.3-2.9,1c-0.6,0.6-0.8,1.6-0.8,2.8v0.4c0,1.3,0.3,2.2,0.8,2.9c0.6,0.6,1.5,0.9,2.9,0.9H511.7z"/>
			<linearGradient id="SVGID_5_" gradientUnits="userSpaceOnUse" x1="1166.6088" y1="212.5162" x2="417.3423" y2="212.5162">
				<stop  offset="0" style="stop-color:#0A2472"/>
				<stop  offset="1" style="stop-color:#1A43BF"/>
			</linearGradient>
			<path fill="url(#SVGID_5_)" d="M548.2,233c0.6,0.6,1.5,0.9,2.8,0.9h0.8c1.6,0,2.4,0.8,2.4,2.4v4.8c0,1.6-0.8,2.4-2.4,2.4h-3.5
				c-3.9,0-6.8-1-8.9-3.1c-2-2-3.1-5-3.1-8.9v-47.7c0-1.6,0.8-2.4,2.4-2.4h6.1c1.6,0,2.4,0.8,2.4,2.4v46.3
				C547.3,231.4,547.6,232.3,548.2,233z"/>
			<linearGradient id="SVGID_6_" gradientUnits="userSpaceOnUse" x1="1166.6088" y1="216.4289" x2="417.3423" y2="216.4289">
				<stop  offset="0" style="stop-color:#0A2472"/>
				<stop  offset="1" style="stop-color:#1A43BF"/>
			</linearGradient>
			<path fill="url(#SVGID_6_)" d="M599.6,236.3v4.8c0,1.6-0.8,2.4-2.4,2.4H577c-4,0-7.2-1.2-9.6-3.6c-2.4-2.4-3.6-5.6-3.6-9.6v-20.9
				h-4.5c-1.6,0-2.4-0.8-2.4-2.4v-4.8c0-1.6,0.8-2.4,2.4-2.4h4.5v-8.1c0-1.6,0.8-2.4,2.4-2.4h6.1c1.6,0,2.4,0.8,2.4,2.4v8.1h22
				c1.6,0,2.4,0.8,2.4,2.4v4.8c0,1.6-0.8,2.4-2.4,2.4h-22v18.6c0,1.8,0.5,3.2,1.6,4.2c1,1,2.5,1.6,4.2,1.6h16.6
				C598.8,233.9,599.6,234.7,599.6,236.3z"/>
			<linearGradient id="SVGID_7_" gradientUnits="userSpaceOnUse" x1="1166.6088" y1="221.6878" x2="417.3423" y2="221.6878">
				<stop  offset="0" style="stop-color:#0A2472"/>
				<stop  offset="1" style="stop-color:#1A43BF"/>
			</linearGradient>
			<path fill="url(#SVGID_7_)" d="M651,199.8c3.9,0,6.9,1,9,3.1c2,2,3.1,5,3.1,8.9v2.2c0,3.9-1,6.9-3.1,8.9c-2,2-5,3-9,3h-32.6v2.2
				c0,1.8,0.5,3.2,1.6,4.2c1,1,2.5,1.6,4.2,1.6h34.7c1.6,0,2.4,0.8,2.4,2.4v4.8c0,1.6-0.8,2.4-2.4,2.4h-38.2c-4,0-7.2-1.2-9.6-3.6
				c-2.4-2.4-3.6-5.6-3.6-9.6V213c0-4,1.2-7.2,3.6-9.6c2.4-2.4,5.6-3.6,9.6-3.6H651z M618.4,217.5h29.8c1.4,0,2.4-0.3,2.9-1
				c0.6-0.6,0.8-1.6,0.8-2.8v-0.4c0-1.3-0.3-2.2-0.8-2.9c-0.6-0.6-1.5-0.9-2.9-0.9h-24c-1.8,0-3.2,0.5-4.2,1.6c-1,1-1.6,2.5-1.6,4.2
				V217.5z"/>
			<linearGradient id="SVGID_8_" gradientUnits="userSpaceOnUse" x1="1166.6088" y1="212.5162" x2="417.3423" y2="212.5162">
				<stop  offset="0" style="stop-color:#0A2472"/>
				<stop  offset="1" style="stop-color:#1A43BF"/>
			</linearGradient>
			<path fill="url(#SVGID_8_)" d="M705.5,199.8c2.5,0,4.6,0.4,6.4,1.3c1.7,0.8,3.1,2,4.2,3.4v-20.6c0-1.6,0.8-2.4,2.4-2.4h6.1
				c1.6,0,2.4,0.8,2.4,2.4v46.4c0,4-1.2,7.2-3.7,9.6c-2.4,2.4-5.7,3.6-9.6,3.6H684c-4,0-7.2-1.2-9.6-3.6c-2.4-2.4-3.6-5.6-3.6-9.6
				V213c0-4,1.2-7.2,3.6-9.6c2.4-2.4,5.6-3.6,9.6-3.6H705.5z M716,215.3c0-1.8-0.5-3.2-1.6-4.2c-1-1-2.5-1.6-4.2-1.6h-22.6
				c-1.8,0-3.2,0.5-4.2,1.6c-1,1-1.6,2.5-1.6,4.2v12.8c0,1.8,0.5,3.2,1.6,4.2c1,1,2.5,1.6,4.2,1.6h22.6c1.8,0,3.2-0.5,4.2-1.6
				c1-1,1.6-2.5,1.6-4.2V215.3z"/>
			<linearGradient id="SVGID_9_" gradientUnits="userSpaceOnUse" x1="1166.6088" y1="214.1147" x2="417.3423" y2="214.1147">
				<stop  offset="0" style="stop-color:#0A2472"/>
				<stop  offset="1" style="stop-color:#1A43BF"/>
			</linearGradient>
			<path fill="url(#SVGID_9_)" d="M739.8,184.7h6.6c1.9,0,2.8,0.9,2.8,2.8v21.3H798v-21.3c0-1.9,0.9-2.8,2.8-2.8h6.6
				c1.9,0,2.8,0.9,2.8,2.8v53.3c0,1.9-0.9,2.8-2.8,2.8h-6.6c-1.9,0-2.8-0.9-2.8-2.8v-21.3h-48.8v21.3c0,1.9-0.9,2.8-2.8,2.8h-6.6
				c-1.9,0-2.8-0.9-2.8-2.8v-53.3C737,185.6,737.9,184.7,739.8,184.7z"/>
			<linearGradient id="SVGID_10_" gradientUnits="userSpaceOnUse" x1="1166.6088" y1="221.6878" x2="417.3423" y2="221.6878">
				<stop  offset="0" style="stop-color:#0A2472"/>
				<stop  offset="1" style="stop-color:#1A43BF"/>
			</linearGradient>
			<path fill="url(#SVGID_10_)" d="M863.1,215.3c0-1.8-0.5-3.2-1.6-4.2c-1-1-2.5-1.6-4.2-1.6h-34.6c-1.6,0-2.4-0.8-2.4-2.4v-4.8
				c0-1.6,0.8-2.4,2.4-2.4h38.1c4,0,7.2,1.2,9.6,3.6c2.4,2.4,3.6,5.6,3.6,9.6v18.2c0,4-1.1,7-3.2,9.2c-2.1,2.1-5.2,3.2-9.2,3.2
				h-31.2c-3.9,0-6.9-1-8.9-3.1c-2-2-3-5-3-8.9v-2.2c0-8,4-11.9,11.9-11.9h32.6V215.3z M858.9,233.9c2.8,0,4.2-1.4,4.2-4.2v-3.8
				h-29.8c-1.4,0-2.4,0.3-2.9,1c-0.6,0.6-0.8,1.6-0.8,2.8v0.4c0,1.3,0.3,2.2,0.8,2.9c0.6,0.6,1.5,0.9,2.9,0.9H858.9z"/>
			<linearGradient id="SVGID_11_" gradientUnits="userSpaceOnUse" x1="1166.6088" y1="221.6878" x2="417.3423" y2="221.6878">
				<stop  offset="0" style="stop-color:#0A2472"/>
				<stop  offset="1" style="stop-color:#1A43BF"/>
			</linearGradient>
			<path fill="url(#SVGID_11_)" d="M885.1,243.6c-1.6,0-2.4-0.8-2.4-2.4v-4.8c0-1.6,0.8-2.4,2.4-2.4H922c1.4,0,2.4-0.3,2.9-0.9
				c0.6-0.6,0.8-1.6,0.8-2.9v-0.4c0-1.2-0.3-2.2-0.8-2.8c-0.6-0.6-1.5-1-2.9-1h-28.2c-8,0-11.9-4-11.9-11.9v-2.2c0-3.9,1-6.8,3-8.9
				c2-2,5-3.1,8.9-3.1h38.9c1.6,0,2.4,0.8,2.4,2.4v4.8c0,1.6-0.8,2.4-2.4,2.4h-36c-1.4,0-2.4,0.3-2.9,0.9c-0.6,0.6-0.8,1.6-0.8,2.9
				v0.4c0,1.2,0.3,2.2,0.8,2.8c0.6,0.6,1.5,1,2.9,1h28.1c3.9,0,6.9,1,9,3c2,2,3.1,5,3.1,8.9v2.2c0,3.9-1,6.8-3.1,8.9
				c-2,2-5,3.1-9,3.1H885.1z"/>
			<linearGradient id="SVGID_12_" gradientUnits="userSpaceOnUse" x1="1166.6088" y1="212.5162" x2="417.3423" y2="212.5162">
				<stop  offset="0" style="stop-color:#0A2472"/>
				<stop  offset="1" style="stop-color:#1A43BF"/>
			</linearGradient>
			<path fill="url(#SVGID_12_)" d="M996.4,203.4c2.4,2.4,3.6,5.6,3.6,9.6v28.1c0,1.6-0.8,2.4-2.4,2.4h-6.1c-1.6,0-2.4-0.8-2.4-2.4
				v-25.8c0-1.8-0.5-3.2-1.6-4.2c-1-1-2.5-1.6-4.2-1.6h-21.4c-1.8,0-3.2,0.5-4.2,1.6c-1,1-1.6,2.5-1.6,4.2v25.8
				c0,1.6-0.8,2.4-2.4,2.4h-6.1c-1.6,0-2.4-0.8-2.4-2.4v-57.2c0-1.6,0.8-2.4,2.4-2.4h6.1c1.6,0,2.4,0.8,2.4,2.4v20.7
				c1-1.5,2.4-2.6,4.1-3.5c1.7-0.9,3.9-1.3,6.4-1.3h20.2C990.8,199.8,994,201,996.4,203.4z"/>
		</g>
		<g>
			<linearGradient id="SVGID_13_" gradientUnits="userSpaceOnUse" x1="1166.6088" y1="184.5628" x2="417.3423" y2="184.5628">
				<stop  offset="0" style="stop-color:#0A2472"/>
				<stop  offset="1" style="stop-color:#1A43BF"/>
			</linearGradient>
			<path fill="url(#SVGID_13_)" d="M1016.6,174.2v3.6h-6v17.1h-3.6v-17.1h-6v-3.6H1016.6z"/>
			<linearGradient id="SVGID_14_" gradientUnits="userSpaceOnUse" x1="1166.6088" y1="186.8128" x2="417.3423" y2="186.8128">
				<stop  offset="0" style="stop-color:#0A2472"/>
				<stop  offset="1" style="stop-color:#1A43BF"/>
			</linearGradient>
			<path fill="url(#SVGID_14_)" d="M1029.5,178.7c3.8,0,5.4,1.8,5.4,5c0,3-1.5,4.7-5.5,4.7h-7.7v1.2c0,1.3,0.7,2.2,2.5,2.2h9.9v3.2
				h-9.9c-4,0-5.6-2.3-5.6-5.3v-5.5c0-3.1,1.6-5.3,5.6-5.3H1029.5z M1021.8,185.8h7.6c1.7,0,2.4-0.7,2.4-1.9c0-1.2-0.7-2-2.3-2h-5.2
				c-1.8,0-2.5,1-2.5,2.2V185.8z"/>
			<linearGradient id="SVGID_15_" gradientUnits="userSpaceOnUse" x1="1166.6088" y1="186.8128" x2="417.3423" y2="186.8128">
				<stop  offset="0" style="stop-color:#0A2472"/>
				<stop  offset="1" style="stop-color:#1A43BF"/>
			</linearGradient>
			<path fill="url(#SVGID_15_)" d="M1053.5,178.7v3.1h-8c-2.8,0-4,1.5-4,5c0,3.5,1.2,4.9,4,4.9h8v3.2h-8.3c-4.3,0-7-2.6-7-8.1
				c0-5.4,2.7-8.1,7-8.1H1053.5z"/>
			<linearGradient id="SVGID_16_" gradientUnits="userSpaceOnUse" x1="1166.6088" y1="183.3079" x2="417.3423" y2="183.3079">
				<stop  offset="0" style="stop-color:#0A2472"/>
				<stop  offset="1" style="stop-color:#1A43BF"/>
			</linearGradient>
			<path fill="url(#SVGID_16_)" d="M1060.6,171.7v7h5.7c5.4,0,8.1,2.6,8.1,7.1v9.1h-3.3v-9.1c0-2.5-1.5-3.9-4.9-3.9h-5.7v13h-3.2
				v-23.2H1060.6z"/>
		</g>
	</g>
	
		<text transform="matrix(1 0 0 1 392.5155 285.7251)" font-family="'NasalizationRg-Regular'" font-size="31.2834" letter-spacing="4">Securing Your Tomorrow</text>
</g>
</svg>
