<svg xmlns="http://www.w3.org/2000/svg" xmlns:xlink="http://www.w3.org/1999/xlink" version="1.1" id="Layer_1" x="0px" y="0px" enable-background="new 0 0 1300 457" xml:space="preserve" viewBox="246.1 186 807.8 85.2">
<g>
	<g>
		<linearGradient id="SVGID_1_" gradientUnits="userSpaceOnUse" x1="1163.0839" y1="236.1577" x2="276.3913" y2="236.1577">
			<stop offset="0" style="stop-color:#0A2472"/>
			<stop offset="1" style="stop-color:#1A43BF"/>
		</linearGradient>
		<path fill="url(#SVGID_1_)" d="M260.5,221.3v1.3c0,2.6,0.7,4.5,2.1,5.6c1.4,1.2,3.7,1.7,6.7,1.7h42c3.3,0,6.2,0.3,8.9,0.9    c2.7,0.6,4.9,1.6,6.8,3c1.9,1.4,3.3,3.2,4.3,5.4c1,2.2,1.5,5,1.5,8.2v5.9c0,3.3-0.5,6-1.5,8.3c-1,2.3-2.4,4.1-4.3,5.5    c-1.9,1.4-4.1,2.4-6.8,3c-2.7,0.6-5.6,0.9-8.9,0.9h-60.8c-2.2,0-3.3-1.1-3.3-3.3v-6.2c0-2.1,1.1-3.2,3.3-3.2h59    c3.1,0,5.3-0.6,6.7-1.7c1.4-1.2,2.1-3,2.1-5.6v-1.3c0-2.6-0.7-4.5-2.1-5.6c-1.4-1.2-3.7-1.7-6.7-1.7h-42c-3.3,0-6.3-0.3-8.9-0.9    c-2.6-0.6-4.9-1.6-6.7-3c-1.9-1.4-3.3-3.2-4.3-5.4c-1-2.2-1.5-5-1.5-8.2v-5.9c0-3.3,0.5-6,1.5-8.3c1-2.3,2.4-4.1,4.3-5.5    c1.9-1.4,4.1-2.4,6.7-3c2.6-0.6,5.6-0.9,8.9-0.9h59.9c2.2,0,3.3,1.1,3.3,3.3v6.2c0,2.1-1.1,3.2-3.3,3.2h-58.1    C263.4,214,260.5,216.4,260.5,221.3z"/>
		<linearGradient id="SVGID_3_" gradientUnits="userSpaceOnUse" x1="1163.0839" y1="245.1198" x2="276.3913" y2="245.1198">
			<stop offset="0" style="stop-color:#0A2472"/>
			<stop offset="1" style="stop-color:#1A43BF"/>
		</linearGradient>
		<path fill="url(#SVGID_3_)" d="M393.1,237.6c0-2.1-0.6-3.8-1.8-5c-1.2-1.2-2.9-1.8-5-1.8h-40.9c-1.9,0-2.8-1-2.8-2.9v-5.7    c0-1.9,0.9-2.9,2.8-2.9h45.1c4.7,0,8.5,1.4,11.4,4.3c2.9,2.9,4.3,6.6,4.3,11.4v21.5c0,4.7-1.3,8.3-3.8,10.9    c-2.5,2.5-6.1,3.8-10.9,3.8h-36.9c-4.6,0-8.2-1.2-10.6-3.6c-2.4-2.4-3.6-5.9-3.6-10.5v-2.6c0-9.4,4.7-14.1,14.1-14.1h38.6V237.6z     M388.1,259.6c3.3,0,5-1.7,5-5v-4.5h-35.3c-1.7,0-2.8,0.4-3.5,1.1c-0.7,0.8-1,1.9-1,3.3v0.5c0,1.5,0.3,2.7,1,3.4    c0.7,0.7,1.8,1.1,3.5,1.1H388.1z"/>
		<linearGradient id="SVGID_4_" gradientUnits="userSpaceOnUse" x1="1163.0839" y1="234.266" x2="276.3913" y2="234.266">
			<stop offset="0" style="stop-color:#0A2472"/>
			<stop offset="1" style="stop-color:#1A43BF"/>
		</linearGradient>
		<path fill="url(#SVGID_4_)" d="M431.2,258.5c0.7,0.7,1.8,1.1,3.3,1.1h1c1.9,0,2.9,1,2.9,2.9v5.7c0,1.9-1,2.9-2.9,2.9h-4.2    c-4.6,0-8.1-1.2-10.5-3.6c-2.4-2.4-3.6-5.9-3.6-10.5v-56.5c0-1.9,1-2.9,2.9-2.9h7.3c1.9,0,2.9,1,2.9,2.9v54.8    C430.2,256.6,430.6,257.7,431.2,258.5z"/>
		<linearGradient id="SVGID_5_" gradientUnits="userSpaceOnUse" x1="1163.0839" y1="238.8963" x2="276.3913" y2="238.8963">
			<stop offset="0" style="stop-color:#0A2472"/>
			<stop offset="1" style="stop-color:#1A43BF"/>
		</linearGradient>
		<path fill="url(#SVGID_5_)" d="M492.1,262.4v5.7c0,1.9-1,2.9-2.9,2.9h-23.8c-4.7,0-8.5-1.4-11.4-4.3c-2.9-2.9-4.3-6.6-4.3-11.4    v-24.7h-5.4c-1.9,0-2.8-1-2.8-2.9v-5.7c0-1.9,0.9-2.9,2.8-2.9h5.4v-9.6c0-1.9,1-2.9,2.9-2.9h7.2c1.9,0,2.9,1,2.9,2.9v9.6h26    c1.9,0,2.9,1,2.9,2.9v5.7c0,1.9-1,2.9-2.9,2.9h-26v22c0,2.1,0.6,3.8,1.8,5c1.2,1.2,2.9,1.8,5,1.8h19.6    C491.1,259.6,492.1,260.5,492.1,262.4z"/>
		<linearGradient id="SVGID_6_" gradientUnits="userSpaceOnUse" x1="1163.0839" y1="245.1198" x2="276.3913" y2="245.1198">
			<stop offset="0" style="stop-color:#0A2472"/>
			<stop offset="1" style="stop-color:#1A43BF"/>
		</linearGradient>
		<path fill="url(#SVGID_6_)" d="M552.9,219.2c4.6,0,8.2,1.2,10.6,3.6c2.4,2.4,3.6,5.9,3.6,10.5v2.6c0,4.6-1.2,8.2-3.6,10.6    c-2.4,2.4-6,3.6-10.6,3.6h-38.5v2.6c0,2.1,0.6,3.8,1.8,5c1.2,1.2,2.9,1.8,5,1.8h41c1.9,0,2.9,1,2.9,2.9v5.7c0,1.9-1,2.9-2.9,2.9    h-45.2c-4.7,0-8.5-1.4-11.4-4.3c-2.9-2.9-4.3-6.6-4.3-11.4v-20.5c0-4.7,1.4-8.5,4.3-11.4c2.9-2.9,6.6-4.3,11.4-4.3H552.9z     M514.4,240.1h35.3c1.7,0,2.8-0.4,3.5-1.1c0.7-0.8,1-1.9,1-3.3v-0.5c0-1.5-0.3-2.7-1-3.4c-0.7-0.7-1.8-1.1-3.5-1.1h-28.4    c-2.1,0-3.8,0.6-5,1.8c-1.2,1.2-1.8,2.9-1.8,5V240.1z"/>
		<linearGradient id="SVGID_7_" gradientUnits="userSpaceOnUse" x1="1163.0839" y1="234.266" x2="276.3913" y2="234.266">
			<stop offset="0" style="stop-color:#0A2472"/>
			<stop offset="1" style="stop-color:#1A43BF"/>
		</linearGradient>
		<path fill="url(#SVGID_7_)" d="M617.3,219.2c3,0,5.5,0.5,7.5,1.5c2,1,3.7,2.4,4.9,4.1v-24.4c0-1.9,1-2.9,2.9-2.9h7.3    c1.9,0,2.9,1,2.9,2.9v55c0,4.7-1.4,8.5-4.3,11.4c-2.9,2.9-6.7,4.3-11.4,4.3H592c-4.7,0-8.5-1.4-11.4-4.3    c-2.9-2.9-4.3-6.6-4.3-11.4v-20.5c0-4.7,1.4-8.5,4.3-11.4c2.9-2.9,6.6-4.3,11.4-4.3H617.3z M629.8,237.6c0-2.1-0.6-3.8-1.8-5    c-1.2-1.2-2.9-1.8-5-1.8h-26.8c-2.1,0-3.8,0.6-5,1.8c-1.2,1.2-1.8,2.9-1.8,5v15.1c0,2.1,0.6,3.8,1.8,5c1.2,1.2,2.9,1.8,5,1.8h26.8    c2.1,0,3.8-0.6,5-1.8c1.2-1.2,1.8-2.9,1.8-5V237.6z"/>
		<linearGradient id="SVGID_8_" gradientUnits="userSpaceOnUse" x1="1163.0839" y1="236.1577" x2="276.3913" y2="236.1577">
			<stop offset="0" style="stop-color:#0A2472"/>
			<stop offset="1" style="stop-color:#1A43BF"/>
		</linearGradient>
		<path fill="url(#SVGID_8_)" d="M658,201.3h7.9c2.2,0,3.3,1.1,3.3,3.3v25.2h57.8v-25.2c0-2.2,1.1-3.3,3.3-3.3h7.9    c2.2,0,3.3,1.1,3.3,3.3v63.1c0,2.2-1.1,3.3-3.3,3.3h-7.9c-2.2,0-3.3-1.1-3.3-3.3v-25.2h-57.8v25.2c0,2.2-1.1,3.3-3.3,3.3H658    c-2.2,0-3.3-1.1-3.3-3.3v-63.1C654.7,202.4,655.8,201.3,658,201.3z"/>
		<linearGradient id="SVGID_9_" gradientUnits="userSpaceOnUse" x1="1163.0839" y1="245.1198" x2="276.3913" y2="245.1198">
			<stop offset="0" style="stop-color:#0A2472"/>
			<stop offset="1" style="stop-color:#1A43BF"/>
		</linearGradient>
		<path fill="url(#SVGID_9_)" d="M804,237.6c0-2.1-0.6-3.8-1.8-5c-1.2-1.2-2.9-1.8-5-1.8h-40.9c-1.9,0-2.8-1-2.8-2.9v-5.7    c0-1.9,0.9-2.9,2.8-2.9h45.1c4.7,0,8.5,1.4,11.4,4.3c2.9,2.9,4.3,6.6,4.3,11.4v21.5c0,4.7-1.3,8.3-3.8,10.9    c-2.5,2.5-6.1,3.8-10.9,3.8h-36.9c-4.6,0-8.2-1.2-10.6-3.6c-2.4-2.4-3.6-5.9-3.6-10.5v-2.6c0-9.4,4.7-14.1,14.1-14.1H804V237.6z     M799,259.6c3.3,0,5-1.7,5-5v-4.5h-35.3c-1.7,0-2.8,0.4-3.5,1.1c-0.7,0.8-1,1.9-1,3.3v0.5c0,1.5,0.3,2.7,1,3.4    c0.7,0.7,1.8,1.1,3.5,1.1H799z"/>
		<linearGradient id="SVGID_10_" gradientUnits="userSpaceOnUse" x1="1163.0839" y1="245.1198" x2="276.3913" y2="245.1198">
			<stop offset="0" style="stop-color:#0A2472"/>
			<stop offset="1" style="stop-color:#1A43BF"/>
		</linearGradient>
		<path fill="url(#SVGID_10_)" d="M829.9,271c-1.9,0-2.9-1-2.9-2.9v-5.7c0-1.9,1-2.9,2.9-2.9h43.6c1.7,0,2.8-0.4,3.5-1.1    c0.7-0.7,1-1.9,1-3.4v-0.5c0-1.5-0.3-2.6-1-3.3c-0.7-0.8-1.8-1.1-3.5-1.1h-33.4c-9.4,0-14.1-4.7-14.1-14.1v-2.6    c0-4.6,1.2-8.1,3.6-10.5c2.4-2.4,5.9-3.6,10.6-3.6h46c1.9,0,2.9,1,2.9,2.9v5.7c0,1.9-1,2.9-2.9,2.9h-42.6c-1.7,0-2.8,0.4-3.5,1.1    c-0.7,0.7-1,1.9-1,3.4v0.5c0,1.5,0.3,2.6,1,3.3c0.7,0.8,1.8,1.1,3.5,1.1h33.3c4.6,0,8.2,1.2,10.6,3.6c2.4,2.4,3.6,5.9,3.6,10.6    v2.6c0,4.6-1.2,8.1-3.6,10.5c-2.4,2.4-6,3.6-10.6,3.6H829.9z"/>
		<linearGradient id="SVGID_11_" gradientUnits="userSpaceOnUse" x1="1163.0839" y1="234.266" x2="276.3913" y2="234.266">
			<stop offset="0" style="stop-color:#0A2472"/>
			<stop offset="1" style="stop-color:#1A43BF"/>
		</linearGradient>
		<path fill="url(#SVGID_11_)" d="M961.7,223.5c2.9,2.9,4.3,6.6,4.3,11.4v33.3c0,1.9-0.9,2.9-2.8,2.9h-7.3c-1.9,0-2.9-1-2.9-2.9    v-30.6c0-2.1-0.6-3.8-1.8-5c-1.2-1.2-2.9-1.8-5-1.8h-25.3c-2.1,0-3.8,0.6-5,1.8c-1.2,1.2-1.8,2.9-1.8,5v30.6    c0,1.9-0.9,2.9-2.8,2.9h-7.3c-1.9,0-2.9-1-2.9-2.9v-67.7c0-1.9,1-2.9,2.9-2.9h7.3c1.9,0,2.8,1,2.8,2.9v24.5    c1.2-1.7,2.8-3.1,4.9-4.1c2.1-1,4.6-1.5,7.6-1.5h23.9C955,219.2,958.8,220.7,961.7,223.5z"/>
	</g>
	<g>
		<linearGradient id="SVGID_12_" gradientUnits="userSpaceOnUse" x1="1163.0839" y1="201.1856" x2="276.3913" y2="201.1856">
			<stop offset="0" style="stop-color:#0A2472"/>
			<stop offset="1" style="stop-color:#1A43BF"/>
		</linearGradient>
		<path fill="url(#SVGID_12_)" d="M985.6,189v4.3h-7.1v20.2h-4.3v-20.2H967V189H985.6z"/>
		<linearGradient id="SVGID_13_" gradientUnits="userSpaceOnUse" x1="1163.0839" y1="203.8483" x2="276.3913" y2="203.8483">
			<stop offset="0" style="stop-color:#0A2472"/>
			<stop offset="1" style="stop-color:#1A43BF"/>
		</linearGradient>
		<path fill="url(#SVGID_13_)" d="M1000.8,194.3c4.5,0,6.4,2.2,6.4,5.9c0,3.5-1.8,5.5-6.5,5.5h-9.1v1.4c0,1.5,0.8,2.6,2.9,2.6h11.7    v3.7h-11.7c-4.8,0-6.7-2.7-6.7-6.3v-6.5c0-3.6,1.9-6.3,6.7-6.3H1000.8z M991.7,202.7h9c2.1,0,2.8-0.9,2.8-2.3    c0-1.4-0.8-2.4-2.7-2.4h-6.2c-2.1,0-2.9,1.2-2.9,2.6V202.7z"/>
		<linearGradient id="SVGID_14_" gradientUnits="userSpaceOnUse" x1="1163.0839" y1="203.8483" x2="276.3913" y2="203.8483">
			<stop offset="0" style="stop-color:#0A2472"/>
			<stop offset="1" style="stop-color:#1A43BF"/>
		</linearGradient>
		<path fill="url(#SVGID_14_)" d="M1029.2,194.3v3.7h-9.5c-3.3,0-4.8,1.7-4.8,5.9c0,4.1,1.4,5.8,4.8,5.8h9.5v3.7h-9.9    c-5.1,0-8.3-3.1-8.3-9.6c0-6.4,3.2-9.6,8.3-9.6H1029.2z"/>
		<linearGradient id="SVGID_15_" gradientUnits="userSpaceOnUse" x1="1163.0839" y1="199.7005" x2="276.3913" y2="199.7005">
			<stop offset="0" style="stop-color:#0A2472"/>
			<stop offset="1" style="stop-color:#1A43BF"/>
		</linearGradient>
		<path fill="url(#SVGID_15_)" d="M1037.6,186v8.3h6.7c6.4,0,9.6,3.1,9.6,8.4v10.8h-3.9v-10.8c0-2.9-1.8-4.7-5.8-4.7h-6.7v15.4h-3.8    V186H1037.6z"/>
	</g>
</g>
</svg>