<?xml version="1.0" encoding="utf-8"?>
<!-- Generator: Adobe Illustrator 18.0.0, SVG Export Plug-In . SVG Version: 6.00 Build 0)  -->
<!DOCTYPE svg PUBLIC "-//W3C//DTD SVG 1.1//EN" "http://www.w3.org/Graphics/SVG/1.1/DTD/svg11.dtd">
<svg version="1.1" id="Layer_1" xmlns="http://www.w3.org/2000/svg" xmlns:xlink="http://www.w3.org/1999/xlink" x="0px" y="0px"
	 viewBox="0 0 1300 1000" enable-background="new 0 0 1300 1000" xml:space="preserve">
<linearGradient id="SVGID_1_" gradientUnits="userSpaceOnUse" x1="270.4386" y1="1534.1156" x2="-299.8879" y2="1991.8776" gradientTransform="matrix(-0.9948 0.1014 -0.1014 -0.9948 776.9032 2295.9695)">
	<stop  offset="0" style="stop-color:#0A2472"/>
	<stop  offset="1" style="stop-color:#1A43BF"/>
</linearGradient>
<path fill-rule="evenodd" clip-rule="evenodd" fill="url(#SVGID_1_)" d="M455.8,843.5c0.2,3.4,3.2,5.9,6.5,5.6
	c3.4-0.2,5.9-3.2,5.6-6.5c0,0-0.9-11.9-11-17.7c-11.6-6.6-23.1-0.8-23.1-0.8c-3,1.5-4.3,5.2-2.8,8.2c1.5,3,5.2,4.3,8.2,2.8
	c0,0,5.8-2.8,11.7,0.5C455.4,838.1,455.8,843.5,455.8,843.5L455.8,843.5z M489,863c0.6,3.3,3.9,5.5,7.2,4.8c3.3-0.6,5.5-3.9,4.8-7.2
	c0,0-7.8-38.4-35.5-53.5c-24-13.1-59.7-2.7-59.7-2.7c-3.2,1-5.1,4.4-4.1,7.6c1,3.2,4.4,5.1,7.6,4.1c0,0,30.1-9.3,50.3,1.7
	C482.9,830.6,489,863,489,863L489,863z M515.5,868.7c1.5,3,5.2,4.2,8.2,2.6c3-1.5,4.2-5.2,2.6-8.2c0,0-11.7-22.7-15.1-28.3
	c-1.7-2.9-5.5-3.8-8.4-2c-2.9,1.7-3.8,5.5-2,8.4C504.1,846.7,515.5,868.7,515.5,868.7L515.5,868.7z M489,817.2
	c1.5,3,5.2,4.2,8.2,2.7c3-1.5,4.2-5.2,2.7-8.2c0,0-14-28.1-47.9-29.6c-30.5-1.3-60.6,0.1-60.6,0.1c-3.4,0.2-6,3-5.8,6.4
	c0.2,3.4,3,6,6.4,5.8c0,0,29.6-1.4,59.5-0.1C477.9,795.4,489,817.2,489,817.2L489,817.2z M540.5,869.8c1.5,3,5.2,4.2,8.2,2.7
	c3-1.5,4.2-5.2,2.7-8.2c0,0-17.5-34.5-28.3-53.3c-11.6-20.2-28.7-49.9-68.9-50.8c-37.6-0.8-79,0.8-79,0.8c-3.4,0.1-6,3-5.9,6.3
	c0.1,3.4,3,6,6.3,5.9c0,0,41-1.6,78.3-0.8c34.6,0.8,48.6,27.3,58.6,44.7C523.3,835.7,540.5,869.8,540.5,869.8L540.5,869.8z
	 M566.4,870.9c1.6,2.9,5.4,4,8.3,2.3c2.9-1.6,4-5.4,2.3-8.3c0,0-24.6-43.8-36.7-64.4c-12.8-21.8-26.9-51.3-73.8-58.8
	c-44.4-7.2-77.8,0.9-103.2-2.1c-3.3-0.4-6.4,2-6.8,5.4c-0.4,3.3,2,6.4,5.4,6.8c25.3,2.9,58.6-5.1,102.7,2
	c41.7,6.7,53.8,33.5,65.2,52.9C541.9,827.3,566.4,870.9,566.4,870.9L566.4,870.9z M404.8,730.8c3.4,0,6.1-2.7,6.1-6.1
	c0-3.4-2.7-6.1-6.1-6.1c0,0-33.5,0-51.1-1.4c-3.4-0.3-6.3,2.3-6.6,5.6c-0.3,3.4,2.3,6.3,5.6,6.6
	C370.7,730.7,404.8,730.8,404.8,730.8L404.8,730.8z M489.6,726.2c-3.3-0.7-6.5,1.5-7.2,4.8c-0.7,3.3,1.5,6.5,4.8,7.2
	c0,0,33.3,7.1,57.3,49.4c25.8,45.4,36.8,69.1,45.8,82.2c1.9,2.8,5.7,3.5,8.5,1.6c2.8-1.9,3.5-5.7,1.6-8.5
	c-8.9-12.9-19.7-36.4-45.2-81.3C527.9,733.6,489.6,726.2,489.6,726.2L489.6,726.2z M610.7,864.3c1.7,2.9,5.5,3.8,8.4,2.1
	c2.9-1.7,3.8-5.5,2.1-8.4c0,0-30-50-40.5-70.1c-10.9-21-34-64.6-91.6-84.4c-32.8-11.3-58-5.2-88.6-4.7c-31.4,0.6-52.1-2.2-52.1-2.2
	c-3.3-0.4-6.4,1.9-6.8,5.2c-0.4,3.3,1.9,6.4,5.2,6.8c0,0,21.4,2.8,53.9,2.3c29.1-0.5,53.2-6.7,84.4,4c53.4,18.4,74.7,59,84.7,78.5
	C580.4,813.8,610.7,864.3,610.7,864.3L610.7,864.3z M633.3,859.6c1.7,2.9,5.5,3.8,8.4,2.1c2.9-1.7,3.8-5.5,2.1-8.4
	c0,0-34.5-57.2-48.9-84.9c-15.1-29-51.6-80.6-110-87.4c-59.2-6.9-110.6-2.7-141-5.8c-3.3-0.3-6.3,2.1-6.7,5.5
	c-0.3,3.3,2.1,6.3,5.5,6.7c30.4,3.1,81.7-1.2,140.8,5.7c53.7,6.3,86.8,54.2,100.6,80.9C598.5,801.9,633.3,859.6,633.3,859.6
	L633.3,859.6z M421.3,718.4c-3.4,0.1-6,3-5.8,6.3c0.1,3.4,3,6,6.3,5.8c0,0,25-1,44.9,1.9c3.3,0.5,6.4-1.8,6.9-5.2
	c0.5-3.3-1.8-6.4-5.2-6.9C447.5,717.4,421.3,718.4,421.3,718.4L421.3,718.4z M607,773.1c1.4,3.1,5,4.4,8.1,3c3.1-1.4,4.4-5,3-8.1
	c0,0-21.7-47.4-52.5-70.9c-30.7-23.4-63.5-40-114.4-40.4c-48.9-0.4-86.4,0.4-110.7-3.4c-3.3-0.5-6.4,1.7-7,5.1
	c-0.5,3.3,1.7,6.4,5.1,7c24.6,3.9,62.7,3.2,112.5,3.6c47.7,0.3,78.4,15.9,107.1,37.9C586.9,728.7,607,773.1,607,773.1L607,773.1z
	 M654.7,853.1c1.8,2.8,5.6,3.7,8.4,1.8c2.8-1.8,3.7-5.6,1.8-8.4c0,0-24.8-38.6-36.7-58.9c-1.7-2.9-5.4-3.9-8.3-2.2
	c-2.9,1.7-3.9,5.4-2.2,8.3C629.8,814.2,654.7,853.1,654.7,853.1L654.7,853.1z M672,844.2c1.7,2.9,5.4,3.9,8.3,2.2
	c2.9-1.7,3.9-5.4,2.2-8.3c0,0-42.2-72.5-51.6-92.7c-9.8-20.9-47.5-74.5-122.5-99.7c-45.6-15.3-110.7-10.3-110.7-10.3
	c-3.4,0.3-5.9,3.2-5.6,6.6c0.3,3.4,3.2,5.9,6.6,5.6c0,0,62.3-4.9,105.9,9.7c70.4,23.6,106.1,73.7,115.3,93.3
	C629.4,770.9,672,844.2,672,844.2L672,844.2z M373.9,647.4c3.4,0.3,6.3-2.2,6.6-5.6c0.3-3.4-2.2-6.3-5.6-6.6c0,0-24-2-36.4-3.1
	c-3.4-0.3-6.3,2.2-6.6,5.5c-0.3,3.4,2.2,6.3,5.5,6.6C349.8,645.3,373.9,647.4,373.9,647.4L373.9,647.4z M340.3,610.7
	c-3.4-0.3-6.3,2.2-6.6,5.6c-0.3,3.4,2.2,6.3,5.6,6.6c0,0,74.7,6,112.6,2.1c39.3-4,73.6-19.3,98.4-54.9c26.4-37.8,42.1-82,44.5-119
	c2.2-34.7,1.6-63,27-92.9c24.9-29.3,67.9-46.2,111.9-29.2c43.9,17,63.6,57.2,61.7,91.3c-3,52-6.8,70.3-1.1,119
	c5.4,46.3,19.3,86.7,46.1,139.8c1.5,3,5.2,4.2,8.2,2.7c3-1.5,4.2-5.2,2.7-8.2c-26.1-51.5-39.6-90.7-44.9-135.7
	c-5.6-47.8-1.8-65.8,1.1-116.9c2.2-38.6-19.9-84.2-69.4-103.4c-49.4-19.1-97.7-0.2-125.6,32.7c-27.4,32.3-27.6,62.6-29.9,100
	c-2.2,35.1-17.3,76.9-42.3,112.8c-22.6,32.4-53.9,46.1-89.7,49.7C413.5,616.6,340.3,610.7,340.3,610.7L340.3,610.7z M690.5,831.5
	c1.9,2.8,5.7,3.5,8.5,1.7c2.8-1.9,3.5-5.7,1.7-8.5c0,0-39.4-58.6-57.4-98.2c-20.7-45.5-30.7-94.6-39.7-133.8
	c-5.7-25-8.1-58.4-8.1-58.4c-0.2-3.4-3.2-5.9-6.5-5.6c-3.4,0.2-5.9,3.2-5.6,6.5c0,0,2.5,34.4,8.4,60.2
	c9.1,39.9,19.4,89.8,40.5,136.1C650.5,771.9,690.5,831.5,690.5,831.5L690.5,831.5z M496.2,589.5c2.9-1.8,3.8-5.5,2-8.4
	c-1.8-2.9-5.5-3.8-8.4-2c0,0-24.9,15.3-59.6,14.6c-36.5-0.7-89.5-2.6-89.5-2.6c-3.4-0.1-6.2,2.5-6.3,5.9c-0.1,3.4,2.5,6.2,5.9,6.3
	c0,0,53.1,1.9,89.7,2.6C468.5,606.7,496.2,589.5,496.2,589.5L496.2,589.5z M708.3,821.1c1.9,2.8,5.6,3.6,8.4,1.7
	c2.8-1.9,3.6-5.6,1.7-8.4c0,0-42.9-64.9-60.7-110.8c-17.7-45.8-22.1-67.8-22.1-67.8c-0.7-3.3-3.9-5.4-7.2-4.8
	c-3.3,0.7-5.4,3.9-4.8,7.2c0,0,4.5,22.7,22.7,69.8C664.6,754.9,708.3,821.1,708.3,821.1L708.3,821.1z M726.1,810.9
	c1.9,2.8,5.7,3.5,8.5,1.5c2.8-1.9,3.5-5.7,1.5-8.5c0,0-46.1-66.7-79.5-159.4c-20.1-55.7-22.9-168.6-16.2-221.5
	c2.5-19.8,9.4-33.6,18.4-42.8c13.1-13.4,30.5-16.9,43.8-15.5c13.4,1.4,30.1,7.9,40.5,23.6c7.1,10.7,11.2,25.7,9.6,46
	c-4.3,55.8-11,75.9,7.2,152.5c18.3,76.8,54.6,133.5,54.6,133.5c1.8,2.8,5.6,3.7,8.4,1.9c2.8-1.8,3.7-5.6,1.9-8.4
	c0,0-35.3-55.2-53.1-129.8c-17.8-74.8-11.2-94.3-6.9-148.7c1.8-23.8-3.3-41.2-11.6-53.7c-12.7-19.2-33.1-27.2-49.4-29
	c-16.4-1.8-37.7,2.6-53.8,19.1c-10.5,10.7-18.8,26.7-21.8,49.8c-6.9,54.3-3.8,170.1,16.8,227.2C679.1,743,726.1,810.9,726.1,810.9
	L726.1,810.9z M654.5,287.6c3.3-0.5,5.7-3.6,5.2-6.9c-0.5-3.3-3.6-5.7-6.9-5.2c0,0-26.5,3.5-57.9,32.3
	c-30.8,28.2-48.1,59.6-52.2,117c-3.8,53.6-10.3,89.7-47.7,124.8c-30.1,28.2-71,29.2-152.4,19.6c-3.3-0.4-6.4,2-6.8,5.3
	c-0.4,3.3,2,6.4,5.3,6.8c86.8,10.2,130.1,7.3,162.2-22.8c39.9-37.4,47.5-75.7,51.6-132.8c3.8-53.4,19.7-82.7,48.3-108.9
	C631.2,291.2,654.5,287.6,654.5,287.6L654.5,287.6z M742.1,797.2c1.8,2.8,5.6,3.6,8.4,1.8c2.8-1.8,3.6-5.6,1.8-8.4
	c0,0-39.6-60.8-61.9-114.4c-22.2-53.3-34.7-139-33.8-173.9c0.8-31.7,2.9-78.3,5.9-91.5c2.6-11.5,16.7-27.1,37.6-26.1
	c20.9,1,32.4,19.5,33.2,35.1c0.9,18.4-11.6,74.4,0.9,139c12.6,64.9,36.9,124.9,68,176.7c1.7,2.9,5.5,3.8,8.4,2.1
	c2.9-1.7,3.8-5.5,2.1-8.4c-30.4-50.6-54.2-109.3-66.5-172.8c-12.4-63.8,0.2-119.1-0.7-137.3c-1.1-20.9-16.8-45.3-44.8-46.7
	c-28-1.4-46.6,20.2-50,35.6c-3.1,13.6-5.4,61.3-6.2,93.9c-0.9,35.9,11.9,124,34.8,178.8C701.8,735.3,742.1,797.2,742.1,797.2
	L742.1,797.2z M530.7,465.9c0.3-3.4-2.2-6.3-5.6-6.6s-6.3,2.2-6.6,5.6c0,0-3.6,42.7-40.3,69.3c-25,18.1-65.2,28.5-129.3,14.1
	c-3.3-0.7-6.5,1.3-7.3,4.6c-0.7,3.3,1.3,6.5,4.6,7.3c69,15.5,112.2,3.4,139.1-16.1C526.7,514.1,530.7,465.9,530.7,465.9L530.7,465.9
	z M557.9,633.7l2.7,11.7c-13.4-6.3-29.1-12.6-40.1-16.8c23.3-13.6,39.6-35,48.9-50.1c6.3,45.1,21.6,100.6,21.6,100.6
	c0.9,3.2,4.3,5.2,7.5,4.3c3.2-0.9,5.2-4.3,4.3-7.5c0,0-20-72.3-23.3-117.9c-0.2-2.8-2.3-5.1-5.1-5.6s-5.5,1-6.6,3.6
	c0,0-21.1,50.2-64.9,67.7c-2.4,0.9-3.9,3.2-3.8,5.8c0,2.5,1.7,4.8,4,5.6c0,0,41.3,14.8,63.4,27c2.1,1.2,4.7,1,6.6-0.5
	s2.8-3.9,2.3-6.2l-10.1-44c-0.5-2.1-2.1-3.8-4.2-4.5c-2.1-0.6-4.4-0.1-5.9,1.4l-9.6,9c-1.4,1.3-2.1,3.2-1.9,5.1
	c0.2,1.9,1.3,3.6,2.9,4.6L557.9,633.7L557.9,633.7z M747.5,743.7c-1.9-2.8-5.7-3.5-8.5-1.6c-2.8,1.9-3.5,5.7-1.6,8.5
	c0,0,7.4,11,20.2,32.5c1.7,2.9,5.5,3.8,8.4,2.1s3.8-5.5,2.1-8.4C755.1,755,747.5,743.7,747.5,743.7L747.5,743.7z M646.4,246.1
	c3.3-0.7,5.4-4,4.7-7.3c-0.7-3.3-4-5.4-7.3-4.7c0,0-42.2,9.1-84,48.2c-46.9,43.8-53.5,100.1-58,135c-1.9,14.2-2.3,31.5-5.6,48.5
	c-4.7,23.9-15.2,47.4-45.2,59.8c-51.5,21.2-97,3.1-97,3.1c-3.1-1.2-6.7,0.3-7.9,3.4c-1.3,3.1,0.3,6.7,3.4,7.9c0,0,49.8,20,106.2-3.1
	c34.7-14.3,47.2-41.1,52.6-68.7c3.4-17.3,3.9-34.8,5.8-49.3c4.3-32.9,10-86.3,54.3-127.7C607.1,254.8,646.4,246.1,646.4,246.1
	L646.4,246.1z M357,508L357,508c-3.3-0.6-6.5,1.7-7,5c-0.6,3.3,1.7,6.5,5,7c0,0,27.4,4.6,56.4,2.2c20.1-1.7,40.8-6.8,54.4-18.5
	c2.6-2.2,2.8-6,0.6-8.6c-2.2-2.6-6-2.8-8.6-0.6c-11.8,10.1-30,14.1-47.5,15.6C383,512.3,357,508,357,508L357,508z M720.6,636
	c-1.2-3.1-4.8-4.7-7.9-3.4c-3.1,1.2-4.7,4.8-3.4,7.9c0,0,28.5,72.5,62.5,125.3c1.8,2.8,5.6,3.6,8.4,1.8c2.8-1.8,3.6-5.6,1.8-8.4
	C748.6,707.2,720.6,636,720.6,636L720.6,636z M708,480.8c-0.1,3.4,2.5,6.2,5.9,6.3c3.4,0.1,6.2-2.5,6.3-5.9c0,0,0.8-21.5,2.4-36.8
	c0.9-8.2,1.9-18.5,0.2-27.4c-1.9-10.6-7.3-19.4-19-22.6c-7.2-2-13.1-1.2-17.9,1.1c-10.1,4.9-15.4,18.3-16.5,32.1
	c-1.7,22.8-4.5,60.7-3.1,92.7c1.1,26.1,8.6,110.6,62.7,214c1.6,3,5.2,4.1,8.2,2.6c3-1.6,4.1-5.2,2.6-8.2
	c-52.7-101-60.2-183.4-61.3-208.9c-1.4-31.4,1.4-68.8,3.1-91.2c0.9-12.6,5-26.2,19-22.4c6.6,1.8,9.2,7,10.3,13
	c1.4,7.7,0.4,16.7-0.4,23.9C708.8,458.7,708,480.8,708,480.8L708,480.8z M469.4,455.4c0.3-3.3-2.1-6.3-5.5-6.6
	c-3.4-0.3-6.3,2.1-6.6,5.5c0,0-3.2,34.1-36.8,35.1c-38.3,1.2-56.4-1.4-56.4-1.4c-3.3-0.5-6.4,1.8-6.9,5.2c-0.5,3.3,1.8,6.4,5.2,6.9
	c0,0,18.8,2.7,58.5,1.5C465.1,500.2,469.4,455.4,469.4,455.4L469.4,455.4z M787.8,752.3c1.9,2.8,5.7,3.5,8.5,1.6
	c2.8-1.9,3.5-5.7,1.6-8.5c0,0-34.8-51.3-59.6-125.9c-1.1-3.2-4.5-4.9-7.7-3.9c-3.2,1.1-4.9,4.5-3.9,7.7
	C752.1,699.8,787.8,752.3,787.8,752.3L787.8,752.3z M811.2,384.7c0.8,3.3,4.1,5.2,7.4,4.4c3.3-0.8,5.2-4.1,4.4-7.4
	c0,0-8.2-32.4-37.9-59.6c-29.6-27.1-63.8-35.4-100.2-32.7c-36.5,2.7-71.9,22.8-92.3,52.6c-20,29.3-29.2,50.6-30.1,105.7
	c-0.7,43.9-24.5,89.4-56.2,120.1c-2.4,2.3-2.5,6.2-0.1,8.6c2.3,2.4,6.2,2.5,8.6,0.1c33.9-32.8,59.2-81.7,59.9-128.7
	c0.8-51.6,9.2-71.6,28-99c18.4-26.9,50.2-45,83.1-47.4c33-2.4,64.2,4.9,91.1,29.5C803.7,355.6,811.2,384.7,811.2,384.7L811.2,384.7z
	 M373.1,468.4L373.1,468.4c-3.4-0.1-6.2,2.5-6.3,5.9c-0.1,3.4,2.5,6.2,5.9,6.3c0,0,24.9,0.9,45-3.3c9.6-2,18-5.3,23-10
	c6.7-6.3,9.9-15.5,11.1-25.7c1.5-13.1-0.2-28.3,0.9-40.1c1.9-19.1,11-75.3,41.3-116.5c30.4-41.2,87.4-100.2,177.8-107.2
	c40.2-3.1,108.9,3.5,165.4,42.3c55.8,38.3,68.1,72.2,68.1,72.2c1.1,3.2,4.6,4.8,7.8,3.7c3.2-1.1,4.8-4.6,3.7-7.8
	c0,0-12.8-37-72.7-78.2c-59.2-40.7-131.1-47.7-173.2-44.4C575.8,173,515.9,234.5,484,277.8c-31.9,43.3-41.6,102.4-43.6,122.5
	c-1,9.9,0.1,22.1-0.4,33.6c-0.4,9.6-1.7,18.8-7.8,24.5c-5,4.7-15.1,6.9-25.2,8.3C390.3,469.1,373.1,468.4,373.1,468.4L373.1,468.4z
	 M615.5,611c0.6,3.3,3.7,5.6,7,5c3.3-0.6,5.6-3.7,5-7c0,0-8-48.2-12-78.8c-4-30.3,1.1-74.9,3.5-109.8c2.3-33,24.5-55.9,24.5-55.9
	c2.3-2.4,2.3-6.3-0.1-8.6c-2.4-2.3-6.3-2.3-8.6,0.1c0,0-25.3,26-28,63.5c-2.5,35.7-7.5,81.2-3.4,112.2
	C607.5,562.6,615.5,611,615.5,611L615.5,611z M408.2,459.6c3.1-1.2,4.7-4.8,3.4-7.9c-1.2-3.1-4.8-4.7-7.9-3.4c0,0-11.4,4.5-26.7,5.7
	c-3.4,0.3-5.9,3.2-5.6,6.6c0.3,3.4,3.2,5.9,6.6,5.6C395.3,464.7,408.2,459.6,408.2,459.6L408.2,459.6z M395.8,427.3
	c-5.7,0.9-14.4,3.1-14.4,3.1c-3.3,0.8-5.2,4.2-4.4,7.4c0.8,3.3,4.2,5.2,7.4,4.4c0,0,12.1-3.3,15-3.1c1.7,0.1,3.5-0.4,5.1-2.1
	c0.9-0.9,1.9-2.6,2.7-5.1c2.4-7.6,4.1-26.8,4.1-26.8c0.3-3.4-2.2-6.3-5.5-6.6c-3.4-0.3-6.3,2.2-6.6,5.5c0,0-0.9,11-2.4,19.1
	C396.5,424.5,396.1,426.1,395.8,427.3L395.8,427.3z M467.3,483.8c-1.9,2.8-1.3,6.6,1.5,8.5c2.8,1.9,6.6,1.3,8.5-1.5
	c0,0,14.1-19.9,14.7-51.8c0.5-29,1-53,14.7-85.7c13.8-32.9,26.4-52.4,26.4-52.4c1.8-2.8,1-6.6-1.8-8.4c-2.8-1.8-6.6-1-8.4,1.8
	c0,0-13.2,20.2-27.5,54.4c-14.4,34.4-15.1,59.7-15.7,90.2C479.2,466.4,467.3,483.8,467.3,483.8L467.3,483.8z M828.3,701.4
	c1.6,3,5.3,4,8.3,2.4c3-1.6,4-5.3,2.4-8.3c0,0-34.1-62.3-45.3-112.6c-0.7-3.3-4-5.4-7.3-4.6c-3.3,0.7-5.4,4-4.6,7.3
	C793.3,637.3,828.3,701.4,828.3,701.4L828.3,701.4z M702.8,418.9c0.6-3.3-1.6-6.5-4.9-7.1c-3.3-0.6-6.5,1.6-7.1,4.9
	c0,0-16,86.1,12.8,204.3c0.8,3.3,4.1,5.3,7.4,4.5c3.3-0.8,5.3-4.1,4.5-7.4C687.4,502.9,702.8,418.9,702.8,418.9L702.8,418.9z
	 M439.5,354.8c0.6-3.3-1.6-6.5-4.9-7.1s-6.5,1.6-7.1,4.9c0,0-10.1,54.8-11.8,89.4c-0.2,3.4,2.4,6.2,5.8,6.4c3.4,0.2,6.2-2.4,6.4-5.8
	C429.5,408.7,439.5,354.8,439.5,354.8L439.5,354.8z M721.5,603.3c0.6,3.3,3.8,5.5,7.1,4.8c3.3-0.6,5.5-3.8,4.8-7.1
	c0,0-11.9-62.1-13.2-94.7c-0.1-3.4-3-6-6.3-5.8c-3.4,0.1-6,3-5.8,6.3C709.5,540.1,721.5,603.3,721.5,603.3L721.5,603.3z
	 M457.9,436.3c0.1,3.4,2.9,6,6.3,5.9c3.4-0.1,6-2.9,5.9-6.3c0,0-0.7-29.2,10.5-76c11.8-49.2,49.8-91.5,78.3-115.7
	c28.5-24.2,92.1-51.9,152.4-47c60.6,5,112.7,31.2,155.9,76.5c43,45.1,59.1,119.8,53.1,168.6c-6.3,51.7-3.7,79.1,2.1,97.5
	c1,3.2,4.5,5,7.7,4c3.2-1,5-4.5,4-7.7c-5.6-17.4-7.6-43.4-1.6-92.3c6.3-51.8-10.8-130.8-56.4-178.6c-45.4-47.5-100.2-75-163.8-80.2
	c-63.8-5.3-131.2,24.2-161.3,49.8c-30.1,25.5-69.8,70.3-82.3,122.1C457,405.9,457.9,436.3,457.9,436.3L457.9,436.3z M854.1,660.2
	c1.5,3,5.1,4.3,8.1,2.9c3-1.5,4.3-5.1,2.9-8.1c0,0-27.5-57.2-34-93.8c-6.5-36.5-8-86.1-6.3-102.3c1.8-16.9,4-40.3,2.6-52
	c-0.4-3.3-3.4-5.8-6.7-5.4c-3.3,0.4-5.8,3.4-5.4,6.7c1.3,11.1-1,33.3-2.6,49.4c-1.8,16.7-0.3,67.9,6.4,105.7
	C825.9,601,854.1,660.2,854.1,660.2L854.1,660.2z M772.9,278.2c2.9,1.8,6.6,0.9,8.4-1.9c1.8-2.9,0.9-6.6-1.9-8.4
	c0,0-42-26.5-104.6-18.5c-62.4,7.9-101,39.1-124.7,78.1c-23.3,38.5-28.3,83.4-28.9,119.4c-0.1,3.4,2.6,6.1,6,6.2
	c3.4,0.1,6.1-2.6,6.2-6c0.6-34.1,5-76.8,27.2-113.3c21.9-36.2,57.9-65,115.8-72.3C734,254.1,772.9,278.2,772.9,278.2L772.9,278.2z
	 M867.2,639.9c1.3,3.1,4.9,4.6,8,3.3c3.1-1.3,4.6-4.9,3.3-8c0,0-21.2-51-26.9-78.7c-5.6-27.6-7.9-71-5.4-98.8
	c2.6-29.2,7.2-57-5.3-90.1c-12.6-33.4-29.5-53.6-55.4-72.2c-26-18.6-66.7-33.9-114.4-24.8c-3.3,0.6-5.5,3.8-4.9,7.1
	c0.6,3.3,3.8,5.5,7.1,4.9c43.8-8.3,81.2,5.7,105,22.8c23.9,17.1,39.4,35.8,51.1,66.6c11.8,31.1,7,57.3,4.6,84.7
	c-2.6,28.8-0.3,73.8,5.6,102.4C845.4,587.4,867.2,639.9,867.2,639.9L867.2,639.9z M777.1,564.7c0.6,3.3,3.8,5.5,7.1,4.9
	c3.3-0.6,5.5-3.8,4.9-7.1c0,0-10-54.6-6.7-98.3c3.5-46.6,12-85.8-35.4-116.9c-48.5-31.8-92.1-5-92.1-5c-2.9,1.8-3.8,5.5-2,8.4
	c1.8,2.9,5.5,3.8,8.4,2c0,0,37.4-22.6,79,4.8c42.7,28,33.1,63.8,29.9,105.8C766.8,508.3,777.1,564.7,777.1,564.7L777.1,564.7z
	 M879.6,617.8c1.2,3.1,4.7,4.7,7.9,3.5c3.1-1.2,4.7-4.7,3.5-7.9c0,0-18.5-47.8-21.9-79.2c-3.4-31.6-2.7-76.3,1.3-104.2
	c4.3-29.5-8.6-109.9-72.1-150.3c-2.8-1.8-6.6-1-8.4,1.9c-1.8,2.8-1,6.6,1.9,8.4c58.5,37.2,70.5,111.1,66.6,138.3
	c-4.2,28.7-4.9,74.8-1.4,107.3C860.5,568.1,879.6,617.8,879.6,617.8L879.6,617.8z M892.5,592.6c1.2,3.2,4.7,4.7,7.8,3.6
	c3.2-1.2,4.7-4.7,3.6-7.8c0,0-16.7-44.4-16.9-89.5c-0.3-46.8,9.1-88.8-6-138c-15-49-52.9-103.5-128.1-126.6
	c-49.7-15.2-87.5-5.3-87.5-5.3c-3.3,0.8-5.2,4.2-4.4,7.4c0.8,3.3,4.2,5.2,7.4,4.4c0,0,34.9-8.9,80.9,5.2
	c70.4,21.6,105.9,72.6,120,118.5c14.7,48,5.2,88.9,5.5,134.5C875.1,546.2,892.5,592.6,892.5,592.6L892.5,592.6z M905.8,565.6
	c0.7,3.3,4,5.3,7.3,4.6s5.3-4,4.6-7.3c0,0-9.1-40.1-9.8-67c-0.1-3.4-2.9-6-6.3-5.9c-3.4,0.1-6,2.9-5.9,6.3
	C896.4,524.2,905.8,565.6,905.8,565.6L905.8,565.6z M586.4,251.1c2.8-1.9,3.6-5.6,1.7-8.4c-1.9-2.8-5.6-3.6-8.4-1.7
	c0,0-24,15.9-45.9,38.3c-2.4,2.4-2.3,6.3,0.1,8.6c2.4,2.4,6.3,2.3,8.6-0.1C563.5,266.3,586.4,251.1,586.4,251.1L586.4,251.1z
	 M895.9,471.3c-0.4,3.3,2.1,6.4,5.4,6.7c3.3,0.4,6.4-2.1,6.7-5.4c0,0,3.8-35.8,3.3-59.3c-0.6-23.9-9.2-77.2-42.6-122.2
	c-33.4-45-71.7-68.3-126.1-81.3c-50.7-12.2-110.2-1.1-149,22.7c-2.9,1.8-3.8,5.5-2,8.4c1.8,2.9,5.5,3.8,8.4,2
	c36.5-22.4,92.3-32.7,139.8-21.2c51.4,12.4,87.6,34.3,119.2,76.8c31.5,42.4,39.7,92.7,40.2,115.3
	C899.7,436.5,895.9,471.3,895.9,471.3L895.9,471.3z M925,303.6c-1.6-3-5.3-4.1-8.3-2.5c-3,1.6-4.1,5.3-2.5,8.3
	c0,0,22.8,42.4,26.7,89.1c3.3,39.7-3.4,67.8-3.2,88c0,3.4,2.8,6.1,6.2,6c3.4,0,6.1-2.8,6-6.2c-0.2-20.4,6.5-48.7,3.2-88.9
	C949,348.2,925,303.6,925,303.6L925,303.6z M664.6,155.4c3.3-0.5,5.6-3.6,5.1-6.9c-0.5-3.3-3.6-5.6-6.9-5.1c0,0-20.3,3-44.3,11
	c-3.2,1.1-4.9,4.5-3.9,7.7c1.1,3.2,4.5,4.9,7.7,3.9C645.2,158.3,664.6,155.4,664.6,155.4L664.6,155.4z M956,360.3
	c0.7,3.3,4,5.3,7.3,4.6c3.3-0.7,5.3-4,4.6-7.3c0,0-21.5-95.2-99.1-155.1c-85.8-66.2-184.6-59.2-184.6-59.2c-3.4,0.2-5.9,3.2-5.7,6.5
	c0.2,3.4,3.2,5.9,6.5,5.7c0,0,94.3-6.6,176.3,56.7C935.5,269.4,956,360.3,956,360.3L956,360.3z M927.5,250.4
	c1.8,2.8,5.6,3.7,8.4,1.8c2.8-1.8,3.7-5.6,1.8-8.4c0,0-65.7-102.6-200.5-117.9c-3.3-0.4-6.4,2-6.7,5.4c-0.4,3.3,2,6.4,5.4,6.7
	C864.6,152.7,927.5,250.4,927.5,250.4L927.5,250.4z"/>
</svg>
