<?xml version="1.0" encoding="utf-8"?>
<!-- Generator: Adobe Illustrator 18.0.0, SVG Export Plug-In . SVG Version: 6.00 Build 0)  -->
<!DOCTYPE svg PUBLIC "-//W3C//DTD SVG 1.1//EN" "http://www.w3.org/Graphics/SVG/1.1/DTD/svg11.dtd">
<svg version="1.1" id="Layer_1" xmlns="http://www.w3.org/2000/svg" xmlns:xlink="http://www.w3.org/1999/xlink" x="0px" y="0px"
	 viewBox="0 0 1300 703.8" enable-background="new 0 0 1300 703.8" xml:space="preserve">
<g>
	<defs>
		<path id="SVGID_48_" d="M656.5,111.5L437.2,222v62.7l119.4,68l107-45.3l-81.4-51.1l67.7-35.9l212.8,117V231.7L656.5,111.5z
			 M636.4,396.5l81.4,51.1l-67.7,35.9l-212.8-117v105.7l206.2,120.2l219.3-110.5v-62.7l-119.4-68L636.4,396.5z"/>
	</defs>
	<clipPath id="SVGID_1_">
		<use xlink:href="#SVGID_48_"  overflow="visible"/>
	</clipPath>
	<path clip-path="url(#SVGID_1_)" fill-rule="evenodd" clip-rule="evenodd" fill="#1A43BF" d="M396.7,566.2c-0.8,2.9,0.8,6,3.8,6.8
		c2.9,0.8,6-0.8,6.8-3.8c0,0,3-10.4-3.8-18.5c-7.8-9.2-19.4-8-19.4-8c-3,0.3-5.2,3-4.9,6.1c0.3,3,3,5.2,6.1,4.9c0,0,5.8-0.6,9.8,4.1
		C398.1,561.5,396.7,566.2,396.7,566.2L396.7,566.2z M418.8,593.2c-0.5,3,1.6,5.8,4.6,6.3c3,0.5,5.8-1.6,6.3-4.6
		c0,0,5.5-35-13.3-56.6c-16.2-18.6-49.8-21.1-49.8-21.1c-3-0.2-5.7,2.1-5.9,5.2c-0.2,3,2.1,5.7,5.2,5.9c0,0,28.5,1.6,42.2,17.3
		C423.8,563.7,418.8,593.2,418.8,593.2L418.8,593.2z M439.5,606.4c0.4,3,3.1,5.2,6.1,4.8c3-0.4,5.2-3.1,4.8-6.1
		c0,0-2.8-22.9-3.9-28.8c-0.6-3-3.5-4.9-6.5-4.4c-3,0.6-4.9,3.5-4.4,6.5C436.8,584.1,439.5,606.4,439.5,606.4L439.5,606.4z
		 M433.2,554.3c0.3,3,3.1,5.2,6.1,4.9c3-0.3,5.2-3.1,4.9-6.1c0,0-3-28.3-31.3-40.2c-25.4-10.7-51.5-19-51.5-19
		c-2.9-0.9-6,0.7-6.9,3.6s0.7,6,3.6,6.9c0,0,25.6,8.2,50.5,18.7C430.7,532.3,433.2,554.3,433.2,554.3L433.2,554.3z M460.4,615.2
		c0.3,3,3.1,5.2,6.1,4.9c3-0.3,5.2-3.1,4.9-6.1c0,0-4-34.7-7.2-54.2c-3.5-20.8-8.7-51.4-42.5-64.8c-31.6-12.6-67.3-24.2-67.3-24.2
		c-2.9-0.9-6,0.6-7,3.5c-0.9,2.9,0.6,6,3.5,7c0,0,35.3,11.6,66.7,24c29.1,11.6,32.7,38.5,35.7,56.4
		C456.5,580.8,460.4,615.2,460.4,615.2L460.4,615.2z M482,624.3c0.5,3,3.3,5.1,6.3,4.6c3-0.5,5.1-3.3,4.6-6.3
		c0,0-7.1-44.9-10.8-66.2c-4-22.6-6.7-52-44.1-73.2c-35.4-20-66.3-23.8-87-34.3c-2.7-1.4-6-0.3-7.4,2.4c-1.4,2.7-0.3,6,2.4,7.4
		c20.6,10.4,51.3,14.1,86.5,34c33.3,18.8,35.1,45.4,38.6,65.5C475,579.5,482,624.3,482,624.3L482,624.3z M389,454.4
		c2.9,1.1,6-0.4,7.1-3.2c1.1-2.9-0.4-6-3.2-7.1c0,0-28.4-10.6-42.9-17.3c-2.8-1.3-6-0.1-7.3,2.7c-1.3,2.8-0.1,6,2.7,7.3
		C360,443.7,389,454.4,389,454.4L389,454.4z M462.4,477.2c-2.6-1.6-6-0.8-7.6,1.8c-1.6,2.6-0.8,6,1.8,7.6c0,0,26,16.5,33.1,60
		c7.6,46.6,9.4,70.3,12.9,84.1c0.7,3,3.7,4.7,6.7,4c3-0.7,4.7-3.7,4-6.7c-3.5-13.7-5.3-37.1-12.8-83.2
		C492.5,495.6,462.4,477.2,462.4,477.2L462.4,477.2z M521.6,632.6c0.6,3,3.4,5,6.4,4.4c3-0.6,5-3.4,4.4-6.4c0,0-9.8-51.9-12.3-72.3
		c-2.6-21.3-8.5-65.5-51.1-100.5c-24.2-19.9-47.6-22.7-73.7-31.9c-26.8-9.4-43.5-18.2-43.5-18.2c-2.7-1.4-6-0.4-7.5,2.3
		c-1.4,2.7-0.4,6,2.3,7.5c0,0,17.3,9.2,45,18.9c24.9,8.7,47.2,11.1,70.3,30c39.6,32.4,44.8,73.6,47.2,93.3
		C511.8,580.2,521.6,632.6,521.6,632.6L521.6,632.6z M542.3,635.7c0.6,3,3.5,5,6.5,4.4c3-0.6,5-3.5,4.4-6.5c0,0-11.3-59.4-14.8-87.5
		c-3.6-29.4-18.4-84.6-65.8-108.8c-48.1-24.5-93-37.1-117.9-49.3c-2.7-1.3-6-0.2-7.4,2.5c-1.3,2.7-0.2,6,2.5,7.4
		c24.8,12.2,69.7,24.7,117.7,49.2c43.6,22.2,56.6,73.3,59.9,100.3C530.9,575.8,542.3,635.7,542.3,635.7L542.3,635.7z M406.9,449.1
		c-2.9-0.9-6,0.6-7,3.5c-0.9,2.9,0.6,6,3.5,7c0,0,21.5,7,37.5,15.7c2.7,1.5,6,0.5,7.5-2.2c1.5-2.7,0.5-6-2.2-7.5
		C429.5,456.5,406.9,449.1,406.9,449.1L406.9,449.1z M547.2,554c0.2,3,2.9,5.3,5.9,5.1c3-0.2,5.3-2.9,5.1-5.9
		c0,0-3.5-47.1-22.2-76.7c-18.6-29.6-41.3-54-84.4-70.3c-41.4-15.7-73.5-26.9-92.8-37.8c-2.7-1.5-6-0.6-7.5,2.1
		c-1.5,2.7-0.6,6,2.1,7.5c19.7,11.1,52.2,22.5,94.3,38.5c40.4,15.3,61.5,38.2,79,65.9C544.1,510,547.2,554,547.2,554L547.2,554z
		 M562.6,636.9c0.7,3,3.6,4.9,6.6,4.2c3-0.7,4.9-3.6,4.2-6.6c0,0-8.9-40.5-12.6-61.5c-0.5-3-3.4-5-6.4-4.5c-3,0.5-5,3.4-4.5,6.4
		C553.6,596.1,562.6,636.9,562.6,636.9L562.6,636.9z M580,634.8c0.5,3,3.4,5,6.4,4.5c3-0.5,5-3.4,4.5-6.4c0,0-12.9-74.8-14.6-94.9
		c-1.8-20.8-16.8-78.2-72.5-123.2c-33.9-27.3-90.7-43.6-90.7-43.6c-2.9-0.8-6,0.9-6.8,3.8c-0.8,2.9,0.9,6,3.8,6.8
		c0,0,54.4,15.5,86.8,41.6c52.3,42.2,66.8,96,68.4,115.5C567,559.2,580,634.8,580,634.8L580,634.8z M389,373.9
		c2.8,1.3,6,0.1,7.3-2.6c1.3-2.8,0.1-6-2.6-7.3c0,0-19.8-9.3-29.9-14.1c-2.8-1.3-6-0.1-7.4,2.6c-1.3,2.8-0.1,6,2.6,7.4
		C369.3,364.6,389,373.9,389,373.9L389,373.9z M372,332.2c-2.8-1.3-6-0.1-7.3,2.7c-1.3,2.8-0.1,6,2.7,7.3c0,0,61.5,28.6,94.9,37.3
		c34.6,9,68.5,6.8,100.8-15.6c34.3-23.8,61.6-56.3,75.2-87c12.8-28.7,21.2-52.9,52.2-70.3c30.4-17,72.1-17.9,104.2,10.5
		c31.9,28.2,36,68.6,23.6,96.9c-18.9,43.2-27.9,57.6-38.4,100.6c-10,41-11,79.7-4.9,133.1c0.3,3,3.1,5.2,6.1,4.9
		c3-0.3,5.2-3.1,4.9-6.1c-5.9-51.9-5-89.4,4.6-129.3c10.3-42.3,19.2-56.4,37.8-98.8c14-32,9.7-77.7-26.4-109.6
		c-35.9-31.8-82.8-30.9-116.9-11.8c-33.4,18.8-43.1,44.5-56.9,75.5c-12.9,29.1-38.9,59.8-71.4,82.4c-29.4,20.4-60.3,22.1-91.8,14
		C432.3,360.3,372,332.2,372,332.2L372,332.2z M599.7,629.9c0.7,3,3.7,4.8,6.7,4.1c3-0.7,4.8-3.7,4.1-6.7c0,0-15-62.1-17.8-101.4
		c-3.2-45.1,3.7-89.9,8.5-126c3-23,11.5-52.1,11.5-52.1c0.9-2.9-0.8-6-3.8-6.8c-2.9-0.9-6,0.8-6.8,3.8c0,0-8.7,30-11.8,53.8
		c-4.8,36.7-11.8,82.3-8.5,128.2C584.5,566.7,599.7,629.9,599.7,629.9L599.7,629.9z M511,363.3c3-0.6,4.9-3.5,4.3-6.5
		c-0.6-3-3.5-4.9-6.5-4.3c0,0-26,5.1-55.2-6.3c-30.8-12.1-75.1-30.4-75.1-30.4c-2.8-1.2-6,0.2-7.2,3c-1.2,2.8,0.2,6,3,7.2
		c0,0,44.5,18.3,75.3,30.5C482.1,369.2,511,363.3,511,363.3L511,363.3z M618.1,626.7c0.7,3,3.7,4.8,6.6,4.1c3-0.7,4.8-3.7,4.1-6.6
		c0,0-16-68.6-16.6-113.1c-0.6-44.4,2.6-64.5,2.6-64.5c0.5-3-1.6-5.8-4.6-6.3c-3-0.5-5.8,1.6-6.3,4.6c0,0-3.4,20.7-2.8,66.4
		C601.8,556.7,618.1,626.7,618.1,626.7L618.1,626.7z M636.4,623.6c0.8,3,3.8,4.7,6.7,4c3-0.8,4.7-3.8,4-6.7
		c0,0-18.1-71.1-17.3-160.4c0.5-53.5,33.6-150.3,56-193.1c8.4-16,18.6-25.6,29.1-30.6c15.3-7.3,31.2-4.8,42,0.6
		c10.9,5.4,23.1,16.2,27,32.8c2.6,11.3,1.4,25.3-6.4,42.1c-21.3,46-33.3,60.9-41.9,131.7c-8.6,70.9,4.3,130.5,4.3,130.5
		c0.6,3,3.6,4.9,6.6,4.2c3-0.6,4.9-3.6,4.2-6.6c0,0-12.5-57.9-4.1-126.9c8.4-69.1,20.2-83.5,41-128.4c9-19.6,10.2-36,7.1-49.2
		c-4.7-20.3-19.5-33.5-32.8-40.1c-13.3-6.6-32.8-9.7-51.7-0.7c-12.3,5.8-24.4,16.7-34.2,35.4c-23,43.9-56.8,143.2-57.3,198.1
		C617.9,551.2,636.4,623.6,636.4,623.6L636.4,623.6z M740.5,157c3,0.6,5.9-1.2,6.6-4.2c0.6-3-1.2-5.9-4.2-6.6c0,0-23.6-5.4-59.3,9.2
		c-35,14.3-59.6,35.4-81.2,82.9c-20.1,44.3-37,72.9-79.8,90.9c-34.4,14.5-69.4,2.4-135.5-31.4c-2.7-1.4-6-0.3-7.4,2.4
		c-1.4,2.7-0.3,6,2.4,7.4c70.4,36,108.1,47.1,144.8,31.7c45.7-19.2,64.1-49.3,85.6-96.5c20.1-44.1,42.7-63.9,75.3-77.2
		C719.5,152.7,740.5,157,740.5,157L740.5,157z M654.3,617c0.7,3,3.6,4.8,6.6,4.2c3-0.7,4.8-3.6,4.2-6.6c0,0-14.5-64.1-16.5-116.6
		c-2-52.2,14.3-128.9,26-158.2c10.7-26.7,27.1-65.5,33.8-75.8c5.8-8.9,22.7-17.7,40.1-10.3c17.4,7.5,21.4,26.8,17.1,40.3
		c-5,15.9-33.3,59.5-43,118.2c-9.7,59.1-8,117.7,2.1,171.4c0.6,3,3.4,5,6.4,4.4c3-0.6,5-3.4,4.4-6.4c-9.9-52.5-11.6-109.8-2-167.6
		c9.6-58,37.7-101,42.6-116.7c5.7-18.1,0-43.8-23.3-53.8c-23.4-10-45.9,2.4-53.7,14.4c-6.9,10.6-23.9,50.4-34.8,77.7
		c-12.1,30.2-28.9,109-26.8,162.7C639.6,551.8,654.3,617,654.3,617L654.3,617z M579.2,269.3c1.3-2.8,0.1-6-2.7-7.3s-6-0.1-7.3,2.7
		c0,0-16.5,35.1-56,46.1c-27,7.5-64.3,3.7-114.2-28.8c-2.6-1.7-6-0.9-7.6,1.6c-1.7,2.6-0.9,6,1.6,7.6
		c53.7,34.9,94.1,38.2,123.1,30.1C560.7,308.9,579.2,269.3,579.2,269.3L579.2,269.3z M549.5,420.3l-1.4,10.8
		c-9.4-9.6-20.8-19.9-28.7-26.9c24.1-4.2,44.6-17.2,57.3-27.1c-8.9,40.2-13.4,92.1-13.4,92.1c-0.3,3,2,5.7,5,6c3,0.3,5.7-2,6-5
		c0,0,5.8-67.6,17.3-107.4c0.7-2.4-0.4-5.1-2.6-6.3c-2.2-1.3-5-0.8-6.8,1c0,0-33.8,36-76.4,37c-2.3,0.1-4.3,1.5-5.1,3.7
		c-0.8,2.2-0.1,4.6,1.7,6c0,0,30.4,25.6,45.3,42.9c1.4,1.6,3.7,2.3,5.8,1.7c2.1-0.6,3.6-2.4,3.9-4.6l5.3-40.5c0.3-2-0.6-3.9-2.1-5.1
		c-1.6-1.2-3.7-1.5-5.5-0.7l-11,4.6c-1.6,0.7-2.8,2.1-3.2,3.7c-0.4,1.7,0,3.5,1.1,4.8L549.5,420.3L549.5,420.3z M675.8,573.4
		c-0.7-3-3.7-4.8-6.7-4.1c-3,0.7-4.8,3.7-4.1,6.7c0,0,2.8,11.7,6.9,33.9c0.5,3,3.4,5,6.4,4.4c3-0.5,5-3.4,4.4-6.4
		C678.6,585.3,675.8,573.4,675.8,573.4L675.8,573.4z M746.7,119.2c3,0.4,5.8-1.7,6.2-4.7c0.4-3-1.7-5.8-4.7-6.2
		c0,0-38.7-5.6-86.5,14.5c-53.6,22.4-76.9,68.1-91.8,96.3c-6,11.5-11.9,26-20.1,39.4c-11.5,18.8-27.8,35.4-57.2,36.5
		c-50.4,1.7-83.3-27.9-83.3-27.9c-2.3-2-5.8-1.9-7.8,0.4c-2,2.3-1.9,5.8,0.4,7.8c0,0,36,32.7,91.1,30.8c33.9-1.2,53-20,66.2-41.7
		c8.3-13.6,14.3-28.3,20.4-40c14-26.6,35.7-70.1,86.3-91.2C710.6,114.2,746.7,119.2,746.7,119.2L746.7,119.2z M418.6,250.3
		L418.6,250.3c-2.6-1.5-6-0.6-7.5,2c-1.5,2.6-0.6,6,2,7.5c0,0,21.8,12.5,47.2,19.6c17.6,4.9,36.8,7.1,52,1.5
		c2.9-1.1,4.3-4.2,3.3-7.1c-1.1-2.9-4.2-4.3-7.1-3.3c-13.2,4.9-29.9,2.5-45.2-1.7C439.3,262.1,418.6,250.3,418.6,250.3L418.6,250.3z
		 M686.8,473.5c-0.1-3-2.6-5.5-5.6-5.4c-3,0.1-5.5,2.6-5.4,5.6c0,0,1.3,70.5,13.6,126c0.7,3,3.6,4.9,6.6,4.2c3-0.7,4.9-3.6,4.2-6.6
		C688.1,542.7,686.8,473.5,686.8,473.5L686.8,473.5z M725,337.7c-1.2,2.8,0.2,6,3,7.2c2.8,1.2,6-0.2,7.2-3c0,0,7.5-18,13.6-30.4
		c3.3-6.7,7.4-15.1,8.8-23.1c1.7-9.6-0.1-18.8-9-25.2c-5.5-3.9-10.7-5.2-15.5-4.7c-10.2,1-18.9,10.7-24.1,22.1
		c-8.6,18.8-23,50.1-31.9,77.7c-7.2,22.5-27.5,96.6-14.2,201.3c0.4,3,3.1,5.2,6.2,4.8c3-0.4,5.2-3.1,4.8-6.2
		c-12.9-102.3,6.7-174.6,13.8-196.6c8.7-27.1,22.9-57.9,31.4-76.4c4.8-10.4,12.5-20.6,23.2-13c5,3.6,5.6,8.9,4.6,14.3
		c-1.2,7-4.9,14.3-7.8,20.1C732.7,319.3,725,337.7,725,337.7L725,337.7z M530.5,241.1c1.3-2.7,0.2-6-2.6-7.4c-2.7-1.3-6-0.2-7.4,2.6
		c0,0-13.4,27.9-42.3,18.2c-32.8-11.1-47.4-19-47.4-19c-2.7-1.5-6-0.5-7.5,2.2c-1.5,2.7-0.5,6,2.2,7.5c0,0,15.1,8.2,49.2,19.7
		C512.8,277.8,530.5,241.1,530.5,241.1L530.5,241.1z M707.3,593.3c0.7,3,3.7,4.8,6.7,4c3-0.7,4.8-3.7,4-6.7
		c0,0-13.4-54.5-10.9-125.6c0.1-3-2.3-5.6-5.3-5.7c-3-0.1-5.6,2.3-5.7,5.3C693.5,537.5,707.3,593.3,707.3,593.3L707.3,593.3z
		 M842.9,288.7c-0.3,3,1.9,5.8,4.9,6.1c3,0.3,5.8-1.9,6.1-4.9c0,0,3.3-30.1-13.4-62.5c-16.6-32.3-43-50.1-74.7-59.3
		c-31.8-9.2-68.2-3.3-94.9,15.6c-26.2,18.5-40.7,33.8-58.8,80.2c-14.4,37.1-49,68.2-85.5,84.2c-2.8,1.2-4.1,4.5-2.8,7.3
		c1.2,2.8,4.5,4.1,7.3,2.8c39.1-17.2,75.9-50.7,91.4-90.3c16.9-43.5,30.4-57.9,54.9-75.2c24.1-17,56.8-22.3,85.4-14
		c28.8,8.4,52.9,24.4,68,53.8C845.7,261.7,842.9,288.7,842.9,288.7L842.9,288.7z M444.7,221.8L444.7,221.8c-2.8-1.2-6,0.2-7.2,3
		c-1.2,2.8,0.2,6,3,7.2c0,0,20.9,8.7,39.2,11.4c8.8,1.3,17,1.2,22.6-1.2c7.7-3.3,13.3-10,17.5-18.4c5.4-10.7,8.7-24.1,13.4-33.7
		c7.6-15.6,33-60.5,71.7-85.9c38.7-25.4,105.7-57.5,184.7-35c35.1,10,91.3,37.3,127,88c35.3,50.1,35.1,82.8,35.1,82.8
		c0,3,2.4,5.6,5.4,5.6c3,0,5.6-2.4,5.6-5.4c0,0,0.8-35.4-37.1-89.3c-37.4-53.2-96.2-81.8-133-92.3C709.8,34.9,639.5,68.3,598.9,95
		c-40.7,26.7-67.6,73.8-75.6,90.3c-3.9,8.1-6.9,18.8-10.9,28.4C509,221.7,505,229,498,232c-5.8,2.4-15,1.1-24-0.9
		C459.1,227.8,444.7,221.8,444.7,221.8L444.7,221.8z M605.5,419.2c-0.6,3,1.4,5.9,4.4,6.5c3,0.6,5.9-1.4,6.5-4.4
		c0,0,8.4-43.4,14.6-70.6c6.2-27,24.5-63.2,37.6-92.1c12.4-27.3,38.4-39.7,38.4-39.7c2.8-1.3,3.9-4.6,2.6-7.4
		c-1.3-2.8-4.6-3.9-7.4-2.6c0,0-29.7,14.1-43.7,45.1c-13.4,29.5-32,66.6-38.3,94.2C613.9,375.5,605.5,419.2,605.5,419.2L605.5,419.2
		z M477.2,225.3c3-0.1,5.5-2.6,5.4-5.6c-0.1-3-2.6-5.5-5.6-5.4c0,0-11.1,0.2-24.4-3.5c-2.9-0.8-6,0.9-6.8,3.8
		c-0.8,2.9,0.9,6,3.8,6.8C464.7,225.7,477.2,225.3,477.2,225.3L477.2,225.3z M477,194c-5.1-1-13.2-1.9-13.2-1.9
		c-3-0.3-5.8,1.9-6.1,4.9c-0.3,3,1.9,5.8,4.9,6.1c0,0,11.3,1.1,13.7,2.1c1.4,0.6,3.1,0.8,5-0.1c1-0.5,2.5-1.6,3.9-3.5
		c4.4-5.7,11.9-21.5,11.9-21.5c1.3-2.8,0.1-6-2.6-7.3c-2.8-1.3-6-0.1-7.3,2.6c0,0-4.3,9-8.1,15.5C478.4,191.9,477.6,193.1,477,194
		L477,194z M519.8,264.5c-2.5,1.7-3.1,5.2-1.4,7.7c1.7,2.5,5.2,3.1,7.7,1.4c0,0,18.3-12.5,28.8-39.3c9.6-24.4,17.6-44.7,39.5-68.1
		c22.1-23.6,38.9-36.1,38.9-36.1c2.4-1.8,3-5.3,1.1-7.7c-1.8-2.4-5.3-3-7.7-1.1c0,0-17.6,13-40.4,37.5c-23,24.6-31.6,45.9-41.7,71.6
		C535.4,253.5,519.8,264.5,519.8,264.5L519.8,264.5z M757.7,562.9c0.4,3,3.2,5.1,6.3,4.7c3-0.4,5.1-3.2,4.7-6.3
		c0,0-9.3-63.6-3-109.8c0.4-3-1.7-5.8-4.7-6.2c-3-0.4-5.8,1.7-6.2,4.7C748.1,497.5,757.7,562.9,757.7,562.9L757.7,562.9z
		 M740.1,283.6c1.6-2.6,0.7-6-1.9-7.6c-2.6-1.6-6-0.7-7.6,1.9c0,0-40.7,68.1-53.5,177.4c-0.4,3,1.8,5.8,4.8,6.1
		c3,0.4,5.8-1.8,6.1-4.8C700.6,350.1,740.1,283.6,740.1,283.6L740.1,283.6z M536.8,146.3c1.6-2.6,0.7-6-1.9-7.6s-6-0.7-7.6,1.9
		c0,0-25.9,43.3-38.2,72.2c-1.2,2.8,0.1,6,2.9,7.2c2.8,1.2,6-0.1,7.2-2.9C511.4,188.8,536.8,146.3,536.8,146.3L536.8,146.3z
		 M697.9,446c-0.5,3,1.5,5.9,4.5,6.4c3,0.5,5.9-1.5,6.4-4.5c0,0,9.5-56.4,18.6-84.6c0.9-2.9-0.6-6-3.5-7c-2.9-0.9-6,0.6-7,3.5
		C707.6,388.5,697.9,446,697.9,446L697.9,446z M526.8,221.2c-1,2.9,0.6,6,3.4,7c2.9,1,6-0.6,7-3.4c0,0,8.6-25,32.8-61.2
		c25.5-38.1,71.1-62,102.9-73.5c31.8-11.5,94.5-15.1,144.1,8.1c49.8,23.3,85.8,62,108.2,114.1c22.3,51.8,12.5,120.3-8,159.9
		c-21.7,41.9-28.1,66-28.9,83.4c-0.1,3,2.2,5.6,5.3,5.8c3,0.1,5.6-2.2,5.8-5.3c0.8-16.5,7.2-39.2,27.7-78.9
		c21.7-41.9,32-114.4,8.4-169.3c-23.5-54.6-61.4-95.2-113.7-119.7c-52.5-24.6-118.9-20.7-152.6-8.5c-33.5,12.2-81.4,37.6-108.3,77.7
		C535.6,195.1,526.8,221.2,526.8,221.2L526.8,221.2z M792.5,536.1c0.3,3,3,5.3,6,5c3-0.3,5.3-3,5-6c0,0-5.3-57.2,0.7-90.3
		c6-33,20.3-75.6,26.9-88.8c6.8-13.8,16.1-33,18.6-43.3c0.7-3-1.1-6-4-6.7c-3-0.7-6,1.1-6.7,4c-2.4,9.8-11.3,28-17.8,41.1
		c-6.8,13.6-21.7,57.6-27.8,91.7C787.2,477,792.5,536.1,792.5,536.1L792.5,536.1z M843.9,186.3c1.9,2.4,5.3,2.9,7.7,1
		c2.4-1.9,2.9-5.3,1-7.7c0,0-27.3-35.7-82.9-48.7c-55.5-13-98.1,1.4-130.4,27c-31.9,25.3-50.3,61.9-62.2,92.2
		c-1.1,2.8,0.3,6,3.1,7.1c2.8,1.1,6-0.3,7.1-3.1c11.2-28.8,28.4-63.6,58.7-87.6c30-23.8,69.6-37,121-24.9
		C818.5,153.6,843.9,186.3,843.9,186.3L843.9,186.3z M810,523c0.1,3,2.7,5.4,5.7,5.3c3-0.1,5.4-2.7,5.3-5.7c0,0-1.9-50,2-75.3
		c3.9-25.2,15.7-62.8,26.6-85.6c11.4-23.9,24.1-46.1,23.9-78.2c-0.2-32.3-8.1-54.8-24.2-78.7c-16.2-24-45.9-49.8-89.3-57.1
		c-3-0.5-5.9,1.5-6.4,4.5c-0.5,3,1.5,5.9,4.5,6.4c39.8,6.7,67.1,30.4,81.9,52.4c14.9,22.1,22.2,42.8,22.4,72.6
		c0.2,30.1-12.1,50.9-22.8,73.3c-11.3,23.6-23.5,62.5-27.5,88.6C808.1,471.6,810,523,810,523L810,523z M757.2,430.8
		c-0.5,3,1.5,5.9,4.5,6.4c3,0.5,5.9-1.5,6.4-4.5c0,0,8.7-49.5,25.2-85.5c17.7-38.5,37.2-69,6.8-110.4
		c-31.1-42.3-76.6-33.2-76.6-33.2c-3,0.6-4.9,3.5-4.4,6.5c0.6,3,3.5,4.9,6.5,4.4c0,0,38.8-7.4,65.6,29c27.4,37.3,8,64.6-7.9,99.2
		C766.2,379.7,757.2,430.8,757.2,430.8L757.2,430.8z M827.5,508.1c0,3,2.5,5.5,5.6,5.4c3,0,5.5-2.5,5.4-5.6c0,0-0.7-46.4,6.4-74.1
		c7.1-27.9,21.7-65.6,34-88.1c12.9-23.7,27.4-96-13.8-150.3c-1.8-2.4-5.3-2.9-7.7-1.1c-2.4,1.8-2.9,5.3-1.1,7.7
		c37.9,50,24.8,116.5,12.9,138.3c-12.6,23.1-27.7,61.9-35,90.6C826.9,459.9,827.5,508.1,827.5,508.1L827.5,508.1z M846.4,490.8
		c0,3,2.5,5.5,5.5,5.5c3,0,5.5-2.5,5.5-5.5c0,0-0.2-42.9,13.8-81.3c14.5-39.8,35.7-72.5,38.3-119c2.7-46.3-12.3-104.5-68.8-147.8
		c-37.4-28.6-72.6-32.1-72.6-32.1c-3-0.3-5.7,1.9-6.1,4.9c-0.3,3,1.9,5.7,4.9,6.1c0,0,32.4,3.4,67,29.9c52.9,40.5,67,95,64.5,138.4
		c-2.6,45.4-23.6,77.1-37.7,115.9C846.2,445.9,846.4,490.8,846.4,490.8L846.4,490.8z M866.2,472.1c-0.4,3,1.7,5.8,4.7,6.2
		s5.8-1.7,6.2-4.7c0,0,4.9-36.9,12.7-59.9c1-2.9-0.6-6-3.4-7c-2.9-1-6,0.6-7,3.4C871.3,433.9,866.2,472.1,866.2,472.1L866.2,472.1z
		 M694.2,104.6c3-0.7,4.8-3.7,4.1-6.6c-0.7-3-3.7-4.8-6.6-4.1c0,0-25.4,5.9-51,18c-2.8,1.3-3.9,4.6-2.6,7.3c1.3,2.8,4.6,3.9,7.3,2.6
		C669.9,110.2,694.2,104.6,694.2,104.6L694.2,104.6z M887.5,388.9c-1.4,2.7-0.3,6,2.5,7.4c2.7,1.4,6,0.3,7.4-2.5
		c0,0,14.5-29.2,21.5-49.3c7-20.4,16.6-68.4,2.3-117.2c-14.2-48.7-39.3-80.5-81.4-108.7C800.6,92.3,746.6,83,706.1,91
		c-3,0.6-4.9,3.5-4.3,6.5c0.6,3,3.5,4.9,6.5,4.3c38-7.5,88.6,1.4,125.3,26c39.7,26.7,63.5,56.7,77,102.7
		c13.4,45.9,4.5,91.2-2.2,110.5C901.7,360.6,887.5,388.9,887.5,388.9L887.5,388.9z M965,255.8c-0.4-3-3.2-5.1-6.2-4.7
		c-3,0.4-5.1,3.2-4.7,6.2c0,0,6,43.1-5.4,84c-9.7,34.8-24.3,56.5-30.4,73.7c-1,2.9,0.5,6,3.3,7.1c2.9,1,6-0.5,7.1-3.3
		c6.2-17.4,20.9-39.3,30.7-74.4C971.3,301.2,965,255.8,965,255.8L965,255.8z M790.7,48c3,0.6,5.9-1.3,6.5-4.3c0.6-3-1.3-5.9-4.3-6.5
		c0,0-18.2-3.8-41-4.6c-3-0.1-5.6,2.3-5.7,5.3c-0.1,3,2.3,5.6,5.3,5.7C773.3,44.3,790.7,48,790.7,48L790.7,48z M973.5,313.7
		c-0.4,3,1.7,5.8,4.7,6.2c3,0.4,5.8-1.7,6.2-4.7c0,0,11.7-87.6-35.2-162.9c-51.9-83.2-138-108.4-138-108.4c-2.9-0.9-6,0.8-6.8,3.7
		c-0.9,2.9,0.8,6,3.7,6.8c0,0,82.1,24.1,131.7,103.6C984.7,230,973.5,313.7,973.5,313.7L973.5,313.7z M983.9,211.4
		c0.7,3,3.6,4.9,6.6,4.2c3-0.7,4.9-3.6,4.2-6.6c0,0-23.5-107.8-133.1-163.2c-2.7-1.4-6-0.3-7.4,2.4c-1.4,2.7-0.3,6,2.4,7.4
		C961.3,108.7,983.9,211.4,983.9,211.4L983.9,211.4z"/>
</g>
</svg>
