<?xml version="1.0" encoding="utf-8"?>
<!-- Generator: Adobe Illustrator 18.0.0, SVG Export Plug-In . SVG Version: 6.00 Build 0)  -->
<!DOCTYPE svg PUBLIC "-//W3C//DTD SVG 1.1//EN" "http://www.w3.org/Graphics/SVG/1.1/DTD/svg11.dtd">
<svg version="1.1" id="Layer_1" xmlns="http://www.w3.org/2000/svg" xmlns:xlink="http://www.w3.org/1999/xlink" x="0px" y="0px"
	 viewBox="0 0 1300 504.7" enable-background="new 0 0 1300 504.7" xml:space="preserve">
<g>
	<g>
		<defs>
			<path id="SVGID_2_" d="M618.3,104l-71.8,36.2v20.5l39.1,22.3l35.1-14.9L594,151.4l22.2-11.7l69.7,38.3v-34.6L618.3,104z
				 M611.7,197.4l26.7,16.7l-22.2,11.7l-69.7-38.3v34.6l67.6,39.4l71.8-36.2v-20.5l-39.1-22.3L611.7,197.4z"/>
		</defs>
		<clipPath id="SVGID_1_">
			<use xlink:href="#SVGID_2_"  overflow="visible"/>
		</clipPath>
		<path clip-path="url(#SVGID_1_)" fill-rule="evenodd" clip-rule="evenodd" fill="#1A43BF" d="M533.2,253c-0.3,1,0.3,2,1.2,2.2
			c1,0.3,2-0.3,2.2-1.2c0,0,1-3.4-1.2-6.1c-2.5-3-6.3-2.6-6.3-2.6c-1,0.1-1.7,1-1.6,2c0.1,1,1,1.7,2,1.6c0,0,1.9-0.2,3.2,1.3
			C533.7,251.4,533.2,253,533.2,253L533.2,253z M540.4,261.8c-0.2,1,0.5,1.9,1.5,2.1c1,0.2,1.9-0.5,2.1-1.5c0,0,1.8-11.5-4.4-18.5
			c-5.3-6.1-16.3-6.9-16.3-6.9c-1-0.1-1.9,0.7-1.9,1.7c-0.1,1,0.7,1.9,1.7,1.9c0,0,9.3,0.5,13.8,5.7
			C542.1,252.1,540.4,261.8,540.4,261.8L540.4,261.8z M547.2,266.1c0.1,1,1,1.7,2,1.6c1-0.1,1.7-1,1.6-2c0,0-0.9-7.5-1.3-9.4
			c-0.2-1-1.1-1.6-2.1-1.4c-1,0.2-1.6,1.1-1.4,2.1C546.3,258.8,547.2,266.1,547.2,266.1L547.2,266.1z M545.2,249.1
			c0.1,1,1,1.7,2,1.6c1-0.1,1.7-1,1.6-2c0,0-1-9.3-10.3-13.2c-8.3-3.5-16.9-6.2-16.9-6.2c-1-0.3-2,0.2-2.3,1.2c-0.3,1,0.2,2,1.2,2.3
			c0,0,8.4,2.7,16.6,6.1C544.3,241.9,545.2,249.1,545.2,249.1L545.2,249.1z M554.1,269c0.1,1,1,1.7,2,1.6s1.7-1,1.6-2
			c0,0-1.3-11.4-2.4-17.7c-1.1-6.8-2.8-16.8-13.9-21.2c-10.4-4.1-22.1-7.9-22.1-7.9c-0.9-0.3-2,0.2-2.3,1.2c-0.3,0.9,0.2,2,1.2,2.3
			c0,0,11.6,3.8,21.8,7.9c9.5,3.8,10.7,12.6,11.7,18.5C552.8,257.7,554.1,269,554.1,269L554.1,269z M561.1,272
			c0.2,1,1.1,1.7,2.1,1.5c1-0.2,1.7-1.1,1.5-2.1c0,0-2.3-14.7-3.5-21.7c-1.3-7.4-2.2-17-14.4-24c-11.6-6.6-21.7-7.8-28.5-11.2
			c-0.9-0.5-2-0.1-2.4,0.8c-0.5,0.9-0.1,2,0.8,2.4c6.7,3.4,16.8,4.6,28.3,11.2c10.9,6.2,11.5,14.9,12.7,21.4
			C558.8,257.3,561.1,272,561.1,272L561.1,272z M530.7,216.3c0.9,0.3,2-0.1,2.3-1.1c0.3-0.9-0.1-2-1.1-2.3c0,0-9.3-3.5-14.1-5.7
			c-0.9-0.4-2,0-2.4,0.9c-0.4,0.9,0,2,0.9,2.4C521.2,212.8,530.7,216.3,530.7,216.3L530.7,216.3z M554.7,223.8
			c-0.8-0.5-2-0.3-2.5,0.6c-0.5,0.8-0.3,2,0.6,2.5c0,0,8.5,5.4,10.8,19.7c2.5,15.3,3.1,23,4.2,27.6c0.2,1,1.2,1.6,2.2,1.3
			c1-0.2,1.6-1.2,1.3-2.2c-1.1-4.5-1.7-12.2-4.2-27.3C564.6,229.8,554.7,223.8,554.7,223.8L554.7,223.8z M574.1,274.7
			c0.2,1,1.1,1.6,2.1,1.4c1-0.2,1.6-1.1,1.4-2.1c0,0-3.2-17-4-23.7c-0.9-7-2.8-21.5-16.8-32.9c-7.9-6.5-15.6-7.4-24.1-10.4
			c-8.8-3.1-14.3-6-14.3-6c-0.9-0.5-2-0.1-2.4,0.8c-0.5,0.9-0.1,2,0.8,2.4c0,0,5.7,3,14.7,6.2c8.1,2.9,15.5,3.6,23,9.8
			c13,10.6,14.7,24.1,15.5,30.6C570.9,257.5,574.1,274.7,574.1,274.7L574.1,274.7z M580.9,275.7c0.2,1,1.1,1.6,2.1,1.4
			c1-0.2,1.6-1.1,1.4-2.1c0,0-3.7-19.5-4.8-28.7c-1.2-9.6-6-27.7-21.6-35.7c-15.8-8-30.5-12.2-38.6-16.2c-0.9-0.4-2-0.1-2.4,0.8
			c-0.4,0.9-0.1,2,0.8,2.4c8.1,4,22.8,8.1,38.6,16.1c14.3,7.3,18.5,24,19.6,32.9C577.2,256.1,580.9,275.7,580.9,275.7L580.9,275.7z
			 M536.5,214.6c-0.9-0.3-2,0.2-2.3,1.2c-0.3,0.9,0.2,2,1.2,2.3c0,0,7.1,2.3,12.3,5.2c0.9,0.5,2,0.2,2.5-0.7c0.5-0.9,0.2-2-0.7-2.5
			C543.9,217,536.5,214.6,536.5,214.6L536.5,214.6z M582.5,249c0.1,1,0.9,1.7,1.9,1.7c1-0.1,1.7-0.9,1.7-1.9c0,0-1.2-15.4-7.3-25.1
			c-6.1-9.7-13.5-17.7-27.7-23c-13.6-5.1-24.1-8.8-30.4-12.4c-0.9-0.5-2-0.2-2.5,0.7c-0.5,0.9-0.2,2,0.7,2.5
			c6.4,3.6,17.1,7.4,30.9,12.6c13.2,5,20.2,12.5,25.9,21.6C581.5,234.6,582.5,249,582.5,249L582.5,249z M587.6,276.1
			c0.2,1,1.2,1.6,2.2,1.4c1-0.2,1.6-1.2,1.4-2.2c0,0-2.9-13.3-4.1-20.2c-0.2-1-1.1-1.6-2.1-1.5c-1,0.2-1.6,1.1-1.5,2.1
			C584.6,262.8,587.6,276.1,587.6,276.1L587.6,276.1z M593.3,275.4c0.2,1,1.1,1.6,2.1,1.5c1-0.2,1.6-1.1,1.5-2.1
			c0,0-4.2-24.5-4.8-31.1c-0.6-6.8-5.5-25.6-23.8-40.4c-11.1-9-29.7-14.3-29.7-14.3c-1-0.3-2,0.3-2.2,1.2c-0.3,1,0.3,2,1.2,2.2
			c0,0,17.8,5.1,28.4,13.6c17.1,13.8,21.9,31.4,22.4,37.9C589,250.7,593.3,275.4,593.3,275.4L593.3,275.4z M530.7,190
			c0.9,0.4,2,0,2.4-0.9c0.4-0.9,0-2-0.9-2.4c0,0-6.5-3-9.8-4.6c-0.9-0.4-2,0-2.4,0.9c-0.4,0.9,0,2,0.9,2.4
			C524.2,186.9,530.7,190,530.7,190L530.7,190z M525.1,176.3c-0.9-0.4-2,0-2.4,0.9c-0.4,0.9,0,2,0.9,2.4c0,0,20.2,9.4,31.1,12.2
			c11.3,2.9,22.4,2.2,33-5.1c11.2-7.8,20.2-18.5,24.6-28.5c4.2-9.4,7-17.3,17.1-23c9.9-5.6,23.6-5.9,34.1,3.4
			c10.4,9.2,11.8,22.5,7.7,31.8c-6.2,14.2-9.1,18.9-12.6,33c-3.3,13.4-3.6,26.1-1.6,43.6c0.1,1,1,1.7,2,1.6s1.7-1,1.6-2
			c-1.9-17-1.7-29.3,1.5-42.4c3.4-13.9,6.3-18.5,12.4-32.4c4.6-10.5,3.2-25.5-8.6-35.9c-11.8-10.4-27.1-10.1-38.3-3.9
			c-11,6.2-14.1,14.6-18.6,24.7c-4.2,9.5-12.7,19.6-23.4,27c-9.6,6.7-19.7,7.3-30.1,4.6C544.9,185.5,525.1,176.3,525.1,176.3
			L525.1,176.3z M599.7,273.8c0.2,1,1.2,1.6,2.2,1.3c1-0.2,1.6-1.2,1.3-2.2c0,0-4.9-20.3-5.8-33.2c-1.1-14.8,1.2-29.5,2.8-41.3
			c1-7.5,3.8-17.1,3.8-17.1c0.3-1-0.3-2-1.2-2.2c-1-0.3-2,0.3-2.2,1.2c0,0-2.9,9.8-3.9,17.6c-1.6,12-3.9,27-2.8,42
			C594.7,253.1,599.7,273.8,599.7,273.8L599.7,273.8z M570.7,186.5c1-0.2,1.6-1.1,1.4-2.1c-0.2-1-1.2-1.6-2.1-1.4
			c0,0-8.5,1.7-18.1-2.1c-10.1-4-24.6-10-24.6-10c-0.9-0.4-2,0.1-2.4,1c-0.4,0.9,0.1,2,1,2.4c0,0,14.6,6,24.7,10
			C561.2,188.4,570.7,186.5,570.7,186.5L570.7,186.5z M605.7,272.8c0.2,1,1.2,1.6,2.2,1.4c1-0.2,1.6-1.2,1.4-2.2
			c0,0-5.2-22.5-5.4-37.1c-0.2-14.5,0.9-21.1,0.9-21.1c0.2-1-0.5-1.9-1.5-2.1c-1-0.2-1.9,0.5-2.1,1.5c0,0-1.1,6.8-0.9,21.8
			C600.4,249.9,605.7,272.8,605.7,272.8L605.7,272.8z M611.7,271.8c0.2,1,1.2,1.6,2.2,1.3c1-0.2,1.6-1.2,1.3-2.2
			c0,0-5.9-23.3-5.7-52.5c0.2-17.5,11-49.2,18.4-63.3c2.7-5.2,6.1-8.4,9.5-10c5-2.4,10.2-1.6,13.8,0.2c3.6,1.8,7.6,5.3,8.8,10.7
			c0.9,3.7,0.5,8.3-2.1,13.8c-7,15.1-10.9,20-13.7,43.2c-2.8,23.2,1.4,42.8,1.4,42.8c0.2,1,1.2,1.6,2.2,1.4c1-0.2,1.6-1.2,1.4-2.2
			c0,0-4.1-19-1.4-41.6c2.8-22.6,6.6-27.4,13.4-42.1c3-6.4,3.3-11.8,2.3-16.1c-1.6-6.6-6.4-11-10.7-13.1c-4.4-2.2-10.8-3.2-16.9-0.2
			c-4,1.9-8,5.5-11.2,11.6c-7.5,14.4-18.6,46.9-18.8,64.9C605.7,248.1,611.7,271.8,611.7,271.8L611.7,271.8z M645.9,118.9
			c1,0.2,1.9-0.4,2.2-1.4c0.2-1-0.4-1.9-1.4-2.2c0,0-7.7-1.8-19.4,3c-11.5,4.7-19.5,11.6-26.6,27.2c-6.6,14.5-12.1,23.9-26.2,29.8
			c-11.3,4.7-22.7,0.8-44.4-10.3c-0.9-0.5-2-0.1-2.4,0.8c-0.5,0.9-0.1,2,0.8,2.4c23.1,11.8,35.4,15.4,47.4,10.4
			c15-6.3,21-16.1,28.1-31.6c6.6-14.4,14-21,24.7-25.3C639,117.5,645.9,118.9,645.9,118.9L645.9,118.9z M617.6,269.6
			c0.2,1,1.2,1.6,2.2,1.4c1-0.2,1.6-1.2,1.4-2.2c0,0-4.7-21-5.4-38.2c-0.7-17.1,4.7-42.2,8.5-51.8c3.5-8.7,8.9-21.5,11.1-24.8
			c1.9-2.9,7.4-5.8,13.1-3.4c5.7,2.4,7,8.8,5.6,13.2c-1.6,5.2-10.9,19.5-14.1,38.7c-3.2,19.4-2.6,38.5,0.7,56.2
			c0.2,1,1.1,1.6,2.1,1.4c1-0.2,1.6-1.1,1.4-2.1c-3.2-17.2-3.8-36-0.7-54.9c3.1-19,12.4-33.1,14-38.2c1.9-5.9,0-14.3-7.6-17.6
			c-7.7-3.3-15,0.8-17.6,4.7c-2.3,3.5-7.8,16.5-11.4,25.5c-3.9,9.9-9.5,35.7-8.8,53.3C612.8,248.3,617.6,269.6,617.6,269.6
			L617.6,269.6z M593,155.7c0.4-0.9,0-2-0.9-2.4c-0.9-0.4-2,0-2.4,0.9c0,0-5.4,11.5-18.3,15.1c-8.8,2.5-21.1,1.2-37.4-9.4
			c-0.8-0.5-2-0.3-2.5,0.5c-0.5,0.8-0.3,2,0.5,2.5c17.6,11.4,30.8,12.5,40.3,9.9C586.9,168.7,593,155.7,593,155.7L593,155.7z
			 M583.3,205.2l-0.5,3.5c-3.1-3.1-6.8-6.5-9.4-8.8c7.9-1.4,14.6-5.6,18.8-8.9c-2.9,13.2-4.4,30.2-4.4,30.2c-0.1,1,0.7,1.9,1.6,2
			s1.9-0.7,2-1.6c0,0,1.9-22.2,5.7-35.2c0.2-0.8-0.1-1.7-0.8-2.1s-1.6-0.3-2.2,0.3c0,0-11.1,11.8-25,12.1c-0.8,0-1.4,0.5-1.7,1.2
			c-0.2,0.7,0,1.5,0.5,2c0,0,10,8.4,14.8,14c0.5,0.5,1.2,0.8,1.9,0.5c0.7-0.2,1.2-0.8,1.3-1.5l1.7-13.3c0.1-0.6-0.2-1.3-0.7-1.7
			c-0.5-0.4-1.2-0.5-1.8-0.2l-3.6,1.5c-0.5,0.2-0.9,0.7-1.1,1.2c-0.1,0.6,0,1.1,0.3,1.6L583.3,205.2L583.3,205.2z M624.6,255.3
			c-0.2-1-1.2-1.6-2.2-1.3c-1,0.2-1.6,1.2-1.3,2.2c0,0,0.9,3.8,2.3,11.1c0.2,1,1.1,1.6,2.1,1.5c1-0.2,1.6-1.1,1.5-2.1
			C625.6,259.2,624.6,255.3,624.6,255.3L624.6,255.3z M647.9,106.5c1,0.1,1.9-0.6,2-1.5c0.1-1-0.5-1.9-1.5-2c0,0-12.7-1.8-28.3,4.7
			c-17.6,7.3-25.2,22.3-30.1,31.5c-2,3.8-3.9,8.5-6.6,12.9c-3.8,6.2-9.1,11.6-18.7,11.9c-16.5,0.6-27.3-9.2-27.3-9.2
			c-0.7-0.7-1.9-0.6-2.6,0.1c-0.7,0.7-0.6,1.9,0.1,2.6c0,0,11.8,10.7,29.8,10.1c11.1-0.4,17.4-6.6,21.7-13.7
			c2.7-4.5,4.7-9.3,6.7-13.1c4.6-8.7,11.7-23,28.3-29.9C636.1,104.9,647.9,106.5,647.9,106.5L647.9,106.5z M540.4,149.5L540.4,149.5
			c-0.9-0.5-2-0.2-2.5,0.7c-0.5,0.9-0.2,2,0.7,2.5c0,0,7.2,4.1,15.5,6.4c5.8,1.6,12.1,2.3,17,0.5c0.9-0.3,1.4-1.4,1.1-2.3
			c-0.3-0.9-1.4-1.4-2.3-1.1c-4.3,1.6-9.8,0.8-14.8-0.6C547.2,153.3,540.4,149.5,540.4,149.5L540.4,149.5z M628.3,222.6
			c0-1-0.8-1.8-1.8-1.8c-1,0-1.8,0.8-1.8,1.8c0,0,0.4,23.1,4.5,41.3c0.2,1,1.2,1.6,2.2,1.4c1-0.2,1.6-1.2,1.4-2.2
			C628.7,245.3,628.3,222.6,628.3,222.6L628.3,222.6z M640.8,178.1c-0.4,0.9,0.1,2,1,2.4c0.9,0.4,2-0.1,2.4-1c0,0,2.4-5.9,4.5-10
			c1.1-2.2,2.4-4.9,2.9-7.6c0.6-3.2,0-6.1-3-8.3c-1.8-1.3-3.5-1.7-5.1-1.5c-3.3,0.3-6.2,3.5-7.9,7.2c-2.8,6.2-7.5,16.4-10.4,25.4
			c-2.4,7.4-9,31.6-4.7,66c0.1,1,1,1.7,2,1.6c1-0.1,1.7-1,1.6-2c-4.2-33.5,2.2-57.2,4.5-64.4c2.9-8.9,7.5-19,10.3-25
			c1.6-3.4,4.1-6.8,7.6-4.3c1.6,1.2,1.8,2.9,1.5,4.7c-0.4,2.3-1.6,4.7-2.6,6.6C643.3,172.1,640.8,178.1,640.8,178.1L640.8,178.1z
			 M577,146.4c0.4-0.9,0.1-2-0.8-2.4c-0.9-0.4-2-0.1-2.4,0.8c0,0-4.4,9.2-13.9,6c-10.8-3.6-15.5-6.2-15.5-6.2
			c-0.9-0.5-2-0.2-2.5,0.7c-0.5,0.9-0.2,2,0.7,2.5c0,0,5,2.7,16.1,6.5C571.2,158.5,577,146.4,577,146.4L577,146.4z M635,261.9
			c0.2,1,1.2,1.6,2.2,1.3c1-0.2,1.6-1.2,1.3-2.2c0,0-4.4-17.9-3.6-41.2c0-1-0.7-1.8-1.7-1.9c-1,0-1.8,0.7-1.9,1.7
			C630.5,243.6,635,261.9,635,261.9L635,261.9z M679.4,162.1c-0.1,1,0.6,1.9,1.6,2s1.9-0.6,2-1.6c0,0,1.1-9.9-4.4-20.5
			c-5.4-10.6-14.1-16.4-24.5-19.4c-10.4-3-22.3-1.1-31.1,5.1c-8.6,6.1-13.4,11.1-19.3,26.3c-4.7,12.1-16,22.3-28,27.6
			c-0.9,0.4-1.3,1.5-0.9,2.4c0.4,0.9,1.5,1.3,2.4,0.9c12.8-5.6,24.9-16.6,29.9-29.6c5.6-14.3,10-19,18-24.6c7.9-5.6,18.6-7.3,28-4.6
			c9.4,2.7,17.3,8,22.3,17.6C680.3,153.2,679.4,162.1,679.4,162.1L679.4,162.1z M548.9,140.1L548.9,140.1c-0.9-0.4-2,0.1-2.4,1
			c-0.4,0.9,0.1,2,1,2.4c0,0,6.8,2.8,12.8,3.7c2.9,0.4,5.6,0.4,7.4-0.4c2.5-1.1,4.3-3.3,5.7-6c1.8-3.5,2.9-7.9,4.4-11
			c2.5-5.1,10.8-19.8,23.5-28.1c12.7-8.3,34.6-18.8,60.5-11.5c11.5,3.3,29.9,12.2,41.6,28.8c11.6,16.4,11.5,27.1,11.5,27.1
			c0,1,0.8,1.8,1.8,1.8c1,0,1.8-0.8,1.8-1.8c0,0,0.3-11.6-12.2-29.3c-12.3-17.4-31.5-26.8-43.6-30.2c-27.1-7.7-50.2,3.2-63.5,11.9
			c-13.3,8.8-22.1,24.2-24.8,29.6c-1.3,2.7-2.3,6.2-3.6,9.3c-1.1,2.6-2.4,5-4.7,6c-1.9,0.8-4.9,0.4-7.9-0.3
			C553.6,142.1,548.9,140.1,548.9,140.1L548.9,140.1z M601.6,204.8c-0.2,1,0.5,1.9,1.4,2.1c1,0.2,1.9-0.5,2.1-1.4
			c0,0,2.7-14.2,4.8-23.1c2-8.8,8-20.7,12.3-30.2c4.1-8.9,12.6-13,12.6-13c0.9-0.4,1.3-1.5,0.9-2.4c-0.4-0.9-1.5-1.3-2.4-0.9
			c0,0-9.7,4.6-14.3,14.8c-4.4,9.7-10.5,21.8-12.5,30.9C604.4,190.5,601.6,204.8,601.6,204.8L601.6,204.8z M559.6,141.3
			c1,0,1.8-0.9,1.8-1.8c0-1-0.9-1.8-1.8-1.8c0,0-3.6,0.1-8-1.2c-1-0.3-2,0.3-2.2,1.3c-0.3,1,0.3,2,1.3,2.2
			C555.5,141.4,559.6,141.3,559.6,141.3L559.6,141.3z M559.5,131c-1.7-0.3-4.3-0.6-4.3-0.6c-1-0.1-1.9,0.6-2,1.6
			c-0.1,1,0.6,1.9,1.6,2c0,0,3.7,0.3,4.5,0.7c0.5,0.2,1,0.2,1.6,0c0.3-0.2,0.8-0.5,1.3-1.1c1.4-1.9,3.9-7,3.9-7c0.4-0.9,0-2-0.9-2.4
			c-0.9-0.4-2,0-2.4,0.9c0,0-1.4,3-2.6,5.1C560,130.3,559.7,130.7,559.5,131L559.5,131z M573.5,154.1c-0.8,0.6-1,1.7-0.5,2.5
			c0.6,0.8,1.7,1,2.5,0.5c0,0,6-4.1,9.4-12.9c3.1-8,5.8-14.6,12.9-22.3c7.2-7.7,12.8-11.8,12.8-11.8c0.8-0.6,1-1.7,0.4-2.5
			c-0.6-0.8-1.7-1-2.5-0.4c0,0-5.8,4.3-13.2,12.3c-7.6,8.1-10.4,15-13.7,23.5C578.7,150.5,573.5,154.1,573.5,154.1L573.5,154.1z
			 M651.5,251.9c0.1,1,1.1,1.7,2.1,1.5c1-0.1,1.7-1.1,1.5-2.1c0,0-3.1-20.9-1-36c0.1-1-0.6-1.9-1.5-2s-1.9,0.6-2,1.5
			C648.3,230.4,651.5,251.9,651.5,251.9L651.5,251.9z M645.7,160.4c0.5-0.9,0.2-2-0.6-2.5c-0.9-0.5-2-0.2-2.5,0.6
			c0,0-13.3,22.3-17.5,58.1c-0.1,1,0.6,1.9,1.6,2c1,0.1,1.9-0.6,2-1.6C632.8,182.1,645.7,160.4,645.7,160.4L645.7,160.4z
			 M579.1,115.4c0.5-0.9,0.2-2-0.6-2.5c-0.9-0.5-2-0.2-2.5,0.6c0,0-8.5,14.2-12.5,23.7c-0.4,0.9,0,2,1,2.4c0.9,0.4,2,0,2.4-1
			C570.8,129.3,579.1,115.4,579.1,115.4L579.1,115.4z M631.9,213.6c-0.2,1,0.5,1.9,1.5,2.1c1,0.2,1.9-0.5,2.1-1.5
			c0,0,3.1-18.5,6.1-27.7c0.3-0.9-0.2-2-1.2-2.3c-0.9-0.3-2,0.2-2.3,1.2C635.1,194.8,631.9,213.6,631.9,213.6L631.9,213.6z
			 M575.8,139.9c-0.3,0.9,0.2,2,1.1,2.3c0.9,0.3,2-0.2,2.3-1.1c0,0,2.8-8.2,10.8-20.1c8.4-12.5,23.3-20.3,33.7-24.1
			c10.4-3.8,31-4.9,47.2,2.7c16.3,7.6,28.1,20.3,35.5,37.4c7.3,17,4.1,39.4-2.6,52.4c-7.1,13.7-9.2,21.6-9.5,27.3
			c0,1,0.7,1.8,1.7,1.9c1,0,1.8-0.7,1.9-1.7c0.3-5.4,2.4-12.8,9.1-25.8c7.1-13.7,10.5-37.5,2.7-55.5c-7.7-17.9-20.1-31.2-37.3-39.2
			c-17.2-8.1-39-6.8-50-2.8c-11,4-26.7,12.3-35.5,25.5C578.7,131.4,575.8,139.9,575.8,139.9L575.8,139.9z M662.9,243.1
			c0.1,1,1,1.7,2,1.6c1-0.1,1.7-1,1.6-2c0,0-1.7-18.8,0.2-29.6c2-10.8,6.7-24.8,8.8-29.1c2.2-4.5,5.3-10.8,6.1-14.2
			c0.2-1-0.4-2-1.3-2.2c-1-0.2-2,0.4-2.2,1.3c-0.8,3.2-3.7,9.2-5.8,13.5c-2.2,4.5-7.1,18.9-9.1,30
			C661.2,223.7,662.9,243.1,662.9,243.1L662.9,243.1z M679.7,128.5c0.6,0.8,1.7,0.9,2.5,0.3c0.8-0.6,0.9-1.7,0.3-2.5
			c0,0-9-11.7-27.2-16c-18.2-4.3-32.1,0.4-42.7,8.9c-10.5,8.3-16.5,20.3-20.4,30.2c-0.4,0.9,0.1,2,1,2.3c0.9,0.4,2-0.1,2.3-1
			c3.7-9.4,9.3-20.8,19.2-28.7c9.8-7.8,22.8-12.1,39.7-8.2C671.4,117.8,679.7,128.5,679.7,128.5L679.7,128.5z M668.6,238.8
			c0,1,0.9,1.8,1.9,1.7c1,0,1.8-0.9,1.7-1.9c0,0-0.6-16.4,0.7-24.7c1.3-8.3,5.1-20.6,8.7-28c3.7-7.8,7.9-15.1,7.8-25.6
			c-0.1-10.6-2.7-18-7.9-25.8c-5.3-7.9-15-16.3-29.2-18.7c-1-0.2-1.9,0.5-2.1,1.5c-0.2,1,0.5,1.9,1.5,2.1c13,2.2,22,10,26.9,17.2
			c4.9,7.2,7.3,14,7.3,23.8c0.1,9.9-4,16.7-7.5,24c-3.7,7.7-7.7,20.5-9,29C668,222,668.6,238.8,668.6,238.8L668.6,238.8z
			 M651.3,208.6c-0.2,1,0.5,1.9,1.5,2.1c1,0.2,1.9-0.5,2.1-1.5c0,0,2.8-16.2,8.3-28c5.8-12.6,12.2-22.6,2.2-36.2
			c-10.2-13.9-25.1-10.9-25.1-10.9c-1,0.2-1.6,1.1-1.4,2.1c0.2,1,1.1,1.6,2.1,1.4c0,0,12.7-2.4,21.5,9.5c9,12.2,2.6,21.2-2.6,32.5
			C654.3,191.8,651.3,208.6,651.3,208.6L651.3,208.6z M674.4,233.9c0,1,0.8,1.8,1.8,1.8c1,0,1.8-0.8,1.8-1.8c0,0-0.2-15.2,2.1-24.3
			c2.3-9.1,7.1-21.5,11.1-28.9c4.2-7.8,9-31.4-4.5-49.2c-0.6-0.8-1.7-1-2.5-0.3c-0.8,0.6-1,1.7-0.3,2.5c12.4,16.4,8.1,38.2,4.2,45.3
			c-4.1,7.6-9.1,20.3-11.5,29.7C674.2,218.1,674.4,233.9,674.4,233.9L674.4,233.9z M680.5,228.3c0,1,0.8,1.8,1.8,1.8
			c1,0,1.8-0.8,1.8-1.8c0,0-0.1-14.1,4.5-26.6c4.7-13,11.7-23.7,12.6-39c0.9-15.2-4-34.2-22.5-48.4c-12.2-9.4-23.8-10.5-23.8-10.5
			c-1-0.1-1.9,0.6-2,1.6c-0.1,1,0.6,1.9,1.6,2c0,0,10.6,1.1,21.9,9.8c17.3,13.3,22,31.1,21.1,45.3c-0.9,14.9-7.7,25.3-12.4,38
			C680.5,213.5,680.5,228.3,680.5,228.3L680.5,228.3z M687,222.1c-0.1,1,0.6,1.9,1.6,2c1,0.1,1.9-0.6,2-1.6c0,0,1.6-12.1,4.2-19.6
			c0.3-0.9-0.2-2-1.1-2.3c-0.9-0.3-2,0.2-2.3,1.1C688.7,209.6,687,222.1,687,222.1L687,222.1z M630.7,101.7c1-0.2,1.6-1.2,1.4-2.2
			c-0.2-1-1.2-1.6-2.2-1.4c0,0-8.3,1.9-16.7,5.9c-0.9,0.4-1.3,1.5-0.9,2.4c0.4,0.9,1.5,1.3,2.4,0.9
			C622.7,103.6,630.7,101.7,630.7,101.7L630.7,101.7z M694,194.9c-0.4,0.9-0.1,2,0.8,2.4c0.9,0.4,2,0.1,2.4-0.8c0,0,4.8-9.6,7-16.2
			c2.3-6.7,5.4-22.4,0.8-38.4c-4.7-16-12.9-26.4-26.7-35.6c-12.8-8.6-30.5-11.7-43.8-9.1c-1,0.2-1.6,1.1-1.4,2.1
			c0.2,1,1.1,1.6,2.1,1.4c12.4-2.5,29,0.4,41.1,8.5c13,8.7,20.8,18.6,25.2,33.6c4.4,15.1,1.5,29.9-0.7,36.2
			C698.7,185.6,694,194.9,694,194.9L694,194.9z M719.4,151.2c-0.1-1-1.1-1.7-2-1.5c-1,0.1-1.7,1.1-1.5,2c0,0,2,14.1-1.8,27.5
			c-3.2,11.4-7.9,18.5-10,24.1c-0.3,0.9,0.2,2,1.1,2.3c0.9,0.3,2-0.2,2.3-1.1c2-5.7,6.8-12.9,10-24.4
			C721.5,166.1,719.4,151.2,719.4,151.2L719.4,151.2z M662.3,83.2c1,0.2,1.9-0.4,2.1-1.4c0.2-1-0.4-1.9-1.4-2.1c0,0-6-1.3-13.4-1.5
			c-1,0-1.8,0.7-1.9,1.7c0,1,0.7,1.8,1.7,1.9C656.6,82,662.3,83.2,662.3,83.2L662.3,83.2z M722.2,170.2c-0.1,1,0.6,1.9,1.6,2
			c1,0.1,1.9-0.6,2-1.6c0,0,3.8-28.7-11.5-53.4c-17-27.3-45.2-35.5-45.2-35.5c-1-0.3-2,0.3-2.2,1.2c-0.3,1,0.3,2,1.2,2.2
			c0,0,26.9,7.9,43.2,34C725.9,142.8,722.2,170.2,722.2,170.2L722.2,170.2z M725.6,136.7c0.2,1,1.2,1.6,2.2,1.4
			c1-0.2,1.6-1.2,1.4-2.2c0,0-7.7-35.3-43.6-53.5c-0.9-0.5-2-0.1-2.4,0.8c-0.5,0.9-0.1,2,0.8,2.4
			C718.2,103.1,725.6,136.7,725.6,136.7L725.6,136.7z"/>
	</g>
	<g>
		<g>
			<linearGradient id="SVGID_3_" gradientUnits="userSpaceOnUse" x1="1043.3253" y1="328.5193" x2="359.0901" y2="328.5193">
				<stop  offset="0" style="stop-color:#0A2472"/>
				<stop  offset="1" style="stop-color:#1A43BF"/>
			</linearGradient>
			<path fill="url(#SVGID_3_)" d="M346.8,317.1v1c0,2,0.5,3.4,1.7,4.3c1.1,0.9,2.8,1.3,5.2,1.3h32.4c2.5,0,4.8,0.2,6.8,0.7
				c2,0.5,3.8,1.2,5.2,2.3c1.4,1.1,2.5,2.5,3.3,4.2c0.8,1.7,1.2,3.8,1.2,6.3v4.5c0,2.5-0.4,4.6-1.2,6.4c-0.8,1.7-1.9,3.2-3.3,4.2
				c-1.4,1.1-3.2,1.8-5.2,2.3c-2,0.5-4.3,0.7-6.8,0.7h-47c-1.7,0-2.5-0.8-2.5-2.5v-4.8c0-1.6,0.8-2.5,2.5-2.5h45.5
				c2.4,0,4.1-0.4,5.2-1.3c1.1-0.9,1.7-2.3,1.7-4.3v-1c0-2-0.6-3.4-1.7-4.3c-1.1-0.9-2.8-1.3-5.2-1.3h-32.4c-2.6,0-4.9-0.2-6.9-0.7
				c-2-0.5-3.8-1.2-5.2-2.3c-1.4-1.1-2.5-2.5-3.3-4.2c-0.8-1.7-1.2-3.8-1.2-6.3v-4.5c0-2.5,0.4-4.6,1.2-6.4c0.8-1.7,1.9-3.2,3.3-4.2
				c1.4-1.1,3.2-1.8,5.2-2.3c2-0.5,4.3-0.7,6.9-0.7h46.3c1.7,0,2.5,0.8,2.5,2.5v4.8c0,1.6-0.8,2.5-2.5,2.5h-44.8
				C349.1,311.4,346.8,313.3,346.8,317.1z"/>
			<linearGradient id="SVGID_4_" gradientUnits="userSpaceOnUse" x1="1043.3253" y1="335.4352" x2="359.0901" y2="335.4352">
				<stop  offset="0" style="stop-color:#0A2472"/>
				<stop  offset="1" style="stop-color:#1A43BF"/>
			</linearGradient>
			<path fill="url(#SVGID_4_)" d="M449.1,329.6c0-1.6-0.5-2.9-1.4-3.9c-0.9-0.9-2.2-1.4-3.9-1.4h-31.6c-1.4,0-2.2-0.7-2.2-2.2v-4.4
				c0-1.5,0.7-2.2,2.2-2.2h34.8c3.6,0,6.6,1.1,8.8,3.3c2.2,2.2,3.3,5.1,3.3,8.8v16.6c0,3.6-1,6.4-2.9,8.4c-1.9,1.9-4.7,2.9-8.4,2.9
				h-28.5c-3.6,0-6.3-0.9-8.1-2.8c-1.8-1.9-2.8-4.6-2.8-8.1v-2c0-7.3,3.6-10.9,10.9-10.9h29.8V329.6z M445.3,346.6
				c2.6,0,3.8-1.3,3.8-3.8v-3.5h-27.2c-1.3,0-2.2,0.3-2.7,0.9c-0.5,0.6-0.8,1.4-0.8,2.6v0.4c0,1.2,0.3,2.1,0.8,2.6
				c0.5,0.6,1.4,0.8,2.7,0.8H445.3z"/>
			<linearGradient id="SVGID_5_" gradientUnits="userSpaceOnUse" x1="1043.3253" y1="327.0596" x2="359.0901" y2="327.0596">
				<stop  offset="0" style="stop-color:#0A2472"/>
				<stop  offset="1" style="stop-color:#1A43BF"/>
			</linearGradient>
			<path fill="url(#SVGID_5_)" d="M478.6,345.7c0.5,0.6,1.4,0.8,2.5,0.8h0.8c1.5,0,2.2,0.7,2.2,2.2v4.4c0,1.5-0.7,2.2-2.2,2.2h-3.2
				c-3.5,0-6.2-0.9-8.1-2.8c-1.9-1.9-2.8-4.6-2.8-8.1v-43.6c0-1.5,0.7-2.2,2.2-2.2h5.6c1.5,0,2.2,0.7,2.2,2.2v42.3
				C477.8,344.3,478.1,345.2,478.6,345.7z"/>
			<linearGradient id="SVGID_6_" gradientUnits="userSpaceOnUse" x1="1043.3253" y1="330.6327" x2="359.0901" y2="330.6327">
				<stop  offset="0" style="stop-color:#0A2472"/>
				<stop  offset="1" style="stop-color:#1A43BF"/>
			</linearGradient>
			<path fill="url(#SVGID_6_)" d="M525.5,348.8v4.4c0,1.5-0.7,2.2-2.2,2.2h-18.4c-3.6,0-6.6-1.1-8.8-3.3c-2.2-2.2-3.3-5.1-3.3-8.8
				v-19.1h-4.1c-1.4,0-2.2-0.7-2.2-2.2v-4.4c0-1.5,0.7-2.2,2.2-2.2h4.1v-7.4c0-1.5,0.7-2.2,2.2-2.2h5.5c1.5,0,2.2,0.7,2.2,2.2v7.4
				h20.1c1.5,0,2.2,0.7,2.2,2.2v4.4c0,1.5-0.7,2.2-2.2,2.2h-20.1v17c0,1.6,0.5,2.9,1.4,3.9c0.9,0.9,2.2,1.4,3.9,1.4h15.1
				C524.8,346.6,525.5,347.3,525.5,348.8z"/>
			<linearGradient id="SVGID_7_" gradientUnits="userSpaceOnUse" x1="1043.3253" y1="335.4352" x2="359.0901" y2="335.4352">
				<stop  offset="0" style="stop-color:#0A2472"/>
				<stop  offset="1" style="stop-color:#1A43BF"/>
			</linearGradient>
			<path fill="url(#SVGID_7_)" d="M572.5,315.5c3.6,0,6.3,0.9,8.2,2.8c1.9,1.9,2.8,4.6,2.8,8.1v2c0,3.6-0.9,6.3-2.8,8.1
				c-1.9,1.8-4.6,2.8-8.2,2.8h-29.7v2c0,1.6,0.5,2.9,1.4,3.9c0.9,0.9,2.2,1.4,3.9,1.4h31.7c1.5,0,2.2,0.7,2.2,2.2v4.4
				c0,1.5-0.7,2.2-2.2,2.2h-34.9c-3.6,0-6.6-1.1-8.8-3.3c-2.2-2.2-3.3-5.1-3.3-8.8v-15.8c0-3.6,1.1-6.6,3.3-8.8
				c2.2-2.2,5.1-3.3,8.8-3.3H572.5z M542.7,331.6h27.2c1.3,0,2.2-0.3,2.7-0.9c0.5-0.6,0.8-1.4,0.8-2.6v-0.4c0-1.2-0.3-2-0.8-2.6
				c-0.5-0.6-1.4-0.8-2.7-0.8H548c-1.6,0-2.9,0.5-3.9,1.4c-0.9,0.9-1.4,2.2-1.4,3.9V331.6z"/>
			<linearGradient id="SVGID_8_" gradientUnits="userSpaceOnUse" x1="1043.3253" y1="327.0596" x2="359.0901" y2="327.0596">
				<stop  offset="0" style="stop-color:#0A2472"/>
				<stop  offset="1" style="stop-color:#1A43BF"/>
			</linearGradient>
			<path fill="url(#SVGID_8_)" d="M622.2,315.5c2.3,0,4.2,0.4,5.8,1.2c1.6,0.8,2.8,1.8,3.8,3.2v-18.8c0-1.5,0.7-2.2,2.2-2.2h5.6
				c1.5,0,2.2,0.7,2.2,2.2v42.4c0,3.6-1.1,6.6-3.3,8.8c-2.2,2.2-5.2,3.3-8.8,3.3h-27.1c-3.6,0-6.6-1.1-8.8-3.3
				c-2.2-2.2-3.3-5.1-3.3-8.8v-15.8c0-3.6,1.1-6.6,3.3-8.8c2.2-2.2,5.1-3.3,8.8-3.3H622.2z M631.8,329.6c0-1.6-0.5-2.9-1.4-3.9
				c-0.9-0.9-2.2-1.4-3.9-1.4h-20.7c-1.6,0-2.9,0.5-3.9,1.4c-0.9,0.9-1.4,2.2-1.4,3.9v11.7c0,1.6,0.5,2.9,1.4,3.9
				c0.9,0.9,2.2,1.4,3.9,1.4h20.7c1.6,0,2.9-0.5,3.9-1.4c0.9-0.9,1.4-2.2,1.4-3.9V329.6z"/>
			<linearGradient id="SVGID_9_" gradientUnits="userSpaceOnUse" x1="1043.3253" y1="328.5193" x2="359.0901" y2="328.5193">
				<stop  offset="0" style="stop-color:#0A2472"/>
				<stop  offset="1" style="stop-color:#1A43BF"/>
			</linearGradient>
			<path fill="url(#SVGID_9_)" d="M653.5,301.6h6.1c1.7,0,2.5,0.8,2.5,2.5v19.4h44.6v-19.4c0-1.7,0.8-2.5,2.5-2.5h6.1
				c1.7,0,2.5,0.8,2.5,2.5v48.7c0,1.7-0.8,2.5-2.5,2.5h-6.1c-1.7,0-2.5-0.8-2.5-2.5v-19.4h-44.6v19.4c0,1.7-0.8,2.5-2.5,2.5h-6.1
				c-1.7,0-2.5-0.8-2.5-2.5v-48.7C651,302.5,651.9,301.6,653.5,301.6z"/>
			<linearGradient id="SVGID_10_" gradientUnits="userSpaceOnUse" x1="1043.3253" y1="335.4352" x2="359.0901" y2="335.4352">
				<stop  offset="0" style="stop-color:#0A2472"/>
				<stop  offset="1" style="stop-color:#1A43BF"/>
			</linearGradient>
			<path fill="url(#SVGID_10_)" d="M766.2,329.6c0-1.6-0.5-2.9-1.4-3.9c-0.9-0.9-2.2-1.4-3.9-1.4h-31.6c-1.4,0-2.2-0.7-2.2-2.2v-4.4
				c0-1.5,0.7-2.2,2.2-2.2h34.8c3.6,0,6.6,1.1,8.8,3.3c2.2,2.2,3.3,5.1,3.3,8.8v16.6c0,3.6-1,6.4-2.9,8.4c-1.9,1.9-4.7,2.9-8.4,2.9
				h-28.5c-3.6,0-6.3-0.9-8.1-2.8c-1.8-1.9-2.8-4.6-2.8-8.1v-2c0-7.3,3.6-10.9,10.9-10.9h29.8V329.6z M762.4,346.6
				c2.6,0,3.8-1.3,3.8-3.8v-3.5H739c-1.3,0-2.2,0.3-2.7,0.9c-0.5,0.6-0.8,1.4-0.8,2.6v0.4c0,1.2,0.3,2.1,0.8,2.6
				c0.5,0.6,1.4,0.8,2.7,0.8H762.4z"/>
			<linearGradient id="SVGID_11_" gradientUnits="userSpaceOnUse" x1="1043.3253" y1="335.4352" x2="359.0901" y2="335.4352">
				<stop  offset="0" style="stop-color:#0A2472"/>
				<stop  offset="1" style="stop-color:#1A43BF"/>
			</linearGradient>
			<path fill="url(#SVGID_11_)" d="M786.3,355.4c-1.5,0-2.2-0.7-2.2-2.2v-4.4c0-1.5,0.7-2.2,2.2-2.2h33.7c1.3,0,2.2-0.3,2.7-0.8
				c0.5-0.6,0.8-1.4,0.8-2.6v-0.4c0-1.1-0.3-2-0.8-2.6c-0.5-0.6-1.4-0.9-2.7-0.9h-25.7c-7.3,0-10.9-3.6-10.9-10.9v-2
				c0-3.5,0.9-6.2,2.8-8.1c1.8-1.9,4.6-2.8,8.1-2.8h35.5c1.5,0,2.2,0.7,2.2,2.2v4.4c0,1.5-0.7,2.2-2.2,2.2h-32.9
				c-1.3,0-2.2,0.3-2.7,0.8c-0.5,0.6-0.8,1.4-0.8,2.6v0.4c0,1.1,0.3,2,0.8,2.6c0.5,0.6,1.4,0.9,2.7,0.9h25.7c3.6,0,6.3,0.9,8.2,2.8
				c1.9,1.8,2.8,4.6,2.8,8.1v2c0,3.5-0.9,6.2-2.8,8.1c-1.9,1.9-4.6,2.8-8.2,2.8H786.3z"/>
			<linearGradient id="SVGID_12_" gradientUnits="userSpaceOnUse" x1="1043.3253" y1="327.0596" x2="359.0901" y2="327.0596">
				<stop  offset="0" style="stop-color:#0A2472"/>
				<stop  offset="1" style="stop-color:#1A43BF"/>
			</linearGradient>
			<path fill="url(#SVGID_12_)" d="M887.9,318.8c2.2,2.2,3.3,5.1,3.3,8.8v25.7c0,1.5-0.7,2.2-2.2,2.2h-5.6c-1.5,0-2.2-0.7-2.2-2.2
				v-23.6c0-1.6-0.5-2.9-1.4-3.9c-0.9-0.9-2.2-1.4-3.9-1.4h-19.5c-1.6,0-2.9,0.5-3.9,1.4c-0.9,0.9-1.4,2.2-1.4,3.9v23.6
				c0,1.5-0.7,2.2-2.2,2.2h-5.6c-1.5,0-2.2-0.7-2.2-2.2v-52.3c0-1.5,0.7-2.2,2.2-2.2h5.6c1.4,0,2.2,0.7,2.2,2.2v18.9
				c0.9-1.3,2.2-2.4,3.8-3.2c1.6-0.8,3.5-1.2,5.8-1.2h18.4C882.8,315.5,885.7,316.6,887.9,318.8z"/>
		</g>
		<g>
			<linearGradient id="SVGID_13_" gradientUnits="userSpaceOnUse" x1="1048.5389" y1="301.5324" x2="364.3036" y2="301.5324">
				<stop  offset="0" style="stop-color:#0A2472"/>
				<stop  offset="1" style="stop-color:#1A43BF"/>
			</linearGradient>
			<path fill="url(#SVGID_13_)" d="M911.6,292.1v3.3h-5.5V311h-3.3v-15.6h-5.5v-3.3H911.6z"/>
			<linearGradient id="SVGID_14_" gradientUnits="userSpaceOnUse" x1="1048.5389" y1="303.5871" x2="364.3036" y2="303.5871">
				<stop  offset="0" style="stop-color:#0A2472"/>
				<stop  offset="1" style="stop-color:#1A43BF"/>
			</linearGradient>
			<path fill="url(#SVGID_14_)" d="M923.3,296.2c3.5,0,5,1.7,5,4.5c0,2.7-1.4,4.2-5,4.2h-7v1.1c0,1.2,0.6,2,2.3,2h9v2.9h-9
				c-3.7,0-5.1-2.1-5.1-4.9v-5c0-2.8,1.5-4.9,5.1-4.9H923.3z M916.3,302.7h6.9c1.6,0,2.2-0.7,2.2-1.8c0-1.1-0.6-1.8-2.1-1.8h-4.8
				c-1.6,0-2.3,0.9-2.3,2V302.7z"/>
			<linearGradient id="SVGID_15_" gradientUnits="userSpaceOnUse" x1="1048.5389" y1="303.5871" x2="364.3036" y2="303.5871">
				<stop  offset="0" style="stop-color:#0A2472"/>
				<stop  offset="1" style="stop-color:#1A43BF"/>
			</linearGradient>
			<path fill="url(#SVGID_15_)" d="M945.2,296.2v2.9h-7.3c-2.6,0-3.7,1.3-3.7,4.5s1.1,4.5,3.7,4.5h7.3v2.9h-7.6
				c-3.9,0-6.4-2.4-6.4-7.4s2.5-7.4,6.4-7.4H945.2z"/>
			<linearGradient id="SVGID_16_" gradientUnits="userSpaceOnUse" x1="1048.5389" y1="300.3864" x2="364.3036" y2="300.3864">
				<stop  offset="0" style="stop-color:#0A2472"/>
				<stop  offset="1" style="stop-color:#1A43BF"/>
			</linearGradient>
			<path fill="url(#SVGID_16_)" d="M951.7,289.8v6.4h5.2c5,0,7.4,2.4,7.4,6.5v8.3h-3v-8.3c0-2.3-1.4-3.6-4.4-3.6h-5.2V311h-3v-21.2
				H951.7z"/>
		</g>
		
			<text transform="matrix(1 0 0 1 377.7307 393.1427)" font-family="'NasalizationRg-Regular'" font-size="28.5683" letter-spacing="4">Securing Your Tomorrow</text>
	</g>
</g>
</svg>
